<svg viewBox="0 0 330 200" xmlns="http://www.w3.org/2000/svg"><g><g><g><g><g><line x1="41.0620002746582" y1="177.9749994277954" x2="36.0620002746582" y2="177.9749994277954" style="visibility: inherit;" fill="rgb(0, 0, 0)" stroke="rgb(204, 204, 204)" stroke-width="1px"></line><line x1="41.0620002746582" y1="160.17749948501586" x2="36.0620002746582" y2="160.17749948501586" style="visibility: inherit;" fill="rgb(0, 0, 0)" stroke="rgb(204, 204, 204)" stroke-width="1px"></line><line x1="41.0620002746582" y1="142.37999954223633" x2="36.0620002746582" y2="142.37999954223633" style="visibility: inherit;" fill="rgb(0, 0, 0)" stroke="rgb(204, 204, 204)" stroke-width="1px"></line><line x1="41.0620002746582" y1="124.58249959945678" x2="36.0620002746582" y2="124.58249959945678" style="visibility: inherit;" fill="rgb(0, 0, 0)" stroke="rgb(204, 204, 204)" stroke-width="1px"></line><line x1="41.0620002746582" y1="106.78499965667724" x2="36.0620002746582" y2="106.78499965667724" style="visibility: inherit;" fill="rgb(0, 0, 0)" stroke="rgb(204, 204, 204)" stroke-width="1px"></line><line x1="41.0620002746582" y1="88.9874997138977" x2="36.0620002746582" y2="88.9874997138977" style="visibility: inherit;" fill="rgb(0, 0, 0)" stroke="rgb(204, 204, 204)" stroke-width="1px"></line><line x1="41.0620002746582" y1="71.18999977111817" x2="36.0620002746582" y2="71.18999977111817" style="visibility: inherit;" fill="rgb(0, 0, 0)" stroke="rgb(204, 204, 204)" stroke-width="1px"></line><line x1="41.0620002746582" y1="53.39249982833863" x2="36.0620002746582" y2="53.39249982833863" style="visibility: inherit;" fill="rgb(0, 0, 0)" stroke="rgb(204, 204, 204)" stroke-width="1px"></line><line x1="41.0620002746582" y1="35.594999885559076" x2="36.0620002746582" y2="35.594999885559076" style="visibility: inherit;" fill="rgb(0, 0, 0)" stroke="rgb(204, 204, 204)" stroke-width="1px"></line><line x1="41.0620002746582" y1="17.797499942779524" x2="36.0620002746582" y2="17.797499942779524" style="visibility: inherit;" fill="rgb(0, 0, 0)" stroke="rgb(204, 204, 204)" stroke-width="1px"></line><line x1="41.0620002746582" y1="0" x2="36.0620002746582" y2="0" style="visibility: inherit;" fill="rgb(0, 0, 0)" stroke="rgb(204, 204, 204)" stroke-width="1px"></line></g><g transform="translate(31.062000274658203, 0)"><text style="text-anchor: end; visibility: hidden; font-family: &quot;Helvetica Neue&quot;, sans-serif; font-size: 12px; font-weight: 200;" x="0" y="177.9749994277954" dx="0em" dy="0.3em" fill="rgb(50, 49, 63)" stroke="none" stroke-width="1px">120</text><text style="text-anchor: end; visibility: inherit; font-family: &quot;Helvetica Neue&quot;, sans-serif; font-size: 12px; font-weight: 200;" x="0" y="160.17749948501586" dx="0em" dy="0.3em" fill="rgb(50, 49, 63)" stroke="none" stroke-width="1px">140</text><text style="text-anchor: end; visibility: hidden; font-family: &quot;Helvetica Neue&quot;, sans-serif; font-size: 12px; font-weight: 200;" x="0" y="142.37999954223633" dx="0em" dy="0.3em" fill="rgb(50, 49, 63)" stroke="none" stroke-width="1px">160</text><text style="text-anchor: end; visibility: inherit; font-family: &quot;Helvetica Neue&quot;, sans-serif; font-size: 12px; font-weight: 200;" x="0" y="124.58249959945678" dx="0em" dy="0.3em" fill="rgb(50, 49, 63)" stroke="none" stroke-width="1px">180</text><text style="text-anchor: end; visibility: hidden; font-family: &quot;Helvetica Neue&quot;, sans-serif; font-size: 12px; font-weight: 200;" x="0" y="106.78499965667724" dx="0em" dy="0.3em" fill="rgb(50, 49, 63)" stroke="none" stroke-width="1px">200</text><text style="text-anchor: end; visibility: inherit; font-family: &quot;Helvetica Neue&quot;, sans-serif; font-size: 12px; font-weight: 200;" x="0" y="88.9874997138977" dx="0em" dy="0.3em" fill="rgb(50, 49, 63)" stroke="none" stroke-width="1px">220</text><text style="text-anchor: end; visibility: hidden; font-family: &quot;Helvetica Neue&quot;, sans-serif; font-size: 12px; font-weight: 200;" x="0" y="71.18999977111817" dx="0em" dy="0.3em" fill="rgb(50, 49, 63)" stroke="none" stroke-width="1px">240</text><text style="text-anchor: end; visibility: inherit; font-family: &quot;Helvetica Neue&quot;, sans-serif; font-size: 12px; font-weight: 200;" x="0" y="53.39249982833863" dx="0em" dy="0.3em" fill="rgb(50, 49, 63)" stroke="none" stroke-width="1px">260</text><text style="text-anchor: end; visibility: hidden; font-family: &quot;Helvetica Neue&quot;, sans-serif; font-size: 12px; font-weight: 200;" x="0" y="35.594999885559076" dx="0em" dy="0.3em" fill="rgb(50, 49, 63)" stroke="none" stroke-width="1px">280</text><text style="text-anchor: end; visibility: inherit; font-family: &quot;Helvetica Neue&quot;, sans-serif; font-size: 12px; font-weight: 200;" x="0" y="17.797499942779524" dx="0em" dy="0.3em" fill="rgb(50, 49, 63)" stroke="none" stroke-width="1px">300</text><text style="text-anchor: end; visibility: hidden; font-family: &quot;Helvetica Neue&quot;, sans-serif; font-size: 12px; font-weight: 200;" x="0" y="0" dx="0em" dy="0.3em" fill="rgb(50, 49, 63)" stroke="none" stroke-width="1px">320</text></g><line x1="41.0620002746582" y1="0" x2="41.0620002746582" y2="177.9749994277954" fill="rgb(0, 0, 0)" stroke="rgb(204, 204, 204)" stroke-width="1px"></line></g></g><g transform="translate(41, 0)" clip-path="url(#clip_0)"><clipPath id="clip_0"><rect width="288" height="177"></rect></clipPath><g><g><g><line x1="0" y1="0" x2="0" y2="177.9749994277954" fill="rgb(0, 0, 0)" stroke="rgb(60, 60, 60)" stroke-width="1px" opacity="0.25"></line><line x1="32.10422219170464" y1="0" x2="32.10422219170464" y2="177.9749994277954" fill="rgb(0, 0, 0)" stroke="rgb(60, 60, 60)" stroke-width="1px" opacity="0.25"></line><line x1="64.20844438340929" y1="0" x2="64.20844438340929" y2="177.9749994277954" fill="rgb(0, 0, 0)" stroke="rgb(60, 60, 60)" stroke-width="1px" opacity="0.25"></line><line x1="96.31266657511392" y1="0" x2="96.31266657511392" y2="177.9749994277954" fill="rgb(0, 0, 0)" stroke="rgb(60, 60, 60)" stroke-width="1px" opacity="0.25"></line><line x1="128.41688876681857" y1="0" x2="128.41688876681857" y2="177.9749994277954" fill="rgb(0, 0, 0)" stroke="rgb(60, 60, 60)" stroke-width="1px" opacity="0.25"></line><line x1="160.52111095852322" y1="0" x2="160.52111095852322" y2="177.9749994277954" fill="rgb(0, 0, 0)" stroke="rgb(60, 60, 60)" stroke-width="1px" opacity="0.25"></line><line x1="192.62533315022785" y1="0" x2="192.62533315022785" y2="177.9749994277954" fill="rgb(0, 0, 0)" stroke="rgb(60, 60, 60)" stroke-width="1px" opacity="0.25"></line><line x1="224.72955534193252" y1="0" x2="224.72955534193252" y2="177.9749994277954" fill="rgb(0, 0, 0)" stroke="rgb(60, 60, 60)" stroke-width="1px" opacity="0.25"></line><line x1="256.83377753363715" y1="0" x2="256.83377753363715" y2="177.9749994277954" fill="rgb(0, 0, 0)" stroke="rgb(60, 60, 60)" stroke-width="1px" opacity="0.25"></line><line x1="288.9379997253418" y1="0" x2="288.9379997253418" y2="177.9749994277954" fill="rgb(0, 0, 0)" stroke="rgb(60, 60, 60)" stroke-width="1px" opacity="0.25"></line></g><g><line x1="0" y1="177.9749994277954" x2="288.9379997253418" y2="177.9749994277954" fill="rgb(0, 0, 0)" stroke="rgb(60, 60, 60)" stroke-width="1px" opacity="0.25"></line><line x1="0" y1="160.17749948501586" x2="288.9379997253418" y2="160.17749948501586" fill="rgb(0, 0, 0)" stroke="rgb(60, 60, 60)" stroke-width="1px" opacity="0.25"></line><line x1="0" y1="142.37999954223633" x2="288.9379997253418" y2="142.37999954223633" fill="rgb(0, 0, 0)" stroke="rgb(60, 60, 60)" stroke-width="1px" opacity="0.25"></line><line x1="0" y1="124.58249959945678" x2="288.9379997253418" y2="124.58249959945678" fill="rgb(0, 0, 0)" stroke="rgb(60, 60, 60)" stroke-width="1px" opacity="0.25"></line><line x1="0" y1="106.78499965667724" x2="288.9379997253418" y2="106.78499965667724" fill="rgb(0, 0, 0)" stroke="rgb(60, 60, 60)" stroke-width="1px" opacity="0.25"></line><line x1="0" y1="88.9874997138977" x2="288.9379997253418" y2="88.9874997138977" fill="rgb(0, 0, 0)" stroke="rgb(60, 60, 60)" stroke-width="1px" opacity="0.25"></line><line x1="0" y1="71.18999977111817" x2="288.9379997253418" y2="71.18999977111817" fill="rgb(0, 0, 0)" stroke="rgb(60, 60, 60)" stroke-width="1px" opacity="0.25"></line><line x1="0" y1="53.39249982833863" x2="288.9379997253418" y2="53.39249982833863" fill="rgb(0, 0, 0)" stroke="rgb(60, 60, 60)" stroke-width="1px" opacity="0.25"></line><line x1="0" y1="35.594999885559076" x2="288.9379997253418" y2="35.594999885559076" fill="rgb(0, 0, 0)" stroke="rgb(60, 60, 60)" stroke-width="1px" opacity="0.25"></line><line x1="0" y1="17.797499942779524" x2="288.9379997253418" y2="17.797499942779524" fill="rgb(0, 0, 0)" stroke="rgb(60, 60, 60)" stroke-width="1px" opacity="0.25"></line><line x1="0" y1="0" x2="288.9379997253418" y2="0" fill="rgb(0, 0, 0)" stroke="rgb(60, 60, 60)" stroke-width="1px" opacity="0.25"></line></g></g></g><g><g><line x1="0" y1="284.75999908447267" x2="288.9379997253418" y2="284.75999908447267" fill="rgb(0, 0, 0)" stroke="rgb(153, 153, 153)" stroke-width="1.5px"></line></g></g><g><g><line x1="32.10422219170464" y1="0" x2="32.10422219170464" y2="177.9749994277954" fill="rgb(0, 0, 0)" stroke="rgb(153, 153, 153)" stroke-width="1.5px"></line></g></g><g><g><g><g><g><path style="fill: none;" stroke="rgb(0, 119, 187)" stroke-width="2px" d="M32.10422219170464,-26.118379733989855L33.70943330128988,22.119903710582463L35.314644410875104,26.608642188220927L36.91985552046034,22.844860361547717L38.52506663004557,13.188076601813918L40.130277739630806,17.257314598226174L41.73548884921603,29.76985616059372L43.34069995880127,31.84380120508598L44.9459110683865,30.16646506441768L46.551122177971735,35.39210859411452L48.15633328755696,41.273264797491834L49.761544397142195,37.05784222594221L51.36675550672743,43.281995907099486L52.971966616312656,48.889503927553505L54.57717772589789,50.683748850163695L56.18238883548313,48.862866024755334L57.787599945068365,55.192564570412685L59.39281105465359,54.41220941071563L60.998022164238826,53.33244076666158L62.60323327382406,55.20049953274727L64.20844438340929,62.535485436578455L65.81365549299451,67.21475555430688L67.41886660257975,72.8005017492884L69.02407771216498,76.2252155575593L70.62928882175021,77.14675283753911L72.23449993133545,82.57396221427196L73.83971104092068,85.87854234758551L75.44492215050592,85.56300414330697L77.05013326009114,90.73908226396877L78.65534436967637,88.63922675432114L80.26055547926161,84.98722983916491L81.86576658884684,86.00147035722057L83.47097769843207,94.61713530104389L85.0761888080173,96.32158254823385L86.68139991760253,100.11063147954559L88.28661102718777,99.6254387048152L89.891822136773,96.43327220652145L91.49703324635823,103.3164132509335L93.10224435594347,100.7936199543644L94.7074554655287,103.37833458225138L96.31266657511392,100.99681450126441L97.91787768469916,101.47780018238181L99.52308879428439,105.59831735062909L101.12829990386962,105.62290952647791L102.73351101345486,107.36212489065421L104.33872212304009,111.7679030885031L105.94393323262531,112.33278384762036L107.54914434221057,110.94131673164627L109.15435545179578,111.34953171257314L110.75956656138104,107.07278473168871L112.36477767096626,106.41934846801257L113.96998878055149,107.81823863599591L115.57519989013673,111.62127102068114L117.18041099972196,107.06991938337787L118.78562210930718,106.8756879472228L120.39083321889242,108.8000589822272L121.99604432847765,115.0608744062822L123.60125543806288,113.5655551842999L125.20646654764812,109.69028246956537L126.81167765723335,111.22619080383218L128.41688876681857,109.76254307492327L130.02209987640381,117.28258553147825L131.62731098598903,115.9553613973346L133.23252209557427,116.10564669036555L134.8377332051595,117.29602025248921L136.44294431474472,119.98775779623868L138.04815542432996,117.56817721390601L139.6533665339152,115.8431555792536L141.25857764350042,118.91472525063594L142.8637887530857,120.10119623814046L144.4689998626709,120.03298578937238L146.0742109722561,122.83621610802527L147.67942208184135,125.2758850915738L149.28463319142662,122.16898445924403L150.88984430101183,118.73209445155575L152.49505541059708,124.36025735482335L154.1002665201823,122.57217902965021L155.70547762976753,122.8816661848499L157.31068873935274,123.13158590600958L158.915899848938,116.87159231178978L160.52111095852322,116.84582479198558L162.12632206810846,115.35021556770101L163.73153317769368,118.08009488427672L165.33674428727892,120.39072632434345L166.94195539686413,122.65568113361252L168.5471665064494,121.34939106469011L170.1523776160346,111.88551319495161L171.75758872561985,108.48285566187809L173.36279983520507,110.0598216603713L174.9680109447903,112.59831980407502L176.57322205437555,115.34623200429004L178.1784331639608,121.59712836177036L179.783644273546,118.50602261876256L181.38885538313124,120.50010324108709L182.99406649271646,123.87502672607053L184.5992776023017,123.60949214550655L186.20448871188694,123.8687944694097L187.80969982147218,123.85802185491431L189.4149109310574,119.93642559218358L191.02012204064263,125.33334728104168L192.62533315022785,125.09615397408794L194.23054425981312,131.6236643914615L195.83575536939833,129.70679709249788L197.44096647898357,131.85802596744824L199.04617758856878,129.37605948349773L200.65138869815402,129.27107037987244L202.25659980773924,131.704325905979L203.8618109173245,135.26062429363841L205.46702202690972,139.88518471800995L207.07223313649496,139.82884536446383L208.67744424608017,138.3498997327636L210.2826553556654,137.28468476666353L211.88786646525062,134.9888877381334L213.4930775748359,138.59881874883254L215.09828868442114,137.4225015517029L216.70349979400635,140.4493686363296L218.30871090359156,136.47788888838642L219.9139220131768,140.73253904292636L221.51913312276207,139.33561388032172L223.12434423234728,136.20303408167243L224.72955534193252,136.29316033579352L226.33476645151774,139.51773057164502L227.93997756110298,134.55388328286548L229.5451886706882,133.368023581336L231.15039978027346,134.97896210608127L232.75561088985867,136.9493737315159L234.3608219994439,136.96583499485394L235.96603310902913,134.53792742381114L237.57124421861437,137.5197657519533L239.17645532819958,141.69234880455525L240.78166643778485,136.83167677318372L242.38687754737006,143.48869103920865L243.9920886569553,145.65593634979396L245.59729976654052,147.9222424004639L247.20251087612576,150.57990300448543L248.807721985711,148.68683998111382L250.41293309529624,149.29144332667056L252.01814420488145,149.62430703978742L253.6233553144667,147.6459842163554L255.2285664240519,148.90431387563368L256.83377753363715,147.52739241594168L258.4389886432224,151.38864605811946L260.04419975280763,153.25572954880525L261.64941086239287,156.0519447063291L263.25462197197805,154.0082576461455L264.8598330815633,153.87065533424075L266.46504419114854,147.9074211209492L268.0702553007338,146.58391823527202L269.675466410319,148.03166104205232L271.28067751990426,148.21825849558388" fill="none"></path></g></g></g></g><g opacity="0.2"><g><g><g><path style="fill: none;" stroke="rgb(0, 119, 187)" stroke-width="2px" d="M32.10422219170464,-26.118379733989855L33.70943330128988,62.495346953689506L35.314644410875104,33.51038732054499L36.91985552046034,14.850793817457316L38.52506663004557,-12.06192318662275L40.130277739630806,29.568953678431853L41.73548884921603,71.92931730414159L43.34069995880127,39.42856659991841L44.9459110683865,23.62812560304971L46.551122177971735,56.815509590587766L48.15633328755696,66.37651959059477L49.761544397142195,18.46922412656349L51.36675550672743,71.46429732997443L52.971966616312656,74.83458210727039L54.57717772589789,59.134051087039694L56.18238883548313,40.160877670867194L57.787599945068365,85.80943097754869L59.39281105465359,50.599718614020546L60.998022164238826,48.0132478352879L62.60323327382406,64.4665525976815L64.20844438340929,99.12779204923099L65.81365549299451,90.66993320877846L67.41886660257975,100.91089591198266L69.02407771216498,93.51735396454686L70.62928882175021,81.8126788732416L72.23449993133545,110.11649090268008L73.83971104092068,102.68130395682776L75.44492215050592,83.95600450416802L77.05013326009114,117.13575742254724L78.65534436967637,77.91844380122821L80.26055547926161,66.32445994797038L81.86576658884684,91.18861507852503L83.47097769843207,138.70936022794217L85.0761888080173,105.04920299134427L86.68139991760253,119.52138986688834L88.28661102718777,97.13890730907391L89.891822136773,80.06868084532513L91.49703324635823,138.61224740476806L93.10224435594347,87.85415015966494L94.7074554655287,116.63790484121637L96.31266657511392,88.77769962568979L97.91787768469916,103.94597036130057L99.52308879428439,126.7450251090141L101.12829990386962,105.74912954282016L102.73351101345486,116.28938766666244L104.33872212304009,134.38390185638133L105.94393323262531,115.23262037231528L107.54914434221057,103.79784343344734L109.15435545179578,113.44529362253802L110.75956656138104,85.11541103654272L112.36477767096626,103.06443251089382L113.96998878055149,115.00067388944895L115.57519989013673,131.14785328852318L117.18041099972196,83.70074388296416L118.78562210930718,105.87838247399945L120.39083321889242,118.68108966245192L121.99604432847765,147.208456714365L123.60125543806288,105.88743927671996L125.20646654764812,89.79153197220745L126.81167765723335,119.11281536334965L128.41688876681857,102.24693046502973L130.02209987640381,155.89702640193042L131.62731098598903,109.14021645170207L133.23252209557427,116.87734660909277L134.8377332051595,123.40848269267838L136.44294431474472,133.80961637772845L138.04815542432996,105.14380380776682L139.6533665339152,106.98528127605896L141.25857764350042,134.68705354684346L142.8637887530857,126.1936599946674L144.4689998626709,119.68272859241333L146.0742109722561,137.23067084823583L147.67942208184135,137.8034762796675L149.28463319142662,106.21518147651769L150.88984430101183,101.08380344697973L152.49505541059708,153.26065494853827L154.1002665201823,113.39046398327947L155.70547762976753,124.4708714507831L157.31068873935274,124.41491480309007L158.915899848938,84.72674248920833L160.52111095852322,116.7135094552311L162.12632206810846,107.67031230641878L163.73153317769368,132.0979349772105L165.33674428727892,132.25574331486845L166.94195539686413,134.2861508477082L168.5471665064494,114.64163344336819L170.1523776160346,63.288801626812926L171.75758872561985,91.01031691282326L173.36279983520507,118.1574924065212L174.9680109447903,125.63342817540841L176.57322205437555,129.456675294464L178.1784331639608,153.6952864302189L179.783644273546,102.63329068183565L181.38885538313124,130.73964540218608L182.99406649271646,141.20515435215063L184.5992776023017,122.24598028171255L186.20448871188694,125.20030389777872L187.80969982147218,123.80270481169595L189.4149109310574,99.79914961581336L191.02012204064263,153.04637398342217L192.62533315022785,123.87817364156196L194.23054425981312,165.14222962881337L195.83575536939833,119.86374244108978L197.44096647898357,142.90452013037844L199.04617758856878,116.63123783951355L200.65138869815402,128.73195455742942L202.25659980773924,144.19901831232798L203.8618109173245,153.52210732692438L205.46702202690972,163.63216053233475L207.07223313649496,139.53954451329795L208.67744424608017,130.7555593044176L210.2826553556654,131.81483860551634L211.88786646525062,123.20004044595778L213.4930775748359,157.13570372033567L215.09828868442114,131.3821488371626L216.70349979400635,155.99223824702224L218.30871090359156,116.08446222939406L219.9139220131768,162.58003705587427L221.51913312276207,132.16244602627376L223.12434423234728,120.1173329172642L224.72955534193252,136.75595588584912L226.33476645151774,156.07579981215275L227.93997756110298,109.06467972976169L229.5451886706882,127.2786703919511L231.15039978027346,143.2510820131906L232.75561088985867,147.06737698383105L234.3608219994439,137.05036307713277L235.96603310902913,122.07069652411265L237.57124421861437,152.83141409756237L239.17645532819958,163.11843478401693L240.78166643778485,111.8722749947066L242.38687754737006,177.6722550897795L243.9920886569553,156.78467453903016L245.59729976654052,159.55965445144932L247.20251087612576,164.22690868220175L248.807721985711,138.96601942587796L250.41293309529624,152.39606295989347L252.01814420488145,151.3335519960549L253.6233553144667,137.48735720300138L255.2285664240519,155.36579807684086L256.83377753363715,140.4569429573852L258.4389886432224,171.2160650670873L260.04419975280763,162.84314600087492L261.64941086239287,170.41042376661505L263.25462197197805,143.51398728196816L264.8598330815633,153.16407168354425L266.46504419114854,117.28639635715203L268.0702553007338,139.7877715155974L269.675466410319,155.46577594555325L271.28067751990426,149.17643069561717" fill="none"></path></g></g></g></g></g></g><g transform="translate(41, 177)" clip-path="url(#clip_1)"><clipPath id="clip_1"><rect width="288" height="22"></rect></clipPath><g><g><line x1="0" y1="0" x2="0" y2="5" style="visibility: inherit;" fill="rgb(0, 0, 0)" stroke="rgb(204, 204, 204)" stroke-width="1px"></line><line x1="32.10422219170464" y1="0" x2="32.10422219170464" y2="5" style="visibility: inherit;" fill="rgb(0, 0, 0)" stroke="rgb(204, 204, 204)" stroke-width="1px"></line><line x1="64.20844438340929" y1="0" x2="64.20844438340929" y2="5" style="visibility: inherit;" fill="rgb(0, 0, 0)" stroke="rgb(204, 204, 204)" stroke-width="1px"></line><line x1="96.31266657511392" y1="0" x2="96.31266657511392" y2="5" style="visibility: inherit;" fill="rgb(0, 0, 0)" stroke="rgb(204, 204, 204)" stroke-width="1px"></line><line x1="128.41688876681857" y1="0" x2="128.41688876681857" y2="5" style="visibility: inherit;" fill="rgb(0, 0, 0)" stroke="rgb(204, 204, 204)" stroke-width="1px"></line><line x1="160.52111095852322" y1="0" x2="160.52111095852322" y2="5" style="visibility: inherit;" fill="rgb(0, 0, 0)" stroke="rgb(204, 204, 204)" stroke-width="1px"></line><line x1="192.62533315022785" y1="0" x2="192.62533315022785" y2="5" style="visibility: inherit;" fill="rgb(0, 0, 0)" stroke="rgb(204, 204, 204)" stroke-width="1px"></line><line x1="224.72955534193252" y1="0" x2="224.72955534193252" y2="5" style="visibility: inherit;" fill="rgb(0, 0, 0)" stroke="rgb(204, 204, 204)" stroke-width="1px"></line><line x1="256.83377753363715" y1="0" x2="256.83377753363715" y2="5" style="visibility: inherit;" fill="rgb(0, 0, 0)" stroke="rgb(204, 204, 204)" stroke-width="1px"></line><line x1="288.9379997253418" y1="0" x2="288.9379997253418" y2="5" style="visibility: inherit;" fill="rgb(0, 0, 0)" stroke="rgb(204, 204, 204)" stroke-width="1px"></line></g><g transform="translate(0, 8)"><text style="text-anchor: middle; visibility: hidden; font-family: &quot;Helvetica Neue&quot;, sans-serif; font-size: 12px; font-weight: 200;" x="0" y="0" dx="0em" dy="0.95em" fill="rgb(50, 49, 63)" stroke="none" stroke-width="1px">-20</text><text style="text-anchor: middle; visibility: inherit; font-family: &quot;Helvetica Neue&quot;, sans-serif; font-size: 12px; font-weight: 200;" x="32.10422219170464" y="0" dx="0em" dy="0.95em" fill="rgb(50, 49, 63)" stroke="none" stroke-width="1px">0</text><text style="text-anchor: middle; visibility: inherit; font-family: &quot;Helvetica Neue&quot;, sans-serif; font-size: 12px; font-weight: 200;" x="64.20844438340929" y="0" dx="0em" dy="0.95em" fill="rgb(50, 49, 63)" stroke="none" stroke-width="1px">20</text><text style="text-anchor: middle; visibility: inherit; font-family: &quot;Helvetica Neue&quot;, sans-serif; font-size: 12px; font-weight: 200;" x="96.31266657511392" y="0" dx="0em" dy="0.95em" fill="rgb(50, 49, 63)" stroke="none" stroke-width="1px">40</text><text style="text-anchor: middle; visibility: inherit; font-family: &quot;Helvetica Neue&quot;, sans-serif; font-size: 12px; font-weight: 200;" x="128.41688876681857" y="0" dx="0em" dy="0.95em" fill="rgb(50, 49, 63)" stroke="none" stroke-width="1px">60</text><text style="text-anchor: middle; visibility: inherit; font-family: &quot;Helvetica Neue&quot;, sans-serif; font-size: 12px; font-weight: 200;" x="160.52111095852322" y="0" dx="0em" dy="0.95em" fill="rgb(50, 49, 63)" stroke="none" stroke-width="1px">80</text><text style="text-anchor: middle; visibility: inherit; font-family: &quot;Helvetica Neue&quot;, sans-serif; font-size: 12px; font-weight: 200;" x="192.62533315022785" y="0" dx="0em" dy="0.95em" fill="rgb(50, 49, 63)" stroke="none" stroke-width="1px">100</text><text style="text-anchor: middle; visibility: inherit; font-family: &quot;Helvetica Neue&quot;, sans-serif; font-size: 12px; font-weight: 200;" x="224.72955534193252" y="0" dx="0em" dy="0.95em" fill="rgb(50, 49, 63)" stroke="none" stroke-width="1px">120</text><text style="text-anchor: middle; visibility: inherit; font-family: &quot;Helvetica Neue&quot;, sans-serif; font-size: 12px; font-weight: 200;" x="256.83377753363715" y="0" dx="0em" dy="0.95em" fill="rgb(50, 49, 63)" stroke="none" stroke-width="1px">140</text><text style="text-anchor: middle; visibility: hidden; font-family: &quot;Helvetica Neue&quot;, sans-serif; font-size: 12px; font-weight: 200;" x="288.9379997253418" y="0" dx="0em" dy="0.95em" fill="rgb(50, 49, 63)" stroke="none" stroke-width="1px">160</text></g><line x1="0" y1="0" x2="288.9379997253418" y2="0" fill="rgb(0, 0, 0)" stroke="rgb(204, 204, 204)" stroke-width="1px"></line></g></g></g></g></svg>