<svg viewBox="0 0 330 200" xmlns="http://www.w3.org/2000/svg"><g><g><g><g><g><line x1="41.0620002746582" y1="177.9749994277954" x2="36.0620002746582" y2="177.9749994277954" style="visibility: inherit;" fill="rgb(0, 0, 0)" stroke="rgb(204, 204, 204)" stroke-width="1px"></line><line x1="41.0620002746582" y1="158.1999994913737" x2="36.0620002746582" y2="158.1999994913737" style="visibility: inherit;" fill="rgb(0, 0, 0)" stroke="rgb(204, 204, 204)" stroke-width="1px"></line><line x1="41.0620002746582" y1="138.424999554952" x2="36.0620002746582" y2="138.424999554952" style="visibility: inherit;" fill="rgb(0, 0, 0)" stroke="rgb(204, 204, 204)" stroke-width="1px"></line><line x1="41.0620002746582" y1="118.64999961853027" x2="36.0620002746582" y2="118.64999961853027" style="visibility: inherit;" fill="rgb(0, 0, 0)" stroke="rgb(204, 204, 204)" stroke-width="1px"></line><line x1="41.0620002746582" y1="98.87499968210857" x2="36.0620002746582" y2="98.87499968210857" style="visibility: inherit;" fill="rgb(0, 0, 0)" stroke="rgb(204, 204, 204)" stroke-width="1px"></line><line x1="41.0620002746582" y1="79.09999974568684" x2="36.0620002746582" y2="79.09999974568684" style="visibility: inherit;" fill="rgb(0, 0, 0)" stroke="rgb(204, 204, 204)" stroke-width="1px"></line><line x1="41.0620002746582" y1="59.32499980926514" x2="36.0620002746582" y2="59.32499980926514" style="visibility: inherit;" fill="rgb(0, 0, 0)" stroke="rgb(204, 204, 204)" stroke-width="1px"></line><line x1="41.0620002746582" y1="39.549999872843415" x2="36.0620002746582" y2="39.549999872843415" style="visibility: inherit;" fill="rgb(0, 0, 0)" stroke="rgb(204, 204, 204)" stroke-width="1px"></line><line x1="41.0620002746582" y1="19.77499993642172" x2="36.0620002746582" y2="19.77499993642172" style="visibility: inherit;" fill="rgb(0, 0, 0)" stroke="rgb(204, 204, 204)" stroke-width="1px"></line><line x1="41.0620002746582" y1="0" x2="36.0620002746582" y2="0" style="visibility: inherit;" fill="rgb(0, 0, 0)" stroke="rgb(204, 204, 204)" stroke-width="1px"></line></g><g transform="translate(31.062000274658203, 0)"><text style="text-anchor: end; visibility: hidden; font-family: &quot;Helvetica Neue&quot;, sans-serif; font-size: 12px; font-weight: 200;" x="0" y="177.9749994277954" dx="0em" dy="0.3em" fill="rgb(50, 49, 63)" stroke="none" stroke-width="1px">4</text><text style="text-anchor: end; visibility: inherit; font-family: &quot;Helvetica Neue&quot;, sans-serif; font-size: 12px; font-weight: 200;" x="0" y="158.1999994913737" dx="0em" dy="0.3em" fill="rgb(50, 49, 63)" stroke="none" stroke-width="1px">4.5</text><text style="text-anchor: end; visibility: hidden; font-family: &quot;Helvetica Neue&quot;, sans-serif; font-size: 12px; font-weight: 200;" x="0" y="138.424999554952" dx="0em" dy="0.3em" fill="rgb(50, 49, 63)" stroke="none" stroke-width="1px">5</text><text style="text-anchor: end; visibility: inherit; font-family: &quot;Helvetica Neue&quot;, sans-serif; font-size: 12px; font-weight: 200;" x="0" y="118.64999961853027" dx="0em" dy="0.3em" fill="rgb(50, 49, 63)" stroke="none" stroke-width="1px">5.5</text><text style="text-anchor: end; visibility: hidden; font-family: &quot;Helvetica Neue&quot;, sans-serif; font-size: 12px; font-weight: 200;" x="0" y="98.87499968210857" dx="0em" dy="0.3em" fill="rgb(50, 49, 63)" stroke="none" stroke-width="1px">6</text><text style="text-anchor: end; visibility: inherit; font-family: &quot;Helvetica Neue&quot;, sans-serif; font-size: 12px; font-weight: 200;" x="0" y="79.09999974568684" dx="0em" dy="0.3em" fill="rgb(50, 49, 63)" stroke="none" stroke-width="1px">6.5</text><text style="text-anchor: end; visibility: hidden; font-family: &quot;Helvetica Neue&quot;, sans-serif; font-size: 12px; font-weight: 200;" x="0" y="59.32499980926514" dx="0em" dy="0.3em" fill="rgb(50, 49, 63)" stroke="none" stroke-width="1px">7</text><text style="text-anchor: end; visibility: inherit; font-family: &quot;Helvetica Neue&quot;, sans-serif; font-size: 12px; font-weight: 200;" x="0" y="39.549999872843415" dx="0em" dy="0.3em" fill="rgb(50, 49, 63)" stroke="none" stroke-width="1px">7.5</text><text style="text-anchor: end; visibility: hidden; font-family: &quot;Helvetica Neue&quot;, sans-serif; font-size: 12px; font-weight: 200;" x="0" y="19.77499993642172" dx="0em" dy="0.3em" fill="rgb(50, 49, 63)" stroke="none" stroke-width="1px">8</text><text style="text-anchor: end; visibility: hidden; font-family: &quot;Helvetica Neue&quot;, sans-serif; font-size: 12px; font-weight: 200;" x="0" y="0" dx="0em" dy="0.3em" fill="rgb(50, 49, 63)" stroke="none" stroke-width="1px">8.5</text></g><line x1="41.0620002746582" y1="0" x2="41.0620002746582" y2="177.9749994277954" fill="rgb(0, 0, 0)" stroke="rgb(204, 204, 204)" stroke-width="1px"></line></g></g><g transform="translate(41, 0)" clip-path="url(#clip_0)"><clipPath id="clip_0"><rect width="288" height="177"></rect></clipPath><g><g><g><line x1="0" y1="0" x2="0" y2="177.9749994277954" fill="rgb(0, 0, 0)" stroke="rgb(60, 60, 60)" stroke-width="1px" opacity="0.25"></line><line x1="32.10422219170464" y1="0" x2="32.10422219170464" y2="177.9749994277954" fill="rgb(0, 0, 0)" stroke="rgb(60, 60, 60)" stroke-width="1px" opacity="0.25"></line><line x1="64.20844438340929" y1="0" x2="64.20844438340929" y2="177.9749994277954" fill="rgb(0, 0, 0)" stroke="rgb(60, 60, 60)" stroke-width="1px" opacity="0.25"></line><line x1="96.31266657511392" y1="0" x2="96.31266657511392" y2="177.9749994277954" fill="rgb(0, 0, 0)" stroke="rgb(60, 60, 60)" stroke-width="1px" opacity="0.25"></line><line x1="128.41688876681857" y1="0" x2="128.41688876681857" y2="177.9749994277954" fill="rgb(0, 0, 0)" stroke="rgb(60, 60, 60)" stroke-width="1px" opacity="0.25"></line><line x1="160.52111095852322" y1="0" x2="160.52111095852322" y2="177.9749994277954" fill="rgb(0, 0, 0)" stroke="rgb(60, 60, 60)" stroke-width="1px" opacity="0.25"></line><line x1="192.62533315022785" y1="0" x2="192.62533315022785" y2="177.9749994277954" fill="rgb(0, 0, 0)" stroke="rgb(60, 60, 60)" stroke-width="1px" opacity="0.25"></line><line x1="224.72955534193252" y1="0" x2="224.72955534193252" y2="177.9749994277954" fill="rgb(0, 0, 0)" stroke="rgb(60, 60, 60)" stroke-width="1px" opacity="0.25"></line><line x1="256.83377753363715" y1="0" x2="256.83377753363715" y2="177.9749994277954" fill="rgb(0, 0, 0)" stroke="rgb(60, 60, 60)" stroke-width="1px" opacity="0.25"></line><line x1="288.9379997253418" y1="0" x2="288.9379997253418" y2="177.9749994277954" fill="rgb(0, 0, 0)" stroke="rgb(60, 60, 60)" stroke-width="1px" opacity="0.25"></line></g><g><line x1="0" y1="177.9749994277954" x2="288.9379997253418" y2="177.9749994277954" fill="rgb(0, 0, 0)" stroke="rgb(60, 60, 60)" stroke-width="1px" opacity="0.25"></line><line x1="0" y1="158.1999994913737" x2="288.9379997253418" y2="158.1999994913737" fill="rgb(0, 0, 0)" stroke="rgb(60, 60, 60)" stroke-width="1px" opacity="0.25"></line><line x1="0" y1="138.424999554952" x2="288.9379997253418" y2="138.424999554952" fill="rgb(0, 0, 0)" stroke="rgb(60, 60, 60)" stroke-width="1px" opacity="0.25"></line><line x1="0" y1="118.64999961853027" x2="288.9379997253418" y2="118.64999961853027" fill="rgb(0, 0, 0)" stroke="rgb(60, 60, 60)" stroke-width="1px" opacity="0.25"></line><line x1="0" y1="98.87499968210857" x2="288.9379997253418" y2="98.87499968210857" fill="rgb(0, 0, 0)" stroke="rgb(60, 60, 60)" stroke-width="1px" opacity="0.25"></line><line x1="0" y1="79.09999974568684" x2="288.9379997253418" y2="79.09999974568684" fill="rgb(0, 0, 0)" stroke="rgb(60, 60, 60)" stroke-width="1px" opacity="0.25"></line><line x1="0" y1="59.32499980926514" x2="288.9379997253418" y2="59.32499980926514" fill="rgb(0, 0, 0)" stroke="rgb(60, 60, 60)" stroke-width="1px" opacity="0.25"></line><line x1="0" y1="39.549999872843415" x2="288.9379997253418" y2="39.549999872843415" fill="rgb(0, 0, 0)" stroke="rgb(60, 60, 60)" stroke-width="1px" opacity="0.25"></line><line x1="0" y1="19.77499993642172" x2="288.9379997253418" y2="19.77499993642172" fill="rgb(0, 0, 0)" stroke="rgb(60, 60, 60)" stroke-width="1px" opacity="0.25"></line><line x1="0" y1="0" x2="288.9379997253418" y2="0" fill="rgb(0, 0, 0)" stroke="rgb(60, 60, 60)" stroke-width="1px" opacity="0.25"></line></g></g></g><g><g><line x1="0" y1="336.17499891916907" x2="288.9379997253418" y2="336.17499891916907" fill="rgb(0, 0, 0)" stroke="rgb(153, 153, 153)" stroke-width="1.5px"></line></g></g><g><g><line x1="32.10422219170464" y1="0" x2="32.10422219170464" y2="177.9749994277954" fill="rgb(0, 0, 0)" stroke="rgb(153, 153, 153)" stroke-width="1.5px"></line></g></g><g><g><g><g><g><path style="fill: none;" stroke="rgb(0, 119, 187)" stroke-width="2px" d="M32.393160191429985,138.3970695099139L32.77841085773044,157.496237662699L32.826567191018,159.20846271454906L33.00314041307237,151.87719212584565L33.243922079510156,146.06224421352005L33.292078412797714,140.6942536659237L33.61312063471476,140.11976485052818L34.592299411561754,131.06203419972147L34.64045574484931,121.54923029233106L34.78492474471198,118.73474031778633L35.780155632654825,103.39603735507406L35.86041618813409,90.19999761148567L36.19751052114698,84.1517752655266L36.27777107662625,82.42320330717365L36.39013585429721,81.54564864140247L36.48644852087232,77.05110367790704L37.04827240922715,63.29878942229098L37.080376631418865,55.74579911097197L37.20879352018568,47.220318349079236L37.6743047419654,42.27045724289857L37.99534696388245,45.6732560715181L38.86216096305847,29.231125356474678L38.878213074154324,20.803091640972866L39.19925529607137,38.176281679003125L39.48819329579671,52.998703296248905L39.53634962908427,64.59030268211636L39.55240174018012,69.95112983376072L39.71292285113865,76.24121039035508L40.70815373908149,82.56929599062647L41.141560738669504,86.38352853389675L41.39839451620314,79.66174540150138L41.5107592938741,50.29412519261602L41.526811404969955,20.745923353097538L42.05653107113308,40.28651287484075L42.28126062647502,31.92526471167099L42.40967751524184,49.31326907550255L42.489938070721095,49.71335780654829L42.5220422929128,48.12873667659568L42.71466762606303,46.64631243808793L42.875188737021546,45.367608330193576L43.565429514143204,52.08417266789438L43.693846402910026,54.23338138060028L43.82226329167684,50.518114654971924L44.239618180169,49.8945542078705L44.38408718003167,49.97418675711725L44.448295624415074,45.35089537581379L44.48039984660678,38.35443044653786L44.70512940194872,34.58533462296296L44.737233624140416,43.15307312071596L44.817494179619686,48.00893622548875L44.84959840181139,49.14073848540161L44.978015290578206,50.98540545151977L45.07432795715332,54.010502668580685L45.090380068249175,63.46857332137998L45.52378706783718,73.65126684272407L46.6634869556427,59.563929845738244L46.69559117783441,81.39048114132963L47.22531084399753,85.728085760028L47.27346717728509,75.64204145632102L47.54635306591458,77.28638597956508L47.690822065777255,68.93539148714801L47.7068741768731,58.67236690959595L47.803186843448216,55.832307187891146L47.81923895454407,49.61823094100214L47.899499510023325,46.40000184829864L48.18843750974867,51.394699894745244L48.23659384303623,46.87819147958194L48.3810628428989,47.59483817719888L49.16761628659566,49.60877322384181L49.21577261988322,54.80054709797585L49.312085286458334,62.380322464104594L49.40839795303345,64.23252605755219L49.48865850851271,62.269094159986295L49.649179619471234,57.75866476292816L49.74549228604634,55.66629394846595L49.82575284152561,52.13008029597417L50.66046261850993,67.60586389230791L50.74072317398919,63.76215985188017L50.75677528508504,65.5982508580665L51.04571328481038,57.77122350328084L51.25439072905647,61.25789252962075L51.463068173302545,58.597716505357326L52.073048394944934,50.5706710419784L52.34593428357442,59.192264066356444L52.66697650549147,60.41685884818533L52.87565394973755,69.57858591524757L53.2288003938463,78.47368394050572L53.27695672713386,63.09698920454139L53.50168628247579,67.38861661312072L53.5658947268592,59.82480579603164L54.336396059460114,72.85046311175027L54.43270872603522,78.91691412341704L54.448760837131076,79.70349041441537L54.80190728123983,73.8431067713601L54.99453261439005,63.6994783502757L55.15505372534858,65.11786242049848L55.636617058224154,67.68160964331129L55.81319028027852,58.31127575251915L55.94160716904535,60.37973520685429L56.03791983562046,67.90407304035759L56.55158739068773,64.62069972080253L56.61579583507114,57.6033756925555L57.01709861246745,55.73558022631384L57.273932390001086,76.29784333885634L57.28998450109694,73.81608228146467L57.53076616753472,56.3519298904077L57.59497461191813,63.739046396832975L57.86786050054762,22.01739558684372L58.42968438890245,-2.772304818995053L58.558101277669266,-7.586744481735678L58.87914349958632,14.074448153918127L59.10387305492825,32.299745452643776L59.24834205479092,37.39211045859133L59.34465472136604,50.57972404997663L59.4249152768453,64.00903527393326L59.53728005451626,75.68163496087885L59.68174905437893,84.7460282305837L59.90647860972087,75.91669587829152L59.93858283191257,62.44033070481207L59.98673916520013,70.20671912950557L60.131208165062795,57.812567000311006L60.596719386842516,51.69457168488566L60.69303205341763,57.92455986656071L61.07828271971808,45.342111611987036L61.41537705273098,54.989447581812456L61.70431505245632,52.233912297409674L61.848784052319,53.52156048277003L62.05746149656508,50.85179049301779L62.10561782985263,46.25979293932025L62.23403471861945,46.50436969968115L62.87611916245355,61.00340611995003L63.14900505108304,68.41701407349517L63.30952616204156,73.39075247863057L63.357682495329115,79.35589305032843L63.67872471724616,64.00823336788532L63.9355584947798,62.35873596343754L64.22449649450513,42.40441323999323L64.41712182765536,73.16244876097146L64.69000771628485,24.778442134705898L64.78632038285997,23.904007765164465L65.17157104916043,38.778025633431525L65.38024849340651,37.379189203468485L65.42840482669406,50.499676260286805L65.44445693778992,63.64436117415693L65.57287382655673,65.15836389554876L65.63708227094014,75.241057217178L65.74944704861112,81.33856116274644L66.53600049230788,73.4792335594763L66.60020893669129,83.20304971188428L66.71257371436225,93.86436704672788L66.85704271422492,28.677131997053806L67.21018915833368,56.68288477091892L67.27439760271709,68.02155430770154L67.4028144914839,70.6045839405243L67.53123138025072,75.21663024331994L67.59543982463413,86.03128056065805L67.91648204655117,90.91556431762841L67.99674260203044,97.60111262047809L68.0127947131263,107.86615075877123L68.09305526860555,105.39911393827657L68.28568060175579,105.35846534515315L68.33383693504334,112.73391914261457L68.4140974905226,102.69043491742633L68.71908760134379,110.23763693348448L68.97592137887743,111.85322908249842L69.13644248983596,120.89003039900777L69.32906782298618,123.646025944418L69.74642271147833,120.63879418191746L69.89089171134101,108.52522565970636L70.45271559969585,106.25135094096778L70.4687677107917,109.61806123505842L70.5008719329834,120.35684699241857L71.2071648212009,129.41047788722923L71.33558170996771,116.23548875939952L71.4800507098304,97.33716304288787L71.5121549320221,96.05277820448767L71.59241548750136,88.25417969623936L71.99371826489767,89.90857862957549L72.00977037599353,83.3621787580253L72.17029148695204,85.14808962358993L72.20239570914374,91.64923246227701L72.282656264623,101.46119476182452L72.50738581996495,115.38432279156146L72.60369848654005,103.59148677078878L72.74816748640272,103.41224997201212L72.9889491528405,103.3081021071031L73.05315759722393,107.07639623174673L73.08526181941563,120.3637869650444L73.48656459681193,124.40340357530187L73.83971104092068,107.11290270490898L73.93602370749579,96.08603372492247L74.2089095961253,101.44017363377367L74.3052222627004,103.84393516666731L74.72257715119257,86.41476206962777L75.09177570639716,80.0665609348525L75.20414048406813,81.17171936773491L75.28440103954739,63.38337936210067L75.49307848379347,58.077064530114995L75.60544326146443,69.68955742987626L76.08700659434,87.32306065104311L76.31173614968195,99.01651739914315L76.87356003803677,113.22177839060684L76.88961214913263,117.64693758907023L76.90566426022848,108.44992768608277L78.20588525899251,126.39888617181627L78.35035425885519,131.71873201491016L78.49482325871786,118.45572821180494L78.59113592529297,120.61358344353671L78.97638659159342,133.95288826683483L79.73083581309848,131.58170498357003L79.8592527018653,136.99123882417962L80.43712870131598,133.65379347838706L80.69396247884963,133.65972261845044L80.74211881213718,137.59499700318622L80.870535700904,144.93272850008165L80.91869203419155,139.59439924866618L81.30394270049202,135.2459346830932L81.36815114487541,130.814852590878L81.849714477751,121.75597572522008L82.2189130329556,92.68909747486087L82.45969469939338,104.97158561690219L82.74863269911873,97.9836053382888L82.84494536569383,95.16110099022634L83.10177914322746,99.698893085058L83.39071714295281,91.73954127747425L83.40676925404867,80.14965846387797L83.95254103130765,76.06918942767602L84.11306214226616,79.20054559708281L84.16121847555374,78.90658036758875L84.17727058664957,81.31349071154072L84.20937480884129,84.37632788275405L84.22542691993714,89.90674976244955L84.62672969733343,90.63248928913224L85.15644936349656,89.29650908466338L85.52564791870117,100.6989569105874L85.79853380733067,92.71639110004061L86.2961492513021,93.7977829318242L86.7295562508901,101.50381819029641L86.80981680636935,103.23162269199754L87.16296325047811,106.55450417726063L87.46795336129931,112.40098503403406L87.50005758349101,116.72862102785584L87.70873502773709,116.58332137564864L87.96556880527073,50.896007121301395L88.43108002705046,55.61158241391598L88.479236360338,67.74372622105588L88.8805391377343,69.93483263912562L89.29789402622646,81.26050228913205L89.57077991485596,86.82372898792488L89.891822136773,96.25057087588358L90.18076013649835,71.33355460644792L90.21286435869006,73.37667593253344L90.24496858088176,88.44806376648135L90.34128124745686,76.75537001997104L90.79074035814074,77.5619598607461L91.01546991348266,86.42619912357051L91.9143881348504,92.82901328449333L91.97859657923381,93.95139438776638L92.10701346800062,84.85885482262134L92.15516980128817,85.74796933453106L92.6527852452596,90.41055504275782L92.78120213402643,95.26153045657924L92.98987957827251,97.59806855688295L93.07014013375176,97.21859435503781L93.3269739112854,101.55348301062506L93.40723446676466,118.00179748611211L93.43933868895637,112.32681778321798L93.59985979991488,112.4274816318249L93.66406824429829,100.87460374447748L94.12957946607801,108.46248113235319L94.32220479922825,114.52472277204275L95.15691457621256,80.10029390402323L95.26927935388353,13.166547848400938L95.33348779826693,-1.7249784208743506L95.60637368689643,-15.988689064747632L96.0558327975803,12.168580153073378L96.47318768607246,31.720537751236463L96.66581301922268,52.37507815505235L96.84238624127705,72.63933115746377L96.8905425745646,59.58619266461514L97.8055129070282,57.06486884400927L97.88577346250746,35.16743572218391L97.9018255736033,22.103304030543114L98.06234668456185,24.290852859199134L99.23415079455906,41.85154073500601L99.41072401661343,58.54301954987726L99.42677612770927,69.19623493713311L99.45888034990098,74.79135078248567L99.53914090538024,86.19726571699125L99.5551930164761,99.28395451717523L99.9564957938724,86.41172694489998L100.03675634935166,95.69701885669973L100.08491268263923,80.87744302680316L100.21332957140605,64.31027532177015L100.53437179332309,75.40093146517373L100.58252812661064,89.12250699281485L100.5985802377065,99.20375639325137L100.83936190414428,87.15641437097516L101.09619568167793,101.24591285927444L101.19250834825303,93.53633528687203L101.40118579249912,109.94207466301194L101.43329001469083,97.29035021180104L101.6419674589369,84.59068340545599L102.23589556948343,88.97744034924455L102.6211462357839,92.95872638239301L102.73351101345486,91.84007659550633L102.82982368002997,116.47540166321072L103.21507434633043,118.12054860517875L103.26323067961798,110.94657222395107L104.21030523427328,86.85178270827052L104.48319112290277,96.32355249814202L104.49924323399863,108.00502341307607L104.82028545591565,104.74383111570363L104.86844178920322,87.59232254640496L105.0129107890659,91.96542193927444L105.59078678851658,104.06983355435221L105.63894312180413,105.66621270222399L105.89577689933776,117.86431983669866L105.92788112152947,108.67173414059965L106.39339234330919,89.80703992680132L106.84285145399305,92.70403992028062L106.97126834275987,88.67202858009983L107.0354767871433,88.1446280461043L107.1638936759101,101.315714991542L107.34046689796448,106.70611090615736L107.75782178645665,111.33544365097745L107.8380823419359,126.77278105831189L108.09491611946954,100.56484238101723L108.35174989700317,90.54087614653837L108.48016678577,89.72786923716924L108.62463578563268,96.3980534607726L108.76910478549534,100.51535641627697L108.9456780075497,100.59848522784877L108.96173011864556,99.16290035647674L109.15435545179578,99.74662870140081L109.1864596739875,105.5023369737102L109.23461600727505,101.57169703324826L109.79643989562989,118.62543070555105L109.9890652287801,112.52498339023636L110.29405533960131,102.23450581442246L110.6632538948059,101.50177145498259L110.98429611672296,102.10928205209795L111.62638056055704,100.08176574468081L111.75479744932386,105.91542839623887L111.89926644918654,92.6020718932341L111.94742278247409,89.44133081869938L111.9795270046658,98.58026714408206L112.79818467055426,87.14539463833262L112.84634100384181,99.42653237455683L113.16738322575887,102.75870715118921L113.19948744795057,104.943296375624L113.21553955904642,109.34352321389615L113.3279043367174,111.48880800298977L113.61684233644273,120.09480803769267L114.0663014471266,116.98463568561556L114.38734366904364,123.4483355592437L114.41944789123535,125.43136712429165L114.51576055781047,123.52689274237507L115.0133760017819,104.11698806543855L115.28626189041138,81.96882581524147L115.57519989013673,71.60762927288901L115.70361677890354,48.76735432890959L116.20123222287496,62.27595792334691L116.63463922246298,38.779650939547196L117.00383777766757,55.29037223093516L117.46934899944729,47.5170857946421L117.64592222150168,57.275366392191415L117.9027559990353,56.46095406427466L118.12748555437723,40.05782898763951L118.46457988739013,57.17494388913339L119.10666433122422,56.46942789712212L119.45981077533298,72.23601823048517L119.54007133081224,83.31594249602996L120.13399944135878,70.42818257358628L120.31057266341314,78.73246444986133L120.40688532998827,83.17698811700254L120.6316148853302,93.8660081289982L120.6637191075219,100.03004496480162L121.17738666258917,77.18588411629528L121.56263732888964,86.74367836148441L121.75526266203985,98.14967575250253L121.78736688423156,102.75637413317055L121.88367955080668,110.15713544947432L122.07630488395691,124.09399452547655L122.47760766135322,116.27662340963448L122.92706677203708,129.8113356690502L122.9591709942288,128.21519201259093L123.0233794386122,97.41476059581572L123.26416110504998,100.73152808241177L123.92229765997992,100.02545730506068L123.97045399326748,101.54665375457029L124.54832999271818,92.40876289995538L124.82121588134765,103.84563247556092L124.8693722146352,91.4432830466208L125.02989332559373,94.62327464300039L125.31883132531908,97.33332777469153L125.33488343641493,93.9012370543215L125.60776932504443,95.15081107272857L125.65592565833198,82.10661556525056L126.20169743559096,91.99231536956933L126.23380165778266,99.17298373113222L126.34616643545363,108.02851808197103L126.77957343504164,93.36363256307258L126.92404243490431,99.71109705864362L127.26113676791722,95.88898611319584L127.64638743421766,82.60110836358653L127.72664798969691,84.6109418887391L127.82296065627204,86.53855785338303L128.25636765586006,94.35735010599083L128.57740987777711,89.18533480265837L128.65767043325636,98.31886480206379L128.89845209969414,101.35332382600772L128.9787126551734,108.39568479950115L129.3800154325697,106.27138164725186L129.66895343229507,98.13540870865747L129.73316187667848,81.9270526413482L129.81342243215772,74.03411095282479L130.07025620969137,35.82562300637494L130.10236043188306,-17.39559145361457L130.3591942094167,1.4884872315820132L130.39129843160842,29.329072333436557L130.48761109818352,9.08056447503239L130.51971532037524,23.021207819093462L130.74444487571716,56.89990884053783L130.80865332010058,30.814433709890437L131.17785187530518,44.86888675816763L131.32232087516786,41.114408730689405L131.62731098598903,69.40292585328795L131.80388420804343,93.10457941663772L131.83598843023512,93.47906810844941L131.93230109681025,89.67396692084401L132.1409785410563,65.44886130913763L132.42991654078165,86.79368840246532L133.0559488735199,87.03525450507657L133.4251474287245,89.10492629552877L133.4893558731079,90.67782075313642L133.50540798420377,84.2521820720966L133.61777276187473,93.06937595827927L133.89065865050424,98.31715013015453L134.0672318725586,113.06787494312208L134.24380509461295,84.2226182875585L134.35616987228394,99.2867646057973L134.45248253885904,84.84927658464946L134.8377332051595,103.32450559486243L135.72059931543137,102.26971538524433L135.78480775981478,102.9539147018771L136.36268375926548,105.53881296269357L136.3787358703613,103.98007577115865L136.44294431474472,91.89388470515162L136.76398653666178,85.82780838329533L136.78003864775764,79.95341371690861L136.7960907588535,94.75911330577128L136.92450764762032,99.41729725943735L137.6308005358378,98.25734860390637L137.74316531350877,97.70157562187673L137.79132164679632,99.94146951120543L138.09631175761754,81.30399696237806L138.96312575679354,83.87815510492185L139.10759475665623,60.03924520130509L139.13969897884792,72.48921839103022L139.20390742323136,59.28496127024488L139.30022008980646,65.90549543620463L139.348376423094,39.00863050029204L139.46074120076497,29.34762636892873L139.5891580895318,48.25910119893831L139.63731442281934,51.963021796985785L139.82993975596958,46.21308628834478L140.2633467555576,47.65323670065101L140.327555199941,64.57632353114523L140.50412842199538,91.80297607664806L140.68070164404975,91.05278556775477L141.7722451985677,105.13288871019736L141.99697475390965,106.72616048455663L142.12539164267645,115.87863199008173L142.35012119801837,122.83259900158617L142.36617330911426,109.43821904820703L142.7835281976064,93.4127313578891L143.00825775294834,85.52074579527604L143.40956053034466,46.736206232854585L143.87507175212437,57.03751978209887L143.92322808541192,55.88814847934378L144.34058297390408,49.24572204002237L144.6295209736294,46.83032501995993L144.69372941801282,54.72081024682953L145.09503219540915,72.13898218212277L145.2073969730801,49.073453064186054L145.5123870839013,67.83467197834833L145.92974197239346,67.83006952340202L146.17052363883127,73.0516061135873L146.29894052759806,72.33846248867981L146.31499263869392,86.49853658095276L146.66813908280267,89.64579877968734L146.73234752718608,93.21610937100802L146.957077082528,96.59574293511113L147.5991615263621,65.10318111544206L147.74363052622476,27.232586108083098L147.88809952608744,4.865712238919684L147.936255859375,20.211481868493223L148.24124597019622,25.801786748572454L148.28940230348377,64.6146621493954L148.43387130334642,44.64360073974336L149.02779941389295,57.33998044179897L149.28463319142662,61.44256942017188L149.46120641348097,74.24135660209686L149.7501444132063,88.3845495091323L149.91066552416484,102.4066035353326L149.92671763526067,115.5463063601195L150.13539507950676,135.7123648180643L150.215655634986,106.3560378707116L150.23170774608187,95.3319570462036L150.6009063012865,107.3098161307042L150.6651147456699,96.54686438356143L150.90589641210767,120.86245632821883L151.38745974498326,130.07609486721006L151.53192874484594,139.28841074958092L151.5800850781335,137.41077123012218L151.69244985580445,141.18624788060714L151.85297096676297,144.6595934069768L151.90112730005052,136.4838619506595L151.9813878555298,136.38643904844562L152.1419089664883,125.11532498313261L152.52715963278877,129.98091402304806L152.67162863265145,135.2143120754557L152.97661874347264,138.11661218455933L153.24950463210212,133.2824004051559L154.03605807579888,122.4147451074735L154.24473552004497,110.83583658924402L154.29289185333252,118.64823691784173L154.8065594083998,117.80411426233138L155.07944529702928,127.11327930630799L155.2399664079878,119.49043846914844L155.32022696346706,118.3659298597471L155.49680018552144,109.12885708124804L155.59311285209654,117.79685724738209L155.70547762976753,117.4035299291522L155.99441562949286,127.64001730208903L156.07467618497213,88.92223126767765L156.15493674045138,23.69911156457644L156.4438747401767,14.946992679334812L156.62044796223108,30.09216744790163L156.6686042955187,55.42980237134208L156.98964651743572,60.610357353821456L157.11806340620254,81.48837966445322L157.27858451716105,94.53268185077987L157.47120985031128,99.2050326629193L157.8404084055159,101.46196478291768L157.92066896099516,111.56700116516535L158.89984773784215,113.21313050185536L158.915899848938,105.70783044124408L159.42956740400527,94.44819010331581L160.11980818112693,89.27580954301827L160.24822506989375,85.9419012405663L160.37664195866054,78.66144007616407L160.3926940697564,75.68575601194233L160.9384658470154,80.53123020425615L161.11503906906975,90.8551454355689L161.30766440221998,86.16150813564201L161.58055029084946,91.18478794347605L162.54367695660062,84.58995892888736L162.92892762290106,84.06128302677502L163.41049095577665,68.01558235333276L163.47469940016006,50.05615129764256L163.699428955502,54.789634610186454L163.97231484413146,64.52346355285461L164.06862751070656,78.84507934733455L164.7428161767324,100.30365389447476L164.999649954266,103.16054899747508L165.17622317632038,90.88677518787122L165.3206921761831,92.55469278892406L165.44910906494988,95.7639123857143L165.77015128686693,95.8916569966078L165.80225550905863,98.88054242303289L165.85041184234618,99.81897412165154L165.8825160645379,95.6641632436661L165.978828731113,85.7706335460477L166.29987095303008,86.94805758470669L166.34802728631763,56.10061125648157L166.42828784179687,48.85839192170795L166.54065261946783,55.62508670144226L166.57275684165955,75.65883474541265L167.39141450754803,67.53266037490239L167.5679877296024,50.31380287944131L167.6964046183692,52.569673998625106L168.01744684028625,68.54385403327738L168.03349895138211,75.80116809782281L168.0656031735738,69.89785617528199L168.29033272891573,68.09585375791609L168.35454117329914,48.66953828031748L168.49901017316185,43.01755913479312L168.51506228425768,29.477499884699938L168.59532283973695,23.054389655820444L168.6755833952162,36.165400478191685L168.91636506165398,59.96607356822676L169.41398050562543,88.55535000521787L169.60660583877564,77.40601416540476L169.7189706164466,75.69554756101135L169.79923117192587,72.78527963196642L170.0239607272678,27.634832946635242L170.16842972713047,42.30679586015273L170.40921139356823,40.411341380913626L170.58578461562263,47.0537963211155L170.6981493932936,45.32503179494773L170.71420150438945,37.359944576825484L170.85867050425213,47.584366315910614L171.4686507258945,75.36034683594715L171.59706761466134,30.75928029561294L171.6131197257572,-5.468632913010083L171.67732817014058,-33.63475620984369L172.19099572520787,20.574850430042346L172.9454449467129,51.77630427438636L173.00965339109632,46.99743611627048L173.29859139082166,66.18664681070227L173.37885194630093,62.863093571115286L173.66778994602626,63.52400218823627L173.71594627931384,80.54808333495738L174.05304061232673,76.52097094759121L174.2296138343811,95.24127539621284L174.61486450068153,107.92864009952856L174.72722927835255,100.3021870774098L175.00011516698203,102.39039649526862L175.03221938917372,117.62778888016658L175.08037572246127,97.61569933312343L175.41747005547418,114.5065112057296L175.44957427766587,127.66070438535996L175.52983483314515,130.42947776633207L175.70640805519952,135.50122251560572L175.89903338834975,140.14509084944507L176.17191927697925,147.85411853396073L176.4608572767046,154.32364771443045L176.5571699432797,142.10780514100043L176.63743049875893,132.79506612030946L176.7176910542382,135.16261380423202L177.00662905396356,140.05018854637734L177.02268116505942,141.74522354319902L177.4560881646474,148.1772489878457L177.58450505341423,130.77964335661196L177.74502616437275,123.7682671166126L177.92159938642712,106.5376303609412L178.25869371944003,104.5802269623922L178.54763171916537,89.77199085826743L179.06129927423265,81.47746004412667L179.0773513853285,76.1097737004818L179.17366405190361,84.44097684650608L180.00837382888793,101.43338472693233L180.04047805107962,118.0951525449502L180.2009991620382,90.43069676029394L180.31336393970915,100.88263640118106L180.74677093929714,107.11076598103983L181.08386527231002,113.1631774194765L181.2443863832686,111.2060265391702L181.5012201608022,112.96474059534218L181.53332438299392,96.9432214816233L181.6456891606649,70.5848054604517L182.15935671573217,83.01950126626426L182.23961727121142,91.32189603051764L182.4161904932658,101.81965631859872L182.49645104874506,111.93124428012842L183.1866918258667,93.07698747917459L183.23484815915424,72.42461545762754L183.55589038107132,105.65779368224744L183.65220304764642,111.61492132764168L183.66825515874228,133.9319790782221L184.0856100472344,146.53534964720393L184.19797482490537,144.18437414097997L185.19320571284823,148.5511026492321L185.20925782394409,140.31408302097915L185.35372682380674,150.4624087559809L185.46609160147773,152.32727172086535L185.5142479347653,169.68353221688463L185.62661271243627,168.44896627231165L185.67476904572382,164.81155811954125L186.02791548983257,153.1742152132901L186.20448871188694,110.04780149440444L186.38106193394134,115.49989628093374L186.54158304489985,110.09925637052835L186.57368726709154,96.41822189837262L186.5897393781874,94.32399781224692L186.63789571147495,91.86217203784537L187.0231463777754,67.41456919054424L187.11945904435052,80.85049778192052L187.4886575995551,96.66225626586096L187.64917871051367,103.32221575382793L187.77759559928046,111.22123305333089L187.9702209324307,116.99448544983146L188.75677437612745,97.1378516602632L188.7728264872233,87.2157650280751L188.90124337599013,72.07960793330913L189.0457123758528,81.07732206042368L189.60753626420765,90.49096772845108L190.0569953748915,96.08615321830874L190.10515170817905,116.45721578985129L190.74723615201316,109.0260523337887L191.1324868183136,91.39656034341648L191.2930079292721,90.58758977928198L192.175874039544,108.49483237837876L192.3845514837901,99.4423849519853L192.56112470584443,115.71639483756071L192.85006270556977,90.82790579995891L193.42793870502047,80.22373493756663L193.50819926049974,84.98867072076335L193.5242513715956,82.687202881199L193.5563555937873,117.40228493005284L193.7810851491292,137.96760130014502L193.97371048227947,156.49559256887537L194.34290903748408,152.04532798924603L194.43922170405918,148.7951962225134L194.68000337049696,143.63385681429443L194.77631603707206,121.93705274060108L194.93683714803058,111.35956746398308L195.32208781433107,115.46728169973758L195.59497370296054,124.29415832190999L195.9481201470693,117.66254744943805L196.44573559104072,114.8621344136169L196.55810036871168,125.39654901021716L196.60625670199923,131.01980583542144L196.73467359076605,118.40230806170655L196.9915073682997,119.38502639906679L197.05571581268313,122.97489836441883L197.13597636816237,118.4319496840921L197.1680805903541,118.67429225117883L197.20018481254579,135.56811987954524L197.24834114583334,122.87005288561159L197.81016503418815,133.09456329380276L197.92252981185914,148.69566475153738L198.17936358939278,158.2914933576428L198.50040581130983,162.41375192276095L198.94986492199368,176.68853420895945L198.98196914418537,152.0804829315899L198.99802125528123,130.91261879542276L199.03012547747292,138.3725321814572L199.12643814404805,139.93951743508953L199.27090714391073,155.81192268475326L199.36721981048584,130.56039765815635L199.4474803659651,121.77619997968249L199.9129915877448,143.69735173399L200.13772114308674,164.62132199587776L200.31429436514114,171.7542052357196L200.47481547609965,140.53271921502716L200.53902392048306,132.52772671961677L200.55507603157892,131.01381094521864L201.00453514226277,116.86517072616593L201.14900414212545,103.55665959683103L201.27742103089224,121.6258367179723L201.51820269733005,121.87870795634088L201.5342548084259,120.6167767213741L201.72688014157615,133.72634498816035L202.22449558554754,129.43195379475335L202.3689645854102,139.19019494453863L202.57764202965632,140.0354572119226L202.62579836294387,128.05205867173223L202.64185047403973,125.8708163499667L202.72211102951897,129.6443624520025L202.86658002938165,127.71135982472254L202.99499691814847,116.24991885941387L203.10736169581943,127.09099980843271L203.12341380691527,141.87482386728084L203.3962996955448,138.46090123754698L203.87786302842034,140.77490347185275L204.03838413937888,110.05891824768267L204.6323122499254,114.35396943758938L204.7767812497881,117.7128715762972L204.79283336088392,114.85396810489132L204.88914602745905,119.2797746676565L205.14597980499266,116.472749405878L205.25834458266363,120.07903182077482L205.70780369334753,128.901516935688L205.72385580444336,145.27115181422693L205.86832480430604,142.03570444042072L205.94858535978528,137.02601883536127L206.12515858183966,132.89481009335432L206.26962758170234,125.029084321281L206.49435713704426,119.1853534530636L206.67093035909866,101.31507994687045L207.10433735868665,97.07125975702495L207.15249369197423,72.35487960938957L207.29696269183688,78.06367761445826L207.6982654692332,89.25221685527845L207.76247391361662,86.45134364930657L207.90694291347927,80.76806841341688L208.13167246882122,92.33908353423034L208.22798513539632,95.64782934278632L208.26008935758801,111.47325648250721L208.80586113484702,119.0103602247126L208.90217380142212,116.19164081632209L208.99848646799725,118.72254771845718L209.03059069018894,111.92524050022283L209.0466428012848,109.72340217608433L209.20716391224332,106.69176527038061L209.2874244677226,112.9246226489621L209.5121540230645,107.09922862676201L209.65662302292716,106.97125023870379L209.91345680046084,97.81743898242269L210.31475957785713,100.08858719478081L210.6197496886783,103.55958797480282L210.76421868854098,108.29335820367051L211.05315668826634,113.91744939093974L211.34209468799168,111.64890969298472L211.48656368785433,112.0880559376194L211.85576224305893,118.83040115090577L211.88786646525062,122.1806890375259L211.90391857634648,116.46291269025329L212.72257624223496,118.62360433768379L212.8509931310018,111.73200980348055L212.89914946428934,119.23409610562162L213.043618464152,120.28524529955078L213.31650435278152,105.11210096141299L213.6535986857944,109.16859926212871L213.8943803522322,106.97119926128643L214.15121412976583,99.89822840347185L214.4722563516829,98.18967014236473L214.58462112935385,118.0018293357391L214.6969859070248,146.86057618407426L214.77724646250405,105.86351407042157L215.2748619064755,121.05190156108523L215.40327879524233,131.1403199977935L215.43538301743402,137.12876096914965L215.981154794693,121.39993211999396L216.02931112798055,109.28995527956658L216.2540406833225,111.85506718566384L216.30219701661005,117.78167765896953L216.47877023866442,110.99621441857003L216.57508290523953,103.01259566728598L217.02454201592337,115.59312230867184L217.07269834921095,105.37839400578052L217.08875046030678,95.23891540952323L217.18506312688191,98.74205633397543L217.2171673490736,110.26048224132789L217.4900532377031,136.24430467453152L217.61847012646993,139.78261983798043L217.7629391263326,70.61343678616547L218.00372079277037,59.181446323265476L218.260554570304,41.70584177875537L218.88658690304226,69.28857740328941L219.0792122361925,77.21566059316392L219.11131645838418,60.43516709420133L219.2718375693427,23.22863344924363L219.4484107913971,4.352697774528849L219.56077556906806,35.554142649097L219.67314034673905,44.292902948033344L219.70524456893074,70.92656870092539L219.9781304575602,65.51417268523103L220.2831205683814,88.27062262907542L220.8609965678321,83.7495358020635L221.02151767879062,89.1251320543015L221.2944035674201,104.66373391124596L221.39071623399522,100.31782764687667L221.5351852338579,112.624957069571L222.01674856673347,89.23784923221167L222.38594712193807,107.05159895739908L222.4019992330339,107.37791377316042L222.69093723275927,92.7670400464077L223.14039634344311,99.30247215077783L223.22065689892239,118.59510897961908L223.42933434316845,106.37941931395449L223.4453864542643,101.98122797981445L223.65406389851043,92.6839917795264L223.78248078727722,100.79034558838154L223.8627413427565,109.50615991342768L223.89484556494818,116.31539204088023L223.91089767604404,118.84528160146975L224.2319398979611,124.93022943542772L224.31220045344034,128.99970031719587L224.53693000878226,138.688905172447L224.69745111974078,143.91490978979297L224.77771167522008,132.4561227085181L224.89007645289104,134.09006463561363L225.19506656371223,133.63317376557L225.38769189686244,134.32582384234863L225.9495157852173,129.00128971338899L226.09398478507995,138.9757057905707L226.86448611768088,137.86006619726328L226.94474667316013,145.09899962172466L227.1855283395979,154.90790845511108L227.36210156165228,128.93427465383647L227.4263100060357,140.92830866393012L227.68314378356934,137.97570857968316L227.89182122781543,126.34289649744453L228.21286344973248,144.12830985939212L228.35733244959513,140.0915087613854L228.48574933836196,127.62496881875462L228.80679156027898,133.37845972332826L229.06362533781265,132.52655368895321L229.38466755972968,120.88874716636849L229.43282389301723,130.75960252922567L229.68965767055087,140.42438472952483L229.9464914480845,127.53755840745532L230.1230646701389,117.76769747384057L231.08619133589005,130.77680852141935L231.2306603357527,128.6692353581769L231.24671244684856,118.01919059499699L231.72827577972413,124.94054294203391L232.0332658905453,126.4698892872313L232.08142222383285,117.58473700178857L232.43456866794162,121.83078533110822L233.1408615561591,130.06086005261812L233.47795588917202,121.15602053954804L233.57426855574715,127.37053539611827L233.60637277793884,127.38962700160016L233.94346711095173,126.53519064057978L234.2966135550605,151.4164664699383L234.7621247768402,158.41880418203354L235.50052188724942,83.43721798174867L235.75735566478306,61.024746071340786L235.94998099793327,49.65981047709698L236.89705555258857,55.20280186608417L237.1538893301222,65.18937117895643L237.65150477409364,77.38527145395467L237.77992166286046,96.29355321839212L238.11701599587334,72.98472842454035L238.51831877326967,72.12993235298664L238.59857932874894,66.44910904695985L238.807256772995,84.3407696263596L239.01593421724107,99.19493388039965L239.1122468838162,78.30524839716128L239.786435549842,98.34057901106533L239.80248766093786,100.09003622446147L239.8827482164171,101.52314923318866L240.12352988285488,112.49587708217065L240.60509321573048,117.70774772644822L241.05455232641432,111.21723856667593L241.3274382150438,116.55270019672355L241.76084521463184,117.05763582216133L241.77689732572767,113.83308007593872L241.9053142144945,115.69204228145898L242.09793954764473,123.57231370697352L242.14609588093228,119.64863461976712L242.29056488079496,125.16394812378441L242.53134654723272,122.1651596238296L242.59555499161613,122.48035079279872L242.62765921380785,127.06908716533735L242.86844088024563,116.41162297272308L243.15737887997096,98.46877838574981L243.4463168796963,109.77186629993231L243.68709854613408,116.78243890393662L243.84761965709265,118.2531492743754L243.8957759903802,123.85313026289138L244.0884013235304,130.06781681133157L244.10445343462627,125.29754142782944L244.16866187900968,131.06485494484383L244.61812098969352,131.55336965034147L245.0354758781857,107.38600189403597L245.56519554434882,90.7265980771074L245.64545609982807,89.10893428872569L245.8059772107866,88.06590347006285L246.3838532102373,65.44094545883242L246.46411376571655,71.53256641230257L247.23461509831748,81.55817789428609L247.2988235427009,79.27936554968284L247.6198657646179,86.15995726683711L248.39036709721884,90.89988241814346L248.4064192083147,91.50828668864041L248.82377409680683,96.07266184116267L248.87193043009438,83.98166080426957L249.5461190961202,64.87042980974132L249.80295287365382,69.53398546168968L250.3647767620087,75.8157186438605L250.60555842844644,89.4024339140201L250.73397531721326,93.23519514394704L250.81423587269254,98.65079564356476L250.83028798378837,94.15355030644429L251.3600076499515,90.6841927376587L251.63289353858102,95.53789869394987L251.68104987186857,104.67294470012965L251.72920620515612,115.98421253926139L251.93788364940218,90.40544669371837L252.37129064899023,95.94373787825138L252.66022864871556,108.3446169187735L252.77259342638652,98.05807816461142L252.88495820405748,88.33948642764642L253.1417919815911,90.90903913961054L253.23810464816623,116.47927457139002L253.57519898117914,133.74721610754386L253.7838764254252,120.57555613104046L253.96044964747958,116.79598649997978L254.34570031378004,117.5504808862447L254.71489886898465,132.72847568938622L254.7630552022722,121.39035677683069L254.9717326465183,100.84939920859588L255.0359410909017,105.94463111942281L255.1322537574768,111.95610819675889L255.4693480904897,96.26824458022249L255.66197342363995,86.53446888825562L255.82249453459846,86.85828054103422L255.83854664569432,84.08823735052967L256.1435367565155,91.24902732706079L256.1916930898031,99.26796410784999L256.32010997856986,115.92333386403851L256.3361620896657,126.07519823541065L256.3522142007616,133.87567063797812L256.4485268673367,124.07933478157136L256.76956908925376,121.5259076855036L256.8016733114454,130.29927000550055L257.0906113111708,134.23724067812296L257.57217464404636,148.03137490175433L257.62033097733394,140.453500475921L257.8932168659634,138.11236205627839L258.1179464213053,140.30493015631404L258.21425908788046,138.92588986108953L258.4229365321265,144.33491690685906" fill="none"></path></g></g></g></g><g opacity="0.2"><g><g><g><path style="fill: none;" stroke="rgb(0, 119, 187)" stroke-width="2px" d="M32.393160191429985,138.3970695099139L32.77841085773044,173.48224140658021L32.826567191018,161.84112687529705L33.00314041307237,136.30597476051057L33.243922079510156,130.85765465149385L33.292078412797714,124.45318782847971L33.61312063471476,138.18409584440755L34.592299411561754,97.93639175398918L34.64045574484931,84.46784888766948L34.78492474471198,107.19626721249915L35.780155632654825,37.923984691761376L35.86041618813409,32.00983065804152L36.19751052114698,56.766072090746704L36.27777107662625,74.42536640080714L36.39013585429721,77.41265539076025L36.48644852087232,55.57169963136039L37.04827240922715,-3.221403493060876L37.080376631418865,18.845029388874536L37.20879352018568,5.221805746456084L37.6743047419654,17.71787008311125L37.99534696388245,62.64892033461972L38.86216096305847,-53.186236162848815L38.878213074154324,-21.611178805487725L39.19925529607137,125.89736540371632L39.48819329579671,128.0475639756378L39.53634962908427,123.41647585290048L39.55240174018012,97.20926763752202L39.71292285113865,108.27586434838668L40.70815373908149,114.84091478618757L41.141560738669504,105.8570394688877L41.39839451620314,45.31147217487646L41.5107592938741,-99.90111295052276L41.526811404969955,-130.47234827055337L42.05653107113308,140.34408219038355L42.28126062647502,-10.90821958849483L42.40967751524184,138.42386802037922L42.489938070721095,51.76440639542457L42.5220422929128,40.0030097390551L42.71466762606303,39.042921512962494L42.875188737021546,38.80786406437741L43.565429514143204,86.54555381129497L43.693846402910026,65.26201084135513L43.82226329167684,31.45117318055145L44.239618180169,46.69411312826347L44.38408718003167,50.38293469442942L44.448295624415074,21.61834519111531L44.48039984660678,2.4378158014120856L44.70512940194872,15.235660408627155L44.737233624140416,87.13955288527481L44.817494179619686,72.93956721220184L44.84959840181139,54.95171298002576L44.978015290578206,60.456628676590896L45.07432795715332,69.54279471926989L45.090380068249175,112.03157846671336L45.52378706783718,125.93557355445714L46.6634869556427,-12.770046574543812L46.69559117783441,193.46387841490073L47.22531084399753,108.00067514028706L47.27346717728509,23.85222074469371L47.54635306591458,85.72981167886974L47.690822065777255,26.05428131786752L47.7068741768731,5.973069267142506L47.803186843448216,41.24892359823147L47.81923895454407,17.70957216291086L47.899499510023325,29.874681495938006L48.18843750974867,77.04207781817543L48.23659384303623,23.686243481776728L48.3810628428989,51.274772526873974L49.16761628659566,59.9502103785441L49.21577261988322,81.46002254522045L49.312085286458334,101.30208476398882L49.40839795303345,73.74350366725109L49.48865850851271,52.18695912271899L49.649179619471234,34.597801097261254L49.74549228604634,44.922054551654895L49.82575284152561,33.97176073596225L50.66046261850993,147.0734314481518L50.74072317398919,44.02487964780872L50.75677528508504,75.02651300150501L51.04571328481038,17.579709711775052L51.25439072905647,79.16181925117962L51.463068173302545,44.93780174112604L52.073048394944934,9.35205780837228L52.34593428357442,103.4638627063717L52.66697650549147,66.70511345874759L52.87565394973755,116.62376065905664L53.2288003938463,124.1497291149702L53.27695672713386,-15.86185164120252L53.50168628247579,89.42598821975874L53.5658947268592,20.984874419455082L54.336396059460114,139.7368064440831L54.43270872603522,110.06795108693343L54.448760837131076,83.74253522651877L54.80190728123983,43.750218489176405L54.99453261439005,11.612260399677325L55.15505372534858,72.40122078029313L55.636617058224154,80.84637248749338L55.81319028027852,10.194900193815556L55.94160716904535,71.00121077121396L56.03791983562046,106.54131614286568L56.55158739068773,47.76067875765452L56.61579583507114,21.569632627757215L57.01709861246745,46.14450792735565L57.273932390001086,181.88443251783397L57.28998450109694,61.07231549654898L57.53076616753472,-33.32595623745874L57.59497461191813,101.67166281436766L57.86786050054762,-192.22200036236728L58.558101277669266,-32.30874437435037L58.87914349958632,125.30400753266107L59.10387305492825,125.88608777580762L59.24834205479092,63.54124849871248L59.34465472136604,118.29771518820539L59.4249152768453,132.9681363599108L59.53728005451626,135.6200762203116L59.68174905437893,131.29140957105878L59.90647860972087,30.578345128929556L59.93858283191257,-6.760391022881464L59.98673916520013,110.08688543211792L60.131208165062795,-5.831023960439779L60.596719386842516,20.278853422770226L60.69303205341763,89.9153580635757L61.07828271971808,-19.268374190369883L61.41537705273098,104.52822184334582L61.70431505245632,38.084323140724024L61.848784052319,60.13359441497232L62.05746149656508,37.1426034925295L62.10561782985263,22.68002636293386L62.23403471861945,47.76026386164449L62.87611916245355,135.4555133756106L63.14900505108304,106.48566350079454L63.30952616204156,98.93074661872743L63.357682495329115,109.98670690460797L63.67872471724616,-14.801528310871305L63.9355584947798,53.88861738999124L64.22449649450513,-60.060421845932666L64.69000771628485,-223.67194771379826L64.78632038285997,19.413814100790972L65.17157104916043,115.15565112760578L65.38024849340651,30.196207044792885L65.42840482669406,117.8729748274036L65.44445693778992,131.14191499508524L65.57287382655673,72.93272142803653L65.63708227094014,127.01537813834966L65.74944704861112,112.64905688307833L66.53600049230788,33.12182740052958L66.60020893669129,133.13454737774737L66.71257371436225,148.609904526708L66.85704271422492,-306.057320373727L67.21018915833368,200.49156619223672L67.27439760271709,126.24527456702647L67.4028144914839,83.86836187101167L67.53123138025072,98.89934653433284L67.59543982463413,141.564178202391L67.91648204655117,115.99621158499394L67.99674260203044,131.931198077417L68.0127947131263,160.5768067204035L68.09305526860555,92.73095554101928L68.28568060175579,105.1497360663537L68.33383693504334,150.60664815165123L68.4140974905226,51.117451503438744L68.71908760134379,148.9922877766688L68.97592137887743,120.14924520964207L69.13644248983596,167.29372795678077L69.32906782298618,137.79797853035657L69.74642271147833,105.19675132785262L69.89089171134101,46.32242288001544L70.45271559969585,94.57507401100429L70.4687677107917,126.90601532189066L70.5008719329834,175.50018244585348L71.2071648212009,175.90059481334052L71.33558170996771,48.58232372876773L71.4800507098304,0.29484019184687327L71.5121549320221,89.4575014576106L71.59241548750136,48.20861557719823L71.99371826489767,98.40386640382287L72.00977037599353,49.746616227427694L72.17029148695204,94.31868713572233L72.20239570914374,125.03240151737523L72.282656264623,151.8453201895618L72.50738581996495,186.87915813444306L72.60369848654005,43.03563554755752L72.74816748640272,102.49187450835537L72.9889491528405,102.77330601551482L73.05315759722393,126.42647096994733L73.08526181941563,188.594130791855L73.48656459681193,145.146710954354L73.83971104092068,18.326711118904L73.93602370749579,39.46339976020681L74.2089095961253,128.9335178283039L74.3052222627004,116.1871769030598L74.72257715119257,-3.0835071464583166L75.09177570639716,47.468742837877784L75.20414048406813,86.84667402002076L75.28440103954739,-27.95920091222979L75.49307848379347,30.829300638262197L75.60544326146443,129.31935225871166L76.08700659434,177.870558786728L76.31173614968195,159.06205910564464L76.87356003803677,186.16535783757035L76.88961214913263,140.36999433210016L76.90566426022848,61.22356395111031L78.20588525899251,218.56623741450917L78.35035425885519,159.0359772337421L78.49482325871786,50.35061052346707L78.59113592529297,131.69410386660093L78.97638659159342,202.44980935334115L79.73083581309848,119.40575155968872L79.8592527018653,164.76902915908886L80.43712870131598,116.51611400336637L80.69396247884963,133.69016857080047L80.74211881213718,157.80251025486632L80.870535700904,182.61175465285137L80.91869203419155,112.18224229507875L81.30394270049202,112.91670252735942L81.36815114487541,108.0613819701166L81.849714477751,75.238920899725L82.2189130329556,-56.56843071870148L82.45969469939338,168.04178546284433L82.74863269911873,62.10054096283238L82.84494536569383,80.66762774281354L83.10177914322746,123.00031629594227L83.39071714295281,50.868513897427576L83.40676925404867,20.635965733938974L83.95254103130765,55.116106094540854L84.11306214226616,95.27996347311637L84.16121847555374,77.397077931475L84.17727058664957,93.67290149612836L84.20937480884129,100.10390280487415L84.22542691993714,118.30529646984299L84.62672969733343,94.35913949669914L85.15644936349656,82.4362917157038L85.52564791870117,159.25017672836898L85.79853380733067,51.72616052686469L86.2961492513021,99.35069681650445L86.7295562508901,141.07407286110174L86.80981680636935,112.10384580809477L87.16296325047811,123.61739867520677L87.46795336129931,142.42248489366224L87.50005758349101,138.95089910656012L87.70873502773709,115.83721211860907L87.96556880527073,-286.4063366264818L88.43108002705046,79.82591689194305L88.479236360338,130.04191251906863L88.8805391377343,81.18609688406045L89.29789402622646,139.4174685287356L89.57077991485596,115.39072743510042L89.891822136773,144.65711480362248L90.18076013649835,-56.61455961145171L90.21286435869006,83.8680412695494L90.24496858088176,165.8391779812937L90.34128124745686,16.71374630322802L90.79074035814074,81.7037739511064L91.01546991348266,131.94379582899393L91.9143881348504,125.70726759548961L91.97859657923381,99.71478692420533L92.10701346800062,38.168943067858294L92.15516980128817,90.31354507973629L92.6527852452596,114.35278963040066L92.78120213402643,120.17114040362533L92.98987957827251,109.59612002899455L93.07014013375176,95.27000596887592L93.3269739112854,123.81300328502098L93.40723446676466,202.4633877682145L93.43933868895637,83.18597108798834L93.59985979991488,112.9443874065734L93.66406824429829,41.55093017570593L94.12957946607801,147.4259987621199L94.32220479922825,145.65414763351632L95.15691457621256,-96.66809236918135L95.60637368689643,-68.56054727446039L96.0558327975803,156.7552938666698L96.47318768607246,132.1192402645032L96.66581301922268,158.4355095537879L96.84238624127705,176.69564872199348L96.8905425745646,-7.44127309314112L97.8055129070282,44.11794836641971L97.88577346250746,-77.2752116579868L97.9018255736033,-44.98061146579616L98.06234668456185,35.5238489916228L99.23415079455906,132.02513430586714L99.41072401661343,144.25325125568847L99.42677612770927,123.900169164944L99.45888034990098,103.52209901905069L99.53914090538024,144.76628903098603L99.5551930164761,166.48370007394806L99.9564957938724,20.313233214873122L100.03675634935166,143.37670799888596L100.08491268263923,4.779375728499872L100.21332957140605,-20.761622648245975L100.53437179332309,132.35111055737494L100.58252812661064,159.5823764200271L100.5985802377065,150.97066282371392L100.83936190414428,25.29368263695565L101.09619568167793,173.59505540348619L101.19250834825303,53.94789094269527L101.40118579249912,194.1850431159513L101.43329001469083,32.32413324454015L101.6419674589369,19.378283915205742L102.23589556948343,111.50330269250237L102.6211462357839,113.40250803727213L102.73351101345486,86.09584425425389L102.82982368002997,242.97704020105476L103.21507434633043,126.56832768755461L103.26323067961798,74.10842356697201L104.21030523427328,-36.87422235077611L104.48319112290277,144.96079982404657L104.49924323399863,167.98901823393376L104.82028545591565,87.99770870526967L104.86844178920322,-0.48014783704883257L105.0129107890659,114.421153177506L105.59078678851658,166.22561589680694L105.63894312180413,113.86357065786008L105.89577689933776,180.50122579716057L105.92788112152947,61.46808857228764L106.39339234330919,-7.062586189451395L106.84285145399305,107.58004602176636L106.97126834275987,67.96777402960106L107.0354767871433,85.43644248196749L107.1638936759101,168.94884243529273L107.34046689796448,134.3856285781394L107.75782178645665,135.10692529155676L107.8380823419359,206.0430351070169L108.09491611946954,-34.01211880239134L108.35174989700317,39.06811701611636L108.48016678577,85.55310369642089L108.62463578563268,130.6492448420977L108.76910478549534,121.65758079515521L108.9456780075497,101.02534912530639L108.96173011864556,91.79121607832712L109.15435545179578,102.74405584680851L109.1864596739875,135.05772239655047L109.23461600727505,81.38798151075359L109.79643989562989,206.19582999216104L109.9890652287801,81.19937355638103L110.29405533960131,49.39321912143956L110.6632538948059,97.73920299577306L110.98429611672296,105.22883033299088L111.62638056055704,89.67053169984563L111.75479744932386,135.8711071652824L111.89926644918654,24.238394635473327L111.94742278247409,73.21102235621129L111.9795270046658,145.50842483945203L112.79818467055426,28.427675084269453L112.84634100384181,162.48979792805162L113.16738322575887,119.86932241524633L113.19948744795057,116.16109503115725L113.21553955904642,131.93855305214007L113.3279043367174,122.50477958870366L113.61684233644273,164.28635422816083L114.0663014471266,101.01399606175953L114.38734366904364,156.63923613732186L114.41944789123535,135.6141733816236L114.51576055781047,113.74747521069305L115.0133760017819,4.447722945218629L115.28626189041138,-31.761307948040354L115.57519989013673,18.403202856023796L115.70361677890354,-68.51675688649388L116.20123222287496,131.64222300643905L116.63463922246298,-81.87316467665124L117.00383777766757,140.07241959836907L117.46934899944729,7.60149838864649L117.64592222150168,107.38383792684665L117.9027559990353,52.2789717423954L118.12748555437723,-44.17171511753622L118.46457988739013,145.07080384343013L119.10666433122422,52.84662491973904L119.45981077533298,153.19697595456424L119.54007133081224,140.21101372462485L120.13399944135878,4.2499307018970285L120.31057266341314,121.37469715196069L120.40688532998827,105.99948081269092L120.6316148853302,148.75379800654628L120.6637191075219,131.68218503576767L121.17738666258917,-40.11818109965438L121.56263732888964,135.82265862665795L121.75526266203985,156.71912247816L121.78736688423156,126.41162900813438L121.88367955080668,148.159817791476L122.07630488395691,195.65933836973332L122.47760766135322,76.13466252644564L122.92706677203708,199.31166794592718L122.9591709942288,120.01904329813442L123.0233794386122,-60.744509930815184L123.26416110504998,117.76302738474865L123.92229765997992,96.3998055219757L123.97045399326748,109.35795086033431L124.54832999271818,45.48597366490836L124.82121588134765,162.57360692207536L124.8693722146352,27.757599169179827L125.02989332559373,110.95243394465494L125.31883132531908,111.24936747546144L125.33488343641493,76.27755648407795L125.60776932504443,101.56733532675753L125.65592565833198,15.125071763047657L126.20169743559096,142.7550806224208L126.23380165778266,136.04549550185706L126.34616643545363,153.50141533137017L126.77957343504164,18.05989526664294L126.92404243490431,132.30513253590107L127.26113676791722,76.26256365098865L127.64638743421766,14.368263722954595L127.72664798969691,94.93137538906255L127.82296065627204,96.43680670250554L128.25636765586006,134.50660848287893L128.57740987777711,62.62719487082238L128.65767043325636,145.2192611793786L128.89845209969414,116.93517783239471L128.9787126551734,144.55799237504712L129.3800154325697,95.3631501231251L129.66895343229507,56.35743723869746L129.73316187667848,-1.3023585754484088L129.81342243215772,33.50409749703309L130.07025620969137,-160.3737905591376L130.10236043188306,-290.6848951530701L130.3591942094167,98.45765201384893L130.39129843160842,172.28962282578172L130.48761109818352,-94.894902258L130.51971532037524,94.60598376375067L130.74444487571716,230.8659993616969L130.80865332010058,-103.13368091803505L131.17785187530518,117.03807204287932L131.32232087516786,21.835279227626415L131.62731098598903,214.66359353190728L131.80388420804343,214.81184341985076L131.83598843023512,95.40205605351912L131.93230109681025,70.13488904338556L132.1409785410563,-58.94631290557541L132.42991654078165,196.3987207774056L133.0559488735199,88.27568903198214L133.4251474287245,99.73262745263612L133.4893558731079,98.75458554465543L133.50540798420377,51.25672455043818L133.61777276187473,138.34539609775706L133.89065865050424,125.26430952806611L134.0672318725586,188.8123943814891L134.24380509461295,-63.8968898149366L134.35616987228394,176.64069385957555L134.45248253885904,10.713218463786092L134.8377332051595,198.1942398374898L135.72059931543137,96.85340001438333L135.78480775981478,106.46725720507736L136.36268375926548,118.81218624062846L136.3787358703613,95.97600810665124L136.44294431474472,29.831664323262885L136.76398653666178,54.67869254652396L136.78003864775764,49.7885773011682L136.7960907588535,170.785926532017L136.92450764762032,123.33692897243418L137.6308005358378,92.30104783900181L137.74316531350877,94.84769840740562L137.79132164679632,111.44325592450696L138.09631175761754,-14.398852874238713L138.96312575679354,97.09637820497785L139.10759475665623,-62.37282589886186L139.13969897884792,136.41944881925065L139.20390742323136,-8.518494006425811L139.30022008980646,99.9017352945378L139.348376423094,-99.10594588841258L139.46074120076497,-20.261333495801722L139.5891580895318,145.3689443444476L139.63731442281934,70.98254045076312L139.82993975596958,16.68734382986318L140.2633467555576,55.04836489145055L140.327555199941,151.4758552926402L140.50412842199538,231.61100172441397L140.68070164404975,87.20058031656663L141.7722451985677,177.43378644163568L141.99697475390965,114.9075621725242L142.12539164267645,162.87629242029348L142.35012119801837,158.5410062937899L142.36617330911426,40.65848885815589L142.7835281976064,11.122343647483518L143.00825775294834,44.99564201670455L143.40956053034466,-152.42121471037717L143.87507175212437,109.93444886625518L143.92322808541192,49.986162096484804L144.34058297390408,15.137066029519104L144.6295209736294,34.42733541387224L144.69372941801282,95.23820984738086L145.09503219540915,161.58076077010082L145.2073969730801,-69.36733142485113L145.5123870839013,164.17295560505895L145.92974197239346,67.80643605843247L146.17052363883127,99.86403633435475L146.29894052759806,68.67649185035103L146.31499263869392,159.21008268667356L146.66813908280267,105.8068936284041L146.73234752718608,111.54954473870991L146.957077082528,113.95005761703942L147.5991615263621,-96.61015779905512L147.88809952608744,-109.9874989788089L147.936255859375,99.01153818722378L148.24124597019622,54.50783082603448L148.28940230348377,263.91758675362126L148.43387130334642,-57.90718698957426L149.02779941389295,122.53550075235458L149.28463319142662,82.50923797782889L149.46120641348097,139.9627361804478L149.7501444132063,161.0094112464861L149.91066552416484,174.40942083551454L149.92671763526067,183.01827730703144L150.215655634986,-44.387800503117745L150.23170774608187,38.723640174343615L150.6009063012865,168.8157551106245L150.6651147456699,41.27943731387737L150.90589641210767,245.72227508698114L151.38745974498326,177.3878461379809L151.53192874484594,186.5933702191784L151.5800850781335,127.76914989400575L151.69244985580445,160.57320466868018L151.85297096676297,162.49511614054367L151.90112730005052,94.50173171177873L151.9813878555298,135.8861754340099L152.1419089664883,67.23849999744562L152.52715963278877,154.9655644918163L152.67162863265145,162.0876505408863L152.97661874347264,153.01983421719584L153.24950463210212,108.45887120662398L154.03605807579888,66.60966851753378L154.24473552004497,51.37849652937864L154.29289185333252,158.76467296100904L154.8065594083998,113.46957031961877L155.07944529702928,174.91555624991815L155.2399664079878,80.34738459980781L155.32022696346706,112.59161264460029L155.49680018552144,61.69677170944608L155.59311285209654,162.30677221090477L155.70547762976753,115.38380621529693L155.99441562949286,180.2040659594395L156.4438747401767,-29.99486932647659L156.62044796223108,107.86217530857903L156.6686042955187,185.53778047514334L156.98964651743572,87.21234827612352L157.11806340620254,188.69638379941503L157.27858451716105,161.5147734455983L157.47120985031128,123.19741075961065L157.8404084055159,113.05124198806273L157.92066896099516,163.45605301756586L158.89984773784215,121.66595415099376L158.915899848938,67.16834485393338L159.42956740400527,36.63028235579472L160.11980818112693,62.7157940278709L160.24822506989375,68.82238437460121L160.37664195866054,41.276495323988144L160.3926940697564,60.405709620815884L160.9384658470154,105.41259154761003L161.11503906906975,143.86813346384346L161.30766440221998,62.059824577121915L161.58055029084946,116.97917566836622L162.54367695660062,50.72571423434299L162.92892762290106,81.34654848648036L163.41049095577665,-14.378598405385986L163.47469940016006,-42.16497627053346L163.699428955502,79.09592622122484L163.97231484413146,114.50637658974574L164.06862751070656,152.38613713862105L164.7428161767324,210.492775955557L164.999649954266,117.83061771656261L165.17622317632038,27.86132317168449L165.3206921761831,101.1193985072138L165.44910906494988,112.24315657291329L165.77015128686693,96.5476216549996L165.80225550905863,114.22837740412372L165.85041184234618,104.63779210780983L165.8825160645379,74.32933683339738L165.978828731113,34.96766203128331L166.29987095303008,92.99409390591882L166.34802728631763,-102.30007939826947L166.42828784179687,11.669817791612644L166.54065261946783,90.37185682805345L166.57275684165955,178.53151641905197L167.39141450754803,25.80500425148452L167.5679877296024,-38.104502173938585L167.6964046183692,64.15350299713313L168.01744684028625,150.57077850569416L168.03349895138211,113.06725320226754L168.0656031735738,39.5845305362227L168.29033272891573,58.84262662088986L168.35454117329914,-51.08399579790361L168.49901017316185,13.99481959611876L168.51506228425768,-40.0502890252877L168.59532283973695,-9.928084341554495L168.6755833952162,103.49003887282197L168.91636506165398,182.18179980356004L169.41398050562543,235.3604075374974L169.60660583877564,20.154516632131475L169.7189706164466,66.91235401575189L169.79923117192587,57.84114308834312L170.0239607272678,-204.21132579951336L170.16842972713047,117.64687536085299L170.40921139356823,30.67824077279633L170.58578461562263,81.16259868276575L170.6981493932936,36.4478789826629L170.71420150438945,-3.540533960403394L170.85867050425213,100.08645831354382L171.4686507258945,217.98915478239238L172.9454449467129,211.99481266528164L173.00965339109632,22.458094715393003L173.29859139082166,164.72265510051452L173.37885194630093,45.796749635321845L173.66778994602626,66.91774766388212L173.71594627931384,167.96621781229229L174.05304061232673,55.84187236952069L174.2296138343811,191.36946449741723L174.61486450068153,173.07786866808843L174.72722927835255,61.140584749106594L175.00011516698203,113.11328780047006L175.03221938917372,195.87133137194328L175.44957427766587,195.2070828599035L175.52983483314515,144.64704414592475L175.70640805519952,161.54447622813373L175.89903338834975,163.99121229376124L176.17191927697925,187.43973922070685L176.4608572767046,187.544481604327L176.5571699432797,79.37982824553487L176.63743049875893,84.97443691590222L176.7176910542382,147.3198985370124L177.00662905396356,165.1477349216881L177.02268116505942,150.4491762569396L177.4560881646474,181.2055023447124L177.58450505341423,41.4434721091111L177.74502616437275,87.7650651971065L177.92159938642712,18.058839167708356L178.25869371944003,94.52902055389222L178.54763171916537,13.732152703957894L179.06129927423265,38.88529874697451L179.0773513853285,48.5468689788207L179.17366405190361,127.2214494429621L180.00837382888793,188.6888779534156L180.2009991620382,-51.6254350909779L180.31336393970915,154.553025845491L180.74677093929714,139.0920203266951L181.08386527231002,144.24212449905613L181.2443863832686,101.15611680410045L181.5012201608022,121.99568332550129L181.53332438299392,14.673212290318276L181.6456891606649,-64.76485226789555L182.15935671573217,146.871282796725L182.23961727121142,133.95443847027278L182.4161904932658,155.72533338070812L182.49645104874506,163.8539382911737L183.1866918258667,-3.739042842287745L183.55589038107132,276.3091444430256L183.65220304764642,142.20458905276428L183.66825515874228,248.5293860551289L184.0856100472344,211.25327091246632L184.19797482490537,132.11218703233286L185.19320571284823,170.9741195903795L185.20925782394409,98.01723989921418L185.35372682380674,202.57375010687943L185.46609160147773,161.90328584116165L185.5142479347653,258.807397463315L185.62661271243627,162.10950801705044L185.67476904572382,146.13357883200237L186.02791548983257,93.41681636339915L186.20448871188694,-111.40501005594706L186.38106193394134,143.4962357675904L186.54158304489985,82.36713609439751L186.57368726709154,26.1665295474871L186.5897393781874,83.57022136999421L186.63789571147495,79.22077220242136L187.0231463777754,-58.12312150387939L187.11945904435052,149.8435789535888L187.4886575995551,177.85515105762866L187.64917871051367,137.52090343130234L187.77759559928046,151.7824445851344L187.9702209324307,146.63995941223007L188.75677437612745,-4.825353749973743L188.7728264872233,36.26615453027475L188.90124337599013,-5.644094449016848L189.0457123758528,127.28030809965608L189.60753626420765,138.8297494716347L190.0569953748915,124.81725907727105L190.10515170817905,221.0619972155023L190.74723615201316,70.8672559367066L191.1324868183136,0.869659754818116L191.2930079292721,86.4335507474995L192.175874039544,200.44797382282044L192.3845514837901,52.95834509989133L192.56112470584443,199.28293639723339L192.85006270556977,-36.97372195754238L193.42793870502047,25.771642840497094L193.50819926049974,109.45646980380418L193.5242513715956,70.86923612220895L193.5563555937873,295.66316637110003L193.97371048227947,251.63625939051508L194.34290903748408,129.19335588403283L194.43922170405918,132.10586929763485L194.68000337049696,117.13053727638484L194.77631603707206,10.524629368323076L194.93683714803058,57.04450503128828L195.32208781433107,136.56026829683287L195.59497370296054,169.61989901367875L195.9481201470693,83.60942904294097L196.44573559104072,100.48209937691566L196.55810036871168,179.49044482220748L196.60625670199923,159.89505714030474L196.73467359076605,53.61184403348973L196.9915073682997,124.43125491667737L197.05571581268313,141.40878078772948L197.13597636816237,95.10404756486848L197.1680805903541,119.91871389934809L197.20018481254579,222.3174065356352L197.24834114583334,57.6658683830198L197.81016503418815,185.597110604576L198.94986492199368,249.98910337183162L198.98196914418537,25.71889447049611L198.99802125528123,22.216285777190336L199.03012547747292,176.678958587045L199.12643814404805,147.9859386454591L199.27090714391073,237.3162367581799L199.36721981048584,0.8945912332383159L199.4474803659651,76.669614354636L199.9129915877448,256.261793564391L200.47481547609965,-19.788653786933253L200.53902392048306,91.42233580760148L200.55507603157892,123.23989988281846L201.00453514226277,44.212337208698955L201.14900414212545,35.21786318423406L201.27742103089224,214.41050696579592L201.51820269733005,123.177194008577L201.5342548084259,114.1367985393669L201.72688014157615,201.0435759041117L202.22449558554754,107.38038674639968L202.3689645854102,189.29846391613546L202.57764202965632,144.37585302664897L202.62579836294387,66.51767475676692L202.64185047403973,114.67020393697445L202.72211102951897,149.02140593300828L202.86658002938165,117.78545062819921L202.99499691814847,57.39577108049768L203.10736169581943,182.75961793314914L203.12341380691527,217.78930691793025L203.3962996955448,120.93051325541667L203.87786302842034,152.6572339633491L204.03838413937888,-47.66672367029483L204.6323122499254,136.4089255477238L204.7767812497881,134.96073102475384L204.79283336088392,100.17358647564772L204.88914602745905,142.0061556065181L205.14597980499266,102.05876079171503L205.25834458266363,138.5971813991097L205.70780369334753,174.20470737238944L205.72385580444336,229.328724779485L205.86832480430604,125.42178142277771L205.94858535978528,111.30143692471877L206.12515858183966,111.68117992734308L206.26962758170234,84.63882376161625L206.49435713704426,89.17797470031535L206.67093035909866,9.551773660467603L207.10433735868665,75.2793732607018L207.15249369197423,-54.56297427754788L207.29696269183688,107.37818025398276L207.6982654692332,146.7050226501648L207.76247391361662,72.06894565299687L207.90694291347927,51.5846244107197L208.13167246882122,151.75589124049324L208.22798513539632,112.63813757445102L208.26008935758801,192.73633940242357L208.80586113484702,157.71315674143594L208.90217380142212,101.71760311802245L208.99848646799725,131.71867702573977L209.03059069018894,77.02127644094585L209.0466428012848,98.4170299226862L209.20716391224332,91.12440275458903L209.2874244677226,144.93015409603382L209.5121540230645,77.1860090158328L209.65662302292716,106.3140851417423L209.91345680046084,50.81289897317552L210.31475957785713,111.75086359811667L210.6197496886783,121.38307050779926L210.76421868854098,132.60112312123024L211.05315668826634,142.79698511943266L211.34209468799168,100.00002793109313L211.48656368785433,114.34305843307479L211.85576224305893,153.45213700072568L211.88786646525062,139.38431456575321L211.90391857634648,87.10230653892086L212.72257624223496,129.71868966835459L212.8509931310018,76.34388326895228L212.89914946428934,157.75707914176928L213.043618464152,125.6828641665367L213.31650435278152,27.198470218951115L213.6535986857944,129.9985936038408L213.8943803522322,95.6876176618692L214.15121412976583,63.57874001089051L214.4722563516829,89.4162758813424L214.58462112935385,219.7366590587717L215.40327879524233,182.94403920960244L215.43538301743402,167.8792216625552L215.981154794693,40.632878458991996L216.02931112798055,47.1055956756542L216.2540406833225,125.0268381390591L216.30219701661005,148.2146406415271L216.47877023866442,76.15306882216282L216.57508290523953,62.01695827572317L217.02454201592337,180.1937407064629L217.07269834921095,52.9260775056576L217.08875046030678,43.17300384469277L217.18506312688191,116.73057752272689L217.2171673490736,169.40724594963467L217.4900532377031,269.67043581926424L217.61847012646993,157.95175966501574L217.7629391263326,-284.568196430823L218.00372079277037,0.47852597082783177L218.260554570304,-48.0308514958148L218.88658690304226,210.92507873908684L219.0792122361925,117.92098961110847L219.11131645838418,-25.73215228390714L219.56077556906806,195.7726049804684L219.67314034673905,89.16616902293936L219.70524456893074,207.68962535841396L219.9781304575602,37.72168516905822L220.2831205683814,205.12429504010456L220.8609965678321,60.533893629002094L221.02151767879062,116.72865391395317L221.2944035674201,184.45397780242698L221.39071623399522,78.00173228934848L221.5351852338579,175.8216891357988L222.01674856673347,-30.854232116682397L222.38594712193807,198.52465736219574L222.4019992330339,109.05353034243792L222.69093723275927,17.740651645843172L223.14039634344311,132.86171553334103L223.22065689892239,217.66220729704295L223.42933434316845,43.65222759517383L223.4453864542643,79.39665039285015L223.65406389851043,44.94296908234173L223.78248078727722,142.41622373569285L223.8627413427565,154.261599116272L223.89484556494818,151.28059014319783L223.91089767604404,131.83618689112274L224.2319398979611,156.17624990796017L224.31220045344034,149.89630846468026L224.53693000878226,188.44267488928867L224.69745111974078,170.75028319297448L224.77771167522008,73.61560254270807L224.89007645289104,142.4803063103312L225.19506656371223,131.28705316295358L225.38769189686244,137.88256073967173L225.9495157852173,101.65997029044895L226.09398478507995,190.1940263832154L226.86448611768088,132.13129110770328L226.94474667316013,182.2707007031613L227.4263100060357,202.51730539060736L227.68314378356934,122.81419771762981L227.89182122781543,66.60876328987554L228.21286344973248,235.455861908166L228.35733244959513,119.36265895137544L228.48574933836196,63.60966862254645L228.80679156027898,162.92245903086283L229.06362533781265,128.15204233452428L229.38466755972968,61.12896766082606L229.43282389301723,181.4461420305232L229.68965767055087,190.0527448623493L229.9464914480845,61.36410054504934L230.1230646701389,67.59976126871454L231.08619133589005,197.57819469825031L231.2306603357527,117.84691181441062L231.24671244684856,63.33153742455761L231.72827577972413,160.48147493264696L232.0332658905453,134.32303585735522L232.08142222383285,71.95975256672378L232.43456866794162,143.6341132552834L233.1408615561591,172.3220412912918L233.47795588917202,75.42994279451948L233.57426855574715,159.28187855531633L233.60637277793884,127.48766181011766L233.94346711095173,122.14768613644446L234.2966135550605,279.18105462437444L235.94998099793327,-8.698785181688436L236.89705555258857,83.6658926181226L237.1538893301222,116.47009826407339L237.65150477409364,140.0108452587004L237.77992166286046,193.38700007013526L238.11701599587334,-46.70537189726261L238.51831877326967,67.74058074629679L238.59857932874894,37.27825562889606L238.807256772995,176.21389787763323L239.01593421724107,175.47061167568486L239.1122468838162,-28.962645771369353L239.786435549842,201.221387132769L239.80248766093786,109.07344535091882L239.8827482164171,108.88214057248115L240.12352988285488,168.84049799994924L240.60509321573048,144.47054361148093L241.05455232641432,77.88867312661841L241.3274382150438,143.95013200255076L241.76084521463184,119.65046476996153L241.77689732572767,97.2750852318386L241.9053142144945,125.2377561834249L242.09793954764473,164.0372657508733L242.14609588093228,99.50066286521663L242.29056488079496,153.48491378551716L242.53134654723272,106.76647266393896L242.59555499161613,124.09884777701427L242.62765921380785,150.63210767953873L242.86844088024563,61.68587125972833L243.15737887997096,6.3328218256477555L243.4463168796963,167.81287601877133L243.68709854613408,152.78151417725925L243.84761965709265,125.80520191276355L243.8957759903802,152.60886086036285L244.0884013235304,161.9800416030151L244.10445343462627,100.80232366101184L244.16866187900968,160.67983294325495L244.61812098969352,134.06187767795805L245.0354758781857,-16.71269020429341L245.56519554434882,5.181070501836075L245.64545609982807,80.80228035697412L245.8059772107866,82.70997221103971L246.3838532102373,-50.73751991171898L246.46411376571655,102.81285314883341L247.23461509831748,133.03938532017673L247.2988235427009,67.57773406236447L247.6198657646179,121.49158467332867L248.39036709721884,115.23925267362452L248.4064192083147,94.6324239549346L248.82377409680683,119.51058823785661L248.87193043009438,21.8947413694259L249.5461190961202,-33.26515511308148L249.80295287365382,93.48120068059022L250.3647767620087,108.07222584310573L250.60555842844644,159.16980005588266L250.73397531721326,112.91630649025895L250.81423587269254,126.459738086387L250.83028798378837,71.06033345264163L251.3600076499515,72.86914804395596L251.63289353858102,120.46152989281927L251.68104987186857,151.58112572572767L251.72920620515612,174.0672259217969L251.93788364940218,-40.94073129842582L252.37129064899023,124.38269322459564L252.66022864871556,172.02275039679202L252.77259342638652,45.23701719998766L252.88495820405748,38.43481597464202L253.1417919815911,104.10361349491086L253.23810464816623,247.78164915052758L253.57519898117914,222.4175662042356L253.7838764254252,52.93948619034502L253.96044964747958,97.38801238220185L254.34570031378004,121.42478641571566L254.71489886898465,210.66701342085526L254.7630552022722,63.1694639559167L254.9717326465183,-4.627787813566698L255.0359410909017,132.1084906860618L255.1322537574768,142.8248585877421L255.4693480904897,15.711546132118514L255.66197342363995,36.55182929208209L255.82249453459846,88.5210434451795L255.83854664569432,69.86415053793887L256.1435367565155,128.01946420041378L256.1916930898031,140.4449584975467L256.32010997856986,201.44814666115371L256.3361620896657,178.20471037552412L256.3522142007616,173.93085714686762L256.4485268673367,73.77545066002251L256.76956908925376,108.41413787318015L256.8016733114454,175.35021639714128L257.0906113111708,154.45859928539267L257.57217464404636,218.8638310071498L257.62033097733394,101.54134774940273L257.8932168659634,126.09068808547545L258.1179464213053,151.5637000933069L258.21425908788046,131.84456024696132L258.4229365321265,172.11010486581048" fill="none"></path></g></g></g></g></g></g><g transform="translate(41, 177)" clip-path="url(#clip_1)"><clipPath id="clip_1"><rect width="288" height="22"></rect></clipPath><g><g><line x1="0" y1="0" x2="0" y2="5" style="visibility: inherit;" fill="rgb(0, 0, 0)" stroke="rgb(204, 204, 204)" stroke-width="1px"></line><line x1="32.10422219170464" y1="0" x2="32.10422219170464" y2="5" style="visibility: inherit;" fill="rgb(0, 0, 0)" stroke="rgb(204, 204, 204)" stroke-width="1px"></line><line x1="64.20844438340929" y1="0" x2="64.20844438340929" y2="5" style="visibility: inherit;" fill="rgb(0, 0, 0)" stroke="rgb(204, 204, 204)" stroke-width="1px"></line><line x1="96.31266657511392" y1="0" x2="96.31266657511392" y2="5" style="visibility: inherit;" fill="rgb(0, 0, 0)" stroke="rgb(204, 204, 204)" stroke-width="1px"></line><line x1="128.41688876681857" y1="0" x2="128.41688876681857" y2="5" style="visibility: inherit;" fill="rgb(0, 0, 0)" stroke="rgb(204, 204, 204)" stroke-width="1px"></line><line x1="160.52111095852322" y1="0" x2="160.52111095852322" y2="5" style="visibility: inherit;" fill="rgb(0, 0, 0)" stroke="rgb(204, 204, 204)" stroke-width="1px"></line><line x1="192.62533315022785" y1="0" x2="192.62533315022785" y2="5" style="visibility: inherit;" fill="rgb(0, 0, 0)" stroke="rgb(204, 204, 204)" stroke-width="1px"></line><line x1="224.72955534193252" y1="0" x2="224.72955534193252" y2="5" style="visibility: inherit;" fill="rgb(0, 0, 0)" stroke="rgb(204, 204, 204)" stroke-width="1px"></line><line x1="256.83377753363715" y1="0" x2="256.83377753363715" y2="5" style="visibility: inherit;" fill="rgb(0, 0, 0)" stroke="rgb(204, 204, 204)" stroke-width="1px"></line><line x1="288.9379997253418" y1="0" x2="288.9379997253418" y2="5" style="visibility: inherit;" fill="rgb(0, 0, 0)" stroke="rgb(204, 204, 204)" stroke-width="1px"></line></g><g transform="translate(0, 8)"><text style="text-anchor: middle; visibility: hidden; font-family: &quot;Helvetica Neue&quot;, sans-serif; font-size: 12px; font-weight: 200;" x="0" y="0" dx="0em" dy="0.95em" fill="rgb(50, 49, 63)" stroke="none" stroke-width="1px">-2k</text><text style="text-anchor: middle; visibility: hidden; font-family: &quot;Helvetica Neue&quot;, sans-serif; font-size: 12px; font-weight: 200;" x="32.10422219170464" y="0" dx="0em" dy="0.95em" fill="rgb(50, 49, 63)" stroke="none" stroke-width="1px">0</text><text style="text-anchor: middle; visibility: hidden; font-family: &quot;Helvetica Neue&quot;, sans-serif; font-size: 12px; font-weight: 200;" x="64.20844438340929" y="0" dx="0em" dy="0.95em" fill="rgb(50, 49, 63)" stroke="none" stroke-width="1px">2k</text><text style="text-anchor: middle; visibility: hidden; font-family: &quot;Helvetica Neue&quot;, sans-serif; font-size: 12px; font-weight: 200;" x="96.31266657511392" y="0" dx="0em" dy="0.95em" fill="rgb(50, 49, 63)" stroke="none" stroke-width="1px">4k</text><text style="text-anchor: middle; visibility: hidden; font-family: &quot;Helvetica Neue&quot;, sans-serif; font-size: 12px; font-weight: 200;" x="128.41688876681857" y="0" dx="0em" dy="0.95em" fill="rgb(50, 49, 63)" stroke="none" stroke-width="1px">6k</text><text style="text-anchor: middle; visibility: hidden; font-family: &quot;Helvetica Neue&quot;, sans-serif; font-size: 12px; font-weight: 200;" x="160.52111095852322" y="0" dx="0em" dy="0.95em" fill="rgb(50, 49, 63)" stroke="none" stroke-width="1px">8k</text><text style="text-anchor: middle; visibility: hidden; font-family: &quot;Helvetica Neue&quot;, sans-serif; font-size: 12px; font-weight: 200;" x="192.62533315022785" y="0" dx="0em" dy="0.95em" fill="rgb(50, 49, 63)" stroke="none" stroke-width="1px">10k</text><text style="text-anchor: middle; visibility: hidden; font-family: &quot;Helvetica Neue&quot;, sans-serif; font-size: 12px; font-weight: 200;" x="224.72955534193252" y="0" dx="0em" dy="0.95em" fill="rgb(50, 49, 63)" stroke="none" stroke-width="1px">12k</text><text style="text-anchor: middle; visibility: hidden; font-family: &quot;Helvetica Neue&quot;, sans-serif; font-size: 12px; font-weight: 200;" x="256.83377753363715" y="0" dx="0em" dy="0.95em" fill="rgb(50, 49, 63)" stroke="none" stroke-width="1px">14k</text><text style="text-anchor: middle; visibility: hidden; font-family: &quot;Helvetica Neue&quot;, sans-serif; font-size: 12px; font-weight: 200;" x="288.9379997253418" y="0" dx="0em" dy="0.95em" fill="rgb(50, 49, 63)" stroke="none" stroke-width="1px">16k</text></g><line x1="0" y1="0" x2="288.9379997253418" y2="0" fill="rgb(0, 0, 0)" stroke="rgb(204, 204, 204)" stroke-width="1px"></line></g></g></g></g></svg>