<svg viewBox="0 0 330 200" xmlns="http://www.w3.org/2000/svg"><g><g><g><g><g><line x1="61.77000045776367" y1="177.9749994277954" x2="56.77000045776367" y2="177.9749994277954" style="visibility: inherit;" fill="rgb(0, 0, 0)" stroke="rgb(204, 204, 204)" stroke-width="1px"></line><line x1="61.77000045776367" y1="158.1999994913737" x2="56.77000045776367" y2="158.1999994913737" style="visibility: inherit;" fill="rgb(0, 0, 0)" stroke="rgb(204, 204, 204)" stroke-width="1px"></line><line x1="61.77000045776367" y1="138.42499955495197" x2="56.77000045776367" y2="138.42499955495197" style="visibility: inherit;" fill="rgb(0, 0, 0)" stroke="rgb(204, 204, 204)" stroke-width="1px"></line><line x1="61.77000045776367" y1="118.64999961853027" x2="56.77000045776367" y2="118.64999961853027" style="visibility: inherit;" fill="rgb(0, 0, 0)" stroke="rgb(204, 204, 204)" stroke-width="1px"></line><line x1="61.77000045776367" y1="98.87499968210855" x2="56.77000045776367" y2="98.87499968210855" style="visibility: inherit;" fill="rgb(0, 0, 0)" stroke="rgb(204, 204, 204)" stroke-width="1px"></line><line x1="61.77000045776367" y1="79.09999974568684" x2="56.77000045776367" y2="79.09999974568684" style="visibility: inherit;" fill="rgb(0, 0, 0)" stroke="rgb(204, 204, 204)" stroke-width="1px"></line><line x1="61.77000045776367" y1="59.32499980926512" x2="56.77000045776367" y2="59.32499980926512" style="visibility: inherit;" fill="rgb(0, 0, 0)" stroke="rgb(204, 204, 204)" stroke-width="1px"></line><line x1="61.77000045776367" y1="39.54999987284344" x2="56.77000045776367" y2="39.54999987284344" style="visibility: inherit;" fill="rgb(0, 0, 0)" stroke="rgb(204, 204, 204)" stroke-width="1px"></line><line x1="61.77000045776367" y1="19.774999936421693" x2="56.77000045776367" y2="19.774999936421693" style="visibility: inherit;" fill="rgb(0, 0, 0)" stroke="rgb(204, 204, 204)" stroke-width="1px"></line><line x1="61.77000045776367" y1="0" x2="56.77000045776367" y2="0" style="visibility: inherit;" fill="rgb(0, 0, 0)" stroke="rgb(204, 204, 204)" stroke-width="1px"></line></g><g transform="translate(51.77000045776367, 0)"><text style="text-anchor: end; visibility: hidden; font-family: &quot;Helvetica Neue&quot;, sans-serif; font-size: 12px; font-weight: 200;" x="0" y="177.9749994277954" dx="0em" dy="0.3em" fill="rgb(50, 49, 63)" stroke="none" stroke-width="1px">-0.02</text><text style="text-anchor: end; visibility: inherit; font-family: &quot;Helvetica Neue&quot;, sans-serif; font-size: 12px; font-weight: 200;" x="0" y="158.1999994913737" dx="0em" dy="0.3em" fill="rgb(50, 49, 63)" stroke="none" stroke-width="1px">0</text><text style="text-anchor: end; visibility: hidden; font-family: &quot;Helvetica Neue&quot;, sans-serif; font-size: 12px; font-weight: 200;" x="0" y="138.42499955495197" dx="0em" dy="0.3em" fill="rgb(50, 49, 63)" stroke="none" stroke-width="1px">0.02</text><text style="text-anchor: end; visibility: inherit; font-family: &quot;Helvetica Neue&quot;, sans-serif; font-size: 12px; font-weight: 200;" x="0" y="118.64999961853027" dx="0em" dy="0.3em" fill="rgb(50, 49, 63)" stroke="none" stroke-width="1px">0.04</text><text style="text-anchor: end; visibility: hidden; font-family: &quot;Helvetica Neue&quot;, sans-serif; font-size: 12px; font-weight: 200;" x="0" y="98.87499968210855" dx="0em" dy="0.3em" fill="rgb(50, 49, 63)" stroke="none" stroke-width="1px">0.06</text><text style="text-anchor: end; visibility: inherit; font-family: &quot;Helvetica Neue&quot;, sans-serif; font-size: 12px; font-weight: 200;" x="0" y="79.09999974568684" dx="0em" dy="0.3em" fill="rgb(50, 49, 63)" stroke="none" stroke-width="1px">0.08</text><text style="text-anchor: end; visibility: hidden; font-family: &quot;Helvetica Neue&quot;, sans-serif; font-size: 12px; font-weight: 200;" x="0" y="59.32499980926512" dx="0em" dy="0.3em" fill="rgb(50, 49, 63)" stroke="none" stroke-width="1px">0.1</text><text style="text-anchor: end; visibility: inherit; font-family: &quot;Helvetica Neue&quot;, sans-serif; font-size: 12px; font-weight: 200;" x="0" y="39.54999987284344" dx="0em" dy="0.3em" fill="rgb(50, 49, 63)" stroke="none" stroke-width="1px">0.12</text><text style="text-anchor: end; visibility: hidden; font-family: &quot;Helvetica Neue&quot;, sans-serif; font-size: 12px; font-weight: 200;" x="0" y="19.774999936421693" dx="0em" dy="0.3em" fill="rgb(50, 49, 63)" stroke="none" stroke-width="1px">0.14</text><text style="text-anchor: end; visibility: hidden; font-family: &quot;Helvetica Neue&quot;, sans-serif; font-size: 12px; font-weight: 200;" x="0" y="0" dx="0em" dy="0.3em" fill="rgb(50, 49, 63)" stroke="none" stroke-width="1px">0.16</text></g><line x1="61.77000045776367" y1="0" x2="61.77000045776367" y2="177.9749994277954" fill="rgb(0, 0, 0)" stroke="rgb(204, 204, 204)" stroke-width="1px"></line></g></g><g transform="translate(61, 0)" clip-path="url(#clip_0)"><clipPath id="clip_0"><rect width="268" height="177"></rect></clipPath><g><g><g><line x1="0" y1="0" x2="0" y2="177.9749994277954" fill="rgb(0, 0, 0)" stroke="rgb(60, 60, 60)" stroke-width="1px" opacity="0.25"></line><line x1="29.803333282470703" y1="0" x2="29.803333282470703" y2="177.9749994277954" fill="rgb(0, 0, 0)" stroke="rgb(60, 60, 60)" stroke-width="1px" opacity="0.25"></line><line x1="59.606666564941406" y1="0" x2="59.606666564941406" y2="177.9749994277954" fill="rgb(0, 0, 0)" stroke="rgb(60, 60, 60)" stroke-width="1px" opacity="0.25"></line><line x1="89.40999984741211" y1="0" x2="89.40999984741211" y2="177.9749994277954" fill="rgb(0, 0, 0)" stroke="rgb(60, 60, 60)" stroke-width="1px" opacity="0.25"></line><line x1="119.21333312988281" y1="0" x2="119.21333312988281" y2="177.9749994277954" fill="rgb(0, 0, 0)" stroke="rgb(60, 60, 60)" stroke-width="1px" opacity="0.25"></line><line x1="149.01666641235352" y1="0" x2="149.01666641235352" y2="177.9749994277954" fill="rgb(0, 0, 0)" stroke="rgb(60, 60, 60)" stroke-width="1px" opacity="0.25"></line><line x1="178.81999969482422" y1="0" x2="178.81999969482422" y2="177.9749994277954" fill="rgb(0, 0, 0)" stroke="rgb(60, 60, 60)" stroke-width="1px" opacity="0.25"></line><line x1="208.62333297729492" y1="0" x2="208.62333297729492" y2="177.9749994277954" fill="rgb(0, 0, 0)" stroke="rgb(60, 60, 60)" stroke-width="1px" opacity="0.25"></line><line x1="238.42666625976562" y1="0" x2="238.42666625976562" y2="177.9749994277954" fill="rgb(0, 0, 0)" stroke="rgb(60, 60, 60)" stroke-width="1px" opacity="0.25"></line><line x1="268.2299995422363" y1="0" x2="268.2299995422363" y2="177.9749994277954" fill="rgb(0, 0, 0)" stroke="rgb(60, 60, 60)" stroke-width="1px" opacity="0.25"></line></g><g><line x1="0" y1="177.9749994277954" x2="268.2299995422363" y2="177.9749994277954" fill="rgb(0, 0, 0)" stroke="rgb(60, 60, 60)" stroke-width="1px" opacity="0.25"></line><line x1="0" y1="158.1999994913737" x2="268.2299995422363" y2="158.1999994913737" fill="rgb(0, 0, 0)" stroke="rgb(60, 60, 60)" stroke-width="1px" opacity="0.25"></line><line x1="0" y1="138.42499955495197" x2="268.2299995422363" y2="138.42499955495197" fill="rgb(0, 0, 0)" stroke="rgb(60, 60, 60)" stroke-width="1px" opacity="0.25"></line><line x1="0" y1="118.64999961853027" x2="268.2299995422363" y2="118.64999961853027" fill="rgb(0, 0, 0)" stroke="rgb(60, 60, 60)" stroke-width="1px" opacity="0.25"></line><line x1="0" y1="98.87499968210855" x2="268.2299995422363" y2="98.87499968210855" fill="rgb(0, 0, 0)" stroke="rgb(60, 60, 60)" stroke-width="1px" opacity="0.25"></line><line x1="0" y1="79.09999974568684" x2="268.2299995422363" y2="79.09999974568684" fill="rgb(0, 0, 0)" stroke="rgb(60, 60, 60)" stroke-width="1px" opacity="0.25"></line><line x1="0" y1="59.32499980926512" x2="268.2299995422363" y2="59.32499980926512" fill="rgb(0, 0, 0)" stroke="rgb(60, 60, 60)" stroke-width="1px" opacity="0.25"></line><line x1="0" y1="39.54999987284344" x2="268.2299995422363" y2="39.54999987284344" fill="rgb(0, 0, 0)" stroke="rgb(60, 60, 60)" stroke-width="1px" opacity="0.25"></line><line x1="0" y1="19.774999936421693" x2="268.2299995422363" y2="19.774999936421693" fill="rgb(0, 0, 0)" stroke="rgb(60, 60, 60)" stroke-width="1px" opacity="0.25"></line><line x1="0" y1="0" x2="268.2299995422363" y2="0" fill="rgb(0, 0, 0)" stroke="rgb(60, 60, 60)" stroke-width="1px" opacity="0.25"></line></g></g></g><g><g><line x1="0" y1="158.1999994913737" x2="268.2299995422363" y2="158.1999994913737" fill="rgb(0, 0, 0)" stroke="rgb(153, 153, 153)" stroke-width="1.5px"></line></g></g><g><g><line x1="29.803333282470703" y1="0" x2="29.803333282470703" y2="177.9749994277954" fill="rgb(0, 0, 0)" stroke="rgb(153, 153, 153)" stroke-width="1.5px"></line></g></g><g><g><g><g><g><path style="fill: none;" stroke="rgb(0, 119, 187)" stroke-width="2px" d="M30.07156328201294,148.13435027065222L30.42920328140259,142.86847773710107L30.473908281326292,142.93976498727042L30.637826614379883,144.42125840893777L30.861351613998412,145.30451868039327L30.90605661392212,141.4938995276385L31.204089946746826,142.2441465570634L32.11309161186218,144.6157581056496L32.15779661178589,146.21882710450365L32.291911611557005,146.30299483837862L33.215814943313596,148.1702049533471L33.29032327651978,149.6764504163384L33.603258275985716,150.62976373531336L33.6777666091919,151.56142788578626L33.78207827568054,151.3536055921986L33.87148827552795,152.13041652491006L34.393046607971186,152.7858291237477L34.42284994125366,153.35855500988305L34.542063274383544,154.00962082769405L34.97421160697937,154.47810612268808L35.272244939804075,154.24421274839742L36.07693493843079,154.6004567219716L36.091836605072025,154.0692916817719L36.38986993789673,146.04594517449863L36.65809993743896,146.2892543478386L36.70280493736267,144.62063506067292L36.71770660400391,143.7603341827438L36.86672327041626,143.84624819563177L37.79062660217286,140.50490492910257L38.19297160148621,136.76132979177805L38.431398267745976,138.46349148611552L38.53570993423462,138.7066673391658L38.550611600875854,136.5320252732439L39.04236660003662,136.5713765629471L39.25098993301392,137.46061377711476L39.370203266143804,137.12095882505167L39.44471159934997,136.85818022176733L39.474514932632445,136.98391885866803L39.653334932327276,135.97612180425398L39.80235159873962,138.5955948958826L40.443123264312746,138.68368417287488L40.56233659744263,141.00934457145115L40.68154993057251,141.18992422570008L41.06899326324463,142.08452347679656L41.20310826301575,140.29684769273553L41.26271492958069,142.51334233765806L41.292518262863155,144.0221873166513L41.50114159584046,146.10564269634983L41.530944929122924,147.49173882287826L41.6054532623291,147.81210715169868L41.63525659561157,147.82900255641025L41.75446992874146,148.48206956583743L41.84387992858887,148.63385012325512L41.858781595230106,145.26711310394293L42.261126594543455,138.322294386658L43.31914492607117,126.50355434853991L43.34894825935364,130.0228274924638L43.8407032585144,131.81339372833872L43.88540825843811,134.14563521503857L44.13873659133911,137.06019305408367L44.27285159111023,140.10302962261457L44.28775325775146,142.8030131086558L44.37716325759888,144.37641224144966L44.39206492424012,146.11698212351274L44.466573257446285,147.6461221404617L44.73480325698853,148.78319363481262L44.77950825691223,149.9206947231096L44.91362325668335,150.458212660625L45.64380492210388,150.43921890622494L45.68850992202759,150.02286971588904L45.777919921875,150.4293853358175L45.867329921722416,149.34003271078558L45.94183825492859,149.5741571627407L46.09085492134094,150.52104896106542L46.18026492118835,151.65252891324747L46.254773254394536,152.47924779984243L47.02965991973877,151.56575432232398L47.104168252944945,151.99012723919083L47.11906991958618,152.5202246083153L47.38729991912842,151.72796347962876L47.581021585464484,151.2271117054434L47.77474325180054,151.76297655911506L48.34100658416748,151.56732473791124L48.59433491706848,151.04061843880896L48.89236824989319,151.33120746582404L49.08608991622925,144.963720993244L49.41392658233643,143.78487602334968L49.45863158226013,145.03782432384156L49.66725491523743,144.03722216775193L49.72686158180237,143.033063133317L50.44214158058167,141.17022434570268L50.531551580429074,143.14771390764412L50.54645324707031,144.53106236324098L50.87428991317749,145.75921908360624L51.053109912872316,147.26458732869858L51.202126579284666,147.46476083619925L51.64917657852173,147.0817045069545L51.81309491157531,148.4712760433847L51.932308244705204,147.1725415021753L52.021718244552616,147.8269122035141L52.49857157707214,148.52955236941594L52.55817824363709,149.54672918904993L52.93071990966797,150.55941152633818L53.16914657592773,146.7238126027054L53.18404824256897,142.91453943020804L53.407573242187496,145.2766493530479L53.46717990875244,147.0603173541344L53.72050824165344,144.91805606432195L54.24206657409668,144.58023375268772L54.36127990722656,146.52455567794223L54.65931324005127,141.66146784166278L54.867936573028565,139.6995563013228L55.00205157279968,142.0084328382561L55.0914615726471,141.88986360882538L55.165969905853274,139.04917461490842L55.270281572341915,138.24614736709572L55.404396572113036,132.73468925528834L55.61301990509033,133.9931229478512L55.6428232383728,135.51069304570734L55.68752823829651,137.5894815891126L55.82164323806763,138.6163584406109L56.25379157066345,130.44955046502676L56.343201570510864,133.17536899978012L56.70084156990051,132.5026904470577L57.013776569366456,134.3716142570982L57.28200656890869,137.26315409292522L57.416121568679806,139.79201474938117L57.60984323501587,141.06224459740724L57.654548234939575,143.4202372569394L57.77376156806945,144.81709582547077L58.36982823371887,145.4755544442151L58.623156566619876,144.96918340319905L58.77217323303223,141.05843503377685L58.81687823295593,140.93718423846263L59.11491156578064,138.47922393016918L59.3533382320404,140.4112309017674L59.621568231582636,53.06348305227563L59.800388231277466,61.314712707735L60.053716564178465,76.57979522369745L60.14312656402588,88.73653413849138L60.50076656341553,89.7641085463599L60.694488229751585,99.147253437262L60.739193229675294,103.07004010953729L60.75409489631653,109.30594368989115L60.873308229446415,115.43579707842687L60.93291489601135,118.98444189884418L61.0372265625,117.13569707622818L61.767408227920534,121.0711319121543L61.82701489448548,124.01439464329829L61.93132656097412,124.44109146730631L62.06544156074524,-209.3248056437672L63.04895155906677,-6.69195810468571L63.12345989227295,13.720514850524125L63.138361558914184,29.43423217073473L63.21286989212036,42.384868360700864L63.39168989181519,50.10539978790811L63.436394891738885,45.082571476842446L63.51090322494507,55.888794381901775L63.79403489112854,64.60213545157386L64.0324615573883,69.52109955169378L64.18147822380067,73.79454469162147L64.36029822349548,74.82856518251013L64.7477415561676,83.8255868285677L64.88185655593871,90.04571042601758L65.40341488838196,95.14587498243351L65.4183165550232,101.59458197731392L65.44811988830567,106.19388958406661L66.10379322052002,104.12831137726143L66.2230065536499,111.01297336768349L66.35712155342102,115.64924680897929L66.3869248867035,117.8483899853703L66.46143321990967,120.50829292426846L66.83397488594055,121.35389433875525L66.84887655258179,124.46793945469162L66.99789321899414,128.08789316015802L67.02769655227661,131.45183894204652L67.10220488548278,130.61852467089113L67.31082821846009,132.63136409925255L67.40023821830749,132.39953633716297L67.5343532180786,134.5866084411799L67.75787821769714,135.39832145210107L67.81748488426209,138.0707124274778L67.84728821754456,139.01488827686237L68.21982988357544,140.55019804220422L68.54766654968262,139.6004589797554L68.63707654953004,139.36634877635265L68.89040488243104,141.40149751581995L68.97981488227843,141.0867341142535L69.36725821495057,139.5845656104981L69.70999654769898,137.56080814941606L69.81430821418762,139.2570473670548L69.8888165473938,141.87756262354603L70.08253821372986,142.15474036515891L70.1868498802185,134.92096874463635L70.63389987945556,134.37155475308296L70.84252321243287,130.4236512994231L71.3640815448761,123.05015549383265L71.37898321151734,117.26256884264713L71.39388487815857,121.67509580532852L72.60091987609863,116.60854794258427L72.73503487586976,113.79608886873332L72.86914987564087,118.82132852129362L72.95855987548829,121.97279335559907L73.31619987487792,118.26322186742473L74.01657820701598,122.79745590078294L74.13579154014587,125.19879952626974L74.67225153923034,125.78070269686174L74.91067820549011,128.21175107502498L74.95538320541382,126.33497486457769L75.0745965385437,124.03629811298427L75.11930153846741,124.53649687252783L75.47694153785706,129.33367470937762L75.53654820442199,133.47853556396257L75.98359820365906,136.29012022888745L76.32633653640747,138.43892895009193L76.54986153602601,120.10226979873212L76.81809153556824,124.98117177154099L76.90750153541565,128.4632854170561L77.14592820167542,128.31420385086926L77.41415820121765,132.84381476290156L77.4290598678589,131.66584412698688L77.9357165336609,133.23870409693376L78.08473320007325,135.89928006826366L78.12943819999695,138.13569280103974L78.14433986663818,139.11860077674874L78.17414319992065,140.6171961017896L78.18904486656189,140.5897145826865L78.56158653259277,141.0442097197045L79.05334153175355,137.99820279592888L79.39607986450194,135.56500395874548L79.64940819740296,122.8007142268028L80.11135986328125,124.64201030326254L80.51370486259461,120.94131262414695L80.58821319580079,121.30501411513569L80.91604986190796,120.6486156337197L81.19918152809143,125.31498605837844L81.2289848613739,126.31485270093893L81.42270652770996,125.29719551968888L81.66113319396973,121.39426208493832L82.09328152656556,122.20533349867723L82.13798652648926,80.4462842708141L82.51052819252014,91.54343216081163L82.89797152519225,91.57474528392466L83.15129985809327,92.40768423269523L83.44933319091797,98.28842315838851L83.71756319046021,100.10766203476089L83.74736652374268,109.02207668945778L83.77716985702516,112.69242235668513L83.86657985687255,117.23717540842821L84.28382652282716,114.36686511773196L84.49244985580444,117.02844746941037L85.32694318771362,119.13935459561068L85.38654985427857,120.77486782734249L85.50576318740845,123.92227892220295L85.55046818733214,126.54637640906026L86.01241985321045,124.03017956824003L86.13163318634034,124.1954112196336L86.3253548526764,125.3005579696734L86.39986318588257,126.19607609129045L86.63828985214234,126.24597464091481L86.7127981853485,123.87599283194052L86.74260151863098,126.48892046179925L86.89161818504333,127.23895860739597L86.95122485160827,131.7223002099213L87.3833731842041,134.0334336078297L87.56219318389893,136.1167130725946L88.33707984924315,139.08358727277988L88.44139151573182,141.95452564680667L88.50099818229675,144.52925089475448L88.66491651535034,146.53088472454147L88.75432651519776,148.1687320199707L89.17157318115234,130.8463366265544L89.55901651382446,113.22648360890733L89.73783651351928,108.0263819520379L89.90175484657287,100.51099710566697L89.94645984649658,100.00140791426576L90.795854845047,106.81369747469287L90.87036317825317,102.41321314224633L90.88526484489441,109.2741106234356L91.03428151130677,117.04894949208476L92.12210317611694,118.69524393911944L92.28602150917054,118.62114359709588L92.30092317581176,107.19633344145797L92.33072650909423,105.50518239936464L92.4052348423004,110.5117837183143L92.42013650894165,112.60529642993227L92.79267817497254,116.80985427088223L92.8671865081787,101.94878896026563L92.91189150810243,108.6471449033858L93.03110484123229,97.24200000140168L93.32913817405701,95.85890670937378L93.3738431739807,98.17297393164615L93.38874484062195,101.50652832641589L93.61226984024047,105.89706834849844L93.85069650650026,111.9168384434112L93.94010650634765,111.78619350144524L94.13382817268372,102.5292794051067L94.1636315059662,104.86392887971306L94.35735317230225,112.3836146166483L94.90871483802795,117.45845091433642L95.26635483741761,122.06757144771183L95.37066650390625,121.37604680254499L95.46007650375365,114.7905339970059L95.81771650314332,114.24587211035045L95.86242150306701,117.67737036226154L96.74161983489991,121.07715266407087L96.9949481678009,119.9728168423921L97.00984983444215,123.89806388843778L97.30788316726684,126.70557282020516L97.35258816719056,131.08517900809443L97.48670316696168,133.08005122134887L98.02316316604615,132.96732637346747L98.06786816596984,135.60148649546494L98.30629483222961,114.07601617509113L98.33609816551208,103.9444047586736L98.76824649810791,112.05541458603439L99.18549316406249,108.48056145524656L99.30470649719238,109.90667642973992L99.36431316375733,112.16661658774477L99.48352649688721,115.27635805789271L99.6474448299408,118.10882973048064L100.03488816261292,105.78801873107213L100.1093964958191,112.04080981437036L100.34782316207885,117.65931401805962L100.58624982833862,119.57337496005798L100.70546316146851,123.24874261473863L100.83957816123963,121.82110680751575L100.97369316101074,122.43972649598183L101.13761149406433,125.73599134251276L101.15251316070557,122.9900729992656L101.33133316040039,125.29780031078593L101.36113649368286,127.90747405589384L101.40584149360656,129.39337658029385L101.92739982604981,127.14819910729685L102.10621982574463,55.56303228366289L102.38935149192811,71.13914909350802L102.73208982467652,81.55143509025461L103.03012315750122,92.17320679387285L103.62618982315063,101.4517763797254L103.74540315628052,106.2244686715504L103.87951815605163,111.76610168868241L103.92422315597534,117.75971427843325L103.95402648925781,123.07561403040151L104.71401148796082,120.48244242779833L104.75871648788451,123.00414005647437L105.05674982070923,122.80309784032404L105.0865531539917,123.05443281726727L105.10145482063292,120.26586303068478L105.2057664871216,122.82406808595907L105.47399648666381,126.13557083421534L105.89124315261842,127.29833868599512L106.18927648544312,126.98677241957284L106.21907981872559,125.89353243112579L106.308489818573,115.95437148710549L106.7704414844513,117.79446656961761L107.0237698173523,119.77765171905637L107.29199981689453,124.45801845782734L107.41121315002441,128.9496532032391L107.87316481590271,131.79985516360608L108.27550981521607,133.74206483906843L108.61824814796448,136.19358928536144L109.05039648056031,138.07818145378792L109.2143148136139,138.1051646300294L109.45274147987365,140.72004912181512L109.66136481285095,139.90026030982284L109.97429981231689,138.30801509631024L110.5703664779663,137.1562237937765L110.89820314407349,67.69651111900403L110.97271147727966,77.21139547577128L111.52407314300538,80.59547697272173L111.68799147605895,88.29098062599225L111.77740147590637,96.24769185564838L111.98602480888366,101.54082709700015L112.01582814216613,96.60714151245116L112.49268147468567,105.36856684865202L112.85032147407532,101.84531756668586L113.02914147377014,104.83992446879721L113.05894480705261,104.70021924519929L113.14835480690003,105.73798688924664L113.32717480659484,112.21513953911466L113.69971647262572,116.20122923063298L114.11696313858033,119.08293326348507L114.1467664718628,118.97579180129713L114.20637313842772,124.08398458810379L114.42989813804627,126.80482913610348L115.04086647033691,114.98291284625519L115.08557147026063,103.94104786288186L115.6220314693451,109.55889077979324L115.8753598022461,113.21216582503226L115.92006480216979,112.59266742971552L116.06908146858216,113.07928537106514L116.3373114681244,113.60681950316973L116.35221313476562,114.25509042228725L116.60554146766663,119.03575660064543L116.65024646759034,124.58245321177216L117.15690313339233,125.33714303880696L117.1867064666748,122.71881452905275L117.29101813316345,115.26707332695841L117.6933631324768,113.54495478565971L117.82747813224792,116.84537046406044L118.14041313171387,116.74133079582765L118.49805313110352,120.39792804417216L118.57256146430969,119.97561515873389L118.6619714641571,124.5398705954015L119.06431646347046,125.81152909622796L119.36234979629516,122.22897797695933L119.43685812950135,120.47490751326876L119.66038312911988,125.27608627653456L119.73489146232605,127.96757479401643L120.10743312835693,131.06409105472363L120.37566312789917,133.26640868535148L120.43526979446412,134.46521282286545L120.50977812767029,103.89178827385636L120.74820479393006,112.71249445435899L120.77800812721253,118.05928449325381L121.01643479347229,124.22509492127742L121.04623812675476,120.37614221926027L121.13564812660218,120.27592090511018L121.16545145988465,123.7122353525894L121.37407479286195,128.54179919977508L121.4336814594269,126.68306673912517L121.7764197921753,123.59222298981919L121.91053479194642,122.63094070895099L122.19366645812988,116.77496261267072L122.35758479118347,121.86828055578054L122.38738812446594,72.41726259706093L122.47679812431336,86.25416584507761L122.67051979064941,97.28129575667108L122.93874979019165,90.01040240104578L123.51991478919983,99.30801408043878L123.86265312194824,80.03080448297439L123.92225978851319,84.50404367376647L123.93716145515442,89.40695126676505L124.04147312164307,98.50897956892867L124.29480145454407,100.39026418050689L124.45871978759766,106.71733120408466L124.62263812065123,110.44032168018914L124.7269497871399,114.31286619194567L124.8163597869873,119.93504662551081L125.17399978637695,120.40583138756784L125.99359145164489,119.62183051023248L126.05319811820983,116.0813713149763L126.5896581172943,116.13875273589892L126.60455978393554,118.55087574192824L126.66416645050049,119.43739178737802L126.96219978332519,119.62836559659829L126.97710144996644,116.76851319036422L126.99200311660766,106.28414005178321L127.11121644973755,88.95094481507512L127.7668897819519,98.35144016148675L127.87120144844054,103.10443146099304L127.91590644836425,108.73212454351994L128.19903811454773,109.34117704826984L129.00372811317445,114.81807378577957L129.13784311294555,116.60877357884527L129.16764644622802,109.40012188348621L129.22725311279297,111.63092947594237L129.31666311264038,107.15621222252335L129.3613681125641,111.53159022235712L129.46567977905275,118.22948251662392L129.5848931121826,124.09199075547062L129.62959811210632,124.47752203835798L129.80841811180116,119.32691588256117L130.21076311111452,119.2499508126102L130.27036977767946,118.80378499819014L130.43428811073304,123.26814682161202L130.5982064437866,123.22067856305213L131.6115197753906,126.9989888676069L131.82014310836792,127.5872154209448L131.9393564414978,123.49643592056424L132.1479797744751,34.78293822320407L132.16288144111633,44.46697889836864L132.55032477378845,62.135690178314135L132.75894810676576,70.50197701365397L133.13148977279664,75.32450071048748L133.56363810539247,82.57893868458028L133.60834310531615,91.41441028339491L133.99578643798827,91.0803759045844L134.2640164375305,101.30591415869277L134.32362310409545,107.97128950830027L134.69616477012633,112.15113598779745L134.80047643661499,119.27719683789638L135.08360810279845,107.53233639213262L135.4710514354706,112.3953253917019L135.69457643508912,114.64522244791931L135.81378976821898,104.17792899482504L135.82869143486022,110.14239551077874L136.15652810096742,83.87612769596964L136.21613476753237,86.02508333652786L136.42475810050965,86.80418890900961L137.02082476615905,94.84043163837758L137.15493976593018,43.495491489319534L137.2890547657013,24.729732175971236L137.333759765625,43.74172886329487L137.61689143180848,60.45705586064187L137.6615964317322,65.0066392530613L137.7957114315033,77.94056748891275L138.347073097229,82.6104418672809L138.58549976348877,93.42854913477726L138.74941809654234,99.24395331107364L139.01764809608457,101.46754199534209L139.16666476249696,105.979644029801L139.18156642913817,111.38551233988444L139.37528809547425,110.3579957630385L139.4497964286804,103.58758985677392L139.46469809532167,103.07479980482616L139.80743642807008,109.79550103382587L139.86704309463502,115.71647594839928L140.09056809425354,93.89551708278753L140.5376180934906,86.13188643669046L140.67173309326174,94.75942713332331L140.71643809318545,93.14546486643285L140.82074975967407,97.83254268623902L140.96976642608644,96.76988034786473L141.01447142601012,102.7776437800526L141.0889797592163,88.05450081139873L141.23799642562867,93.82744254211516L141.5956364250183,97.9702556989418L141.72975142478944,103.60620200946488L142.0128830909729,106.48318688774512L142.2662114238739,111.57771538161596L142.99639308929443,117.90598561815574L143.1901147556305,124.03848492728508L143.2348197555542,124.84545128181213L143.71167308807372,129.25004949439466L143.96500142097472,117.45460673949637L144.11401808738708,122.48221554820843L144.18852642059326,122.18834154790099L144.35244475364686,126.18798789996816L144.44185475349425,122.20065510927563L144.5461664199829,123.36659491910507L144.81439641952514,128.12036964484128L144.88890475273132,132.66888213959533L144.96341308593747,123.56697988371283L145.23164308547973,124.99563453813126L145.3955614185333,114.04781542955186L145.44026641845704,116.30609691617103L145.73829975128174,116.709069624694L145.85751308441164,107.5694417780683L146.00652975082397,105.37480334285114L146.1853497505188,108.63991038067928L146.5280880832672,104.99818945582554L146.6025964164734,108.8524274033447L147.51159808158874,112.1784184966175L147.52649974822998,112.2035616508246L148.00335308074952,115.95819625027994L148.64412474632263,115.06516207456967L148.76333807945252,120.78218052363087L148.8825514125824,118.23934007138375L148.89745307922362,119.89774122383628L149.40410974502564,113.99533461774527L149.5680280780792,115.63948689078774L149.74684807777405,118.07844320027965L150.00017641067504,106.37462145603712L150.89427640914917,113.18803333616128L151.25191640853882,114.36836669753038L151.69896640777588,119.56900231733457L151.75857307434083,124.08688487189637L151.9671964073181,129.04571772364892L152.2205247402191,129.15838571947455L152.30993474006652,126.06883002069915L152.93580473899843,117.08859237712662L153.17423140525818,115.73802663335096L153.33814973831176,118.02065370150969L153.47226473808288,120.80753465128774L153.59147807121275,118.6836492551011L153.88951140403748,124.19698770231892L153.91931473731995,127.81292546060038L153.96401973724363,129.50384680710243L153.99382307052613,130.2464118864503L154.08323307037352,126.73020994183884L154.38126640319825,126.5727004874549L154.42597140312196,131.29862839816843L154.50047973632812,134.06729103239428L154.60479140281677,100.37113389113125L154.63459473609925,86.32112217956804L155.39457973480225,88.18939027883557L155.55849806785585,96.60936459631799L155.67771140098571,106.09932138594479L155.97574473381042,103.0078119132086L155.99064640045168,109.0001943648737L156.02044973373413,106.93276882174663L156.22907306671144,106.58698613765918L156.28867973327635,99.61659136806519L156.4227947330475,108.40876547024455L156.43769639968872,116.08419280430672L156.5122047328949,122.49754271677529L156.58671306610105,124.99194656430043L156.8102380657196,129.0449025816062L157.2721897315979,79.00406819895112L157.45100973129271,87.31316288545563L157.55532139778137,82.05569751758429L157.62982973098755,62.974077633931756L157.83845306396483,77.64958362034635L157.97256806373596,82.50002208613988L158.19609306335448,74.54885190723637L158.36001139640808,87.5712477034987L158.4643230628967,98.97499424821001L158.47922472953795,108.37095901108393L158.6133397293091,115.40088324714114L159.17960306167603,116.48267382596369L159.29881639480593,122.41947083529243L159.31371806144716,123.67825828996669L159.37332472801208,121.43962918777217L159.85017806053162,-4.224344732840024L160.55055639266968,4.638266209796882L160.61016305923462,16.511085618693954L160.87839305877685,5.670611266262966L160.95290139198303,25.702925634796145L161.22113139152526,32.61648217517174L161.26583639144897,49.21021471118891L161.5787713909149,48.283299604862066L161.7426897239685,53.77984718220662L162.10032972335813,60.39754213558774L162.2046413898468,69.8416373943529L162.4579697227478,80.30217266809795L162.48777305603028,88.3927631232063L162.53247805595396,90.55286258019612L162.84541305541993,91.0454510282667L162.8752163887024,65.8926661045954L162.94972472190858,65.56489445498175L163.11364305496218,78.0903404475106L163.29246305465696,86.54377646369697L163.545791387558,77.9912487527155L163.81402138710024,86.63885236591847L163.90343138694763,92.54717327286325L163.97793972015378,88.09431358942405L164.05244805336,84.31947530321455L164.32067805290222,36.949539148618754L164.33557971954346,52.51294573553956L164.73792471885682,15.894636080031631L164.85713805198668,-41.26727478438525L165.00615471839905,-13.725583654967409L165.17007305145262,5.870361656281489L165.48300805091856,22.072782812028265L165.7512380504608,39.450393997084944L166.22809138298032,57.990488080140395L166.2429930496216,71.22394189675973L166.33240304946898,82.41314031213953L167.10728971481322,89.33267129196183L167.1370930480957,89.50570723092883L167.28610971450806,97.78212773498835L167.3904213809967,100.21989909391264L167.79276638031004,106.59023742372443L168.10570137977598,110.86984214397798L168.25471804618837,104.45610153498717L168.49314471244813,93.07099358883023L168.5229480457306,83.34193214600299L168.62725971221926,84.30587408502737L169.10411304473877,90.25372270519419L169.17862137794495,86.31013528321719L169.34253971099852,90.16521439248244L169.4170480442047,91.74516959641775L170.05781970977785,100.69873665973107L170.10252470970153,107.17330679618738L170.40055804252626,26.750533490564862L170.48996804237368,31.791794052453838L170.5048697090149,47.80986343601995L170.892313041687,61.42608780786195L170.99662470817566,75.36174941162031L171.92052803993224,47.42677612556426L171.9354297065735,48.56211381198261L172.0695447063446,53.91443953623049L172.17385637283323,52.29073898011056L172.21856137275697,49.72506446969774L172.32287303924562,63.12486474234842L172.36757803916933,74.35471753275105L172.6954147052765,9.399923409442806L172.85933303833008,32.58623980483878L173.02325137138368,30.351653882500983L173.17226803779602,44.17582871710559L173.2020713710785,51.86244926510807L173.21697303771973,64.19533900909131L173.26167803764343,78.30087370136933L173.61931803703308,86.36057559023207L173.7087280368805,97.4641693032331L174.05146636962888,88.11827021711717L174.20048303604128,95.5199052569835L174.31969636917114,97.22344465588351L174.49851636886598,97.46754298888948L175.22869803428648,103.99820787429803L175.24359970092772,99.3103106185009L175.3628130340576,108.17930427647536L175.49692803382874,110.29424385349695L176.018486366272,111.95058471425759L176.43573303222658,103.45809901529451L176.48043803215026,101.96312347441392L177.0765046977997,104.27500462659785L177.43414469718934,111.28695179924097L177.58316136360168,114.50715348407115L178.40275302886963,109.886939117121L178.5964746952057,114.05526158929058L178.76039302825927,99.51392828777811L179.0286230278015,107.68462212015504L179.565083026886,114.59876028340668L179.63959136009217,98.68450894591979L179.6544930267334,88.75682751705529L179.68429636001585,11.911095762294735L179.89291969299316,7.466473322038041L180.071739692688,21.461824557566842L180.4144780254364,37.50142335607683L180.50388802528383,48.80881354813786L180.72741302490235,57.963554316401755L180.81682302474977,68.03020627573629L180.9658396911621,74.60927750412202L181.32347969055178,84.18650587845306L181.57680802345277,85.34781492309752L181.90464468955994,94.69325903882415L182.36659635543822,102.89989610857207L182.47090802192687,110.07118936428587L182.51561302185058,115.12045511181411L182.63482635498048,114.48618534503896L182.87325302124023,103.64961232388902L182.93285968780518,104.9961983021519L183.00736802101136,101.95415419250689L183.03717135429383,52.26911371134385L183.0669746875763,55.07375178505211L183.1116796875,68.9733667520881L183.63323801994324,75.63047598863268L183.7375496864319,76.98624336980794L183.97597635269165,78.63231369934569L184.27400968551638,85.67353286735165L184.69125635147097,79.27444111233916L184.7210596847534,60.34287247202582L184.73596135139465,62.50226878191205L184.76576468467712,68.09937291325707L184.85517468452454,76.9882686308652L184.98928968429564,80.62999933429441L185.07869968414306,70.81518163341958L185.15320801734924,61.31013574600904L185.58535634994507,45.634327048946034L185.79397968292236,41.98893649538687L185.95789801597596,57.06285502030866L186.1069146823883,69.57338265953646L186.16652134895324,83.01603305459344L186.18142301559448,92.86504845083013L186.59866968154907,100.03308034769836L186.7327846813202,107.18705306999507L186.85199801445006,98.67450461556614L187.0755230140686,100.94785158880183L187.09042468070984,101.95380704993583L187.26924468040468,87.88002496349856L187.73119634628296,94.76948057628599L187.86531134605406,99.36841404466058L188.05903301239013,103.57530647129799L188.10373801231384,111.06518675855474L188.11863967895508,113.88943229351563L188.19314801216123,117.44713109316803L188.3272630119324,122.19761443244381L188.44647634506228,123.00098528992845L188.5507880115509,122.70727840851185L188.56568967819211,122.40640189586884L188.81901801109316,117.36206244883745L189.2660680103302,95.97847417806594L189.41508467674257,101.95005092184753L189.96644634246826,95.19927693797L190.1005613422394,97.48477737287136L190.1154630088806,103.42228562999816L190.20487300872804,106.19893219616239L190.44329967498777,110.47613676017049L190.54761134147643,106.33964521856755L190.96485800743105,104.55685891519455L190.97975967407226,103.28929288983025L191.11387467384338,104.95678790521266L191.18838300704954,101.1000248376222L191.35230134010314,104.5121120530571L191.48641633987427,110.29241715701792L191.69503967285155,107.98286158268607L191.85895800590515,89.68221213744114L192.2613030052185,95.1459081089134L192.30600800514222,102.87127856438192L192.44012300491332,103.27762728454849L192.8126646709442,75.67424172244715L192.87227133750915,77.74390413224482L193.00638633728025,56.51699785045409L193.2150096702576,70.52396966574092L193.30441967010498,78.35474452422231L193.33422300338745,83.55944798086823L193.84087966918946,90.70195535052538L193.93028966903685,99.80280430983883L194.0196996688843,101.91522980837546L194.04950300216674,106.89125783936224L194.06440466880798,107.52722310118851L194.21342133522035,103.16541904130598L194.28792966842653,109.8543803319737L194.4965530014038,110.48189371796023L194.6306680011749,115.95186758931982L194.8690946674347,94.02140315121743L195.24163633346558,96.4429711859867L195.52476799964904,100.42775593327288L195.65888299942017,92.33409051564162L195.9271129989624,97.40874946232687L196.19534299850463,102.65132054858282L196.32945799827576,99.58013117258605L196.67219633102417,106.7024250366046L196.70199966430664,108.41811207526771L196.71690133094788,109.88096459748594L197.47688632965088,106.42686740739391L197.59609966278077,112.36174821186219L197.64080466270448,113.21437246772962L197.77491966247558,117.07614850885619L198.0282479953766,112.70021181446721L198.34118299484254,113.33850103043721L198.56470799446106,113.28102468360234L198.80313466072081,95.82986807891781L199.10116799354554,100.21578501737972L199.2054796600342,105.97632531199552L199.30979132652283,106.46865948279375L199.38429965972898,99.72305741423449L199.8462513256073,94.7193817066542L199.9654646587372,104.02044025809465L199.99526799201965,105.19278736323919L200.50192465782166,110.78517615956795L200.54662965774537,115.82315571237595L200.75525299072265,104.61157740763034L200.79995799064636,88.5437925324092L200.96387632369996,98.75209704114326L201.05328632354735,107.18555508473997L201.47053298950195,108.34828505018717L201.51523798942566,108.72309106318808L201.5301396560669,112.25535910703424L201.6195496559143,116.21011787165827L201.64935298919679,113.14571529414441L201.90268132209778,115.52729543736234L202.02189465522767,122.25955565489592L202.1560096549988,116.15581491178773L202.3795346546173,108.7592886159955L202.61796132087707,105.17587048882403L203.19912631988524,61.254229500970425L203.37794631958008,60.8959614896995L203.40774965286255,74.8706598262845L203.55676631927489,35.5688509978838L203.7206846523285,33.942948582727524L203.8249963188171,51.56966115876783L203.9293079853058,33.40066773066698L203.95911131858827,44.83771416301229L204.21243965148926,52.63539199323682L204.49557131767273,62.501823905032836L205.0320313167572,76.26921027984797L205.18104798316955,85.0294555040752L205.43437631607054,78.65815728075032L205.523786315918,75.90393181103816L205.6579013156891,85.61329405277108L206.10495131492615,63.878885346931554L206.44768964767457,43.42367491923912L206.4625913143158,39.94024425004386L206.73082131385803,57.36560556653062L207.14806797981262,-5.963026242066292L207.4311996459961,-7.296080380466236L207.62492131233216,17.076562428501347L207.74413464546203,30.000303050497337L207.8186429786682,38.06847538671013L207.84844631195068,49.39575005364395L207.86334797859192,48.26843465380341L208.16138131141665,58.53888953173862L208.2358896446228,70.59238256644221L208.44451297760008,82.45479579931722L208.59352964401245,74.2720682782503L208.66803797721863,83.08765005512423L208.77234964370726,89.7234983826132L209.05548130989075,92.93090744358297L209.23430130958556,99.00810019716552L209.7558596420288,104.10586459713146L209.8899746417999,101.32599232043229L210.60525464057923,105.03921657327167L210.6797629737854,108.16764780119718L210.90328797340393,99.32887963190952L211.0672063064575,98.92992794687439L211.12681297302245,70.30200844854117L211.36523963928224,57.423296263839575L211.55896130561828,70.21239299492797L211.856994638443,74.05149658941217L211.9911096382141,78.56872139204904L212.110322971344,88.32035989028519L212.4083563041687,77.97208163631305L212.64678297042846,88.31833787448315L212.94481630325316,92.60038607981008L212.98952130317687,83.78791832110456L213.22794796943666,93.56624132459115L213.4663746356964,101.98590252954705L213.63029296874998,98.03185979514534L214.52439296722412,91.0133693919035L214.65850796699524,91.30014566573837L214.67340963363648,93.61023274062963L215.12045963287355,101.9106319838928L215.40359129905698,108.2996331142962L215.4482962989807,112.92114952873872L215.77613296508787,117.53839855583296L216.43180629730224,98.3029270003694L216.74474129676818,103.46298663906316L216.8341512966156,108.33620426673919L216.86395462989807,101.59938639778488L217.176889629364,105.50924251881302L217.5047262954712,102.73390519177833L217.93687462806702,67.70401293722729L218.62235129356384,64.20580059375749L218.86077795982362,76.81684104234479L219.03959795951843,78.55689958512916L219.91879629135133,87.35257381398695L220.1572229576111,87.77337559698404L220.61917462348939,87.25720506766193L220.73838795661928,89.94148815297221L221.05132295608522,98.87300943461733L221.4238646221161,107.46302246771324L221.49837295532228,114.25809634430746L221.69209462165833,113.16187760858469L221.88581628799437,112.91564097805242L221.97522628784182,116.1174344549376L222.6010962867737,117.97848713690126L222.61599795341493,100.89811239264664L222.6905062866211,63.34389683586143L222.91403128623963,76.78436853971715L223.3610812854767,83.20490649019874L223.77832795143127,89.79149338140974L224.03165628433226,97.4206737040646L224.43400128364564,89.19226486164305L224.44890295028685,92.44190329147337L224.56811628341674,86.12057480845966L224.74693628311158,92.35717875924765L224.7916412830353,99.68809519025646L224.92575628280642,104.27090948808707L225.1492812824249,108.24685122676624L225.20888794898985,112.40101377335445L225.23869128227236,113.94668132634115L225.46221628189085,117.21069642046137L225.7304462814331,122.98587084314507L225.99867628097533,124.02701276764975L226.22220128059385,128.07366804250265L226.37121794700624,126.02786200820681L226.41592294692995,118.27388012463962L226.59474294662473,116.3994212818055L226.609644613266,112.46048311675143L226.66925127983095,104.93772494774944L227.0864979457855,105.11992009988788L227.47394127845763,109.17899639837522L227.9656962776184,114.54769613877113L228.04020461082456,120.68080454167944L228.18922127723695,117.91198682073437L228.7256812763214,120.97428332722563L228.8001896095276,122.77055319971707L229.5154696083069,126.00393876099074L229.57507627487183,129.0331454730814L229.87310960769653,123.89719731683277L230.58838960647583,119.64084915370022L230.6032912731171,119.5523831998243L230.99073460578919,118.50038060291486L231.03543960571287,117.9511117942904L231.66130960464477,122.51681663130586L231.89973627090453,126.66109262381192L232.4212946033478,125.64511078676739L232.6448196029663,126.26532826297907L232.76403293609619,122.9497345426308L232.83854126930237,124.94897940932678L232.85344293594358,116.24358634096706L233.34519793510435,119.26451384532174L233.59852626800537,111.84762000842682L233.64323126792908,115.3480676400945L233.6879362678528,119.65189643491169L233.88165793418884,123.90256840117833L234.2840029335022,109.24095363531231L234.55223293304445,110.04396375522414L234.65654459953308,114.42377873870458L234.76085626602173,119.286936462169L234.9992829322815,115.9191198919828L235.0886929321289,108.4333336148133L235.40162793159485,111.97243120754695L235.5953495979309,115.98772681201075L235.7592679309845,120.07680119399693L236.11690793037417,111.88013525431217L236.45964626312255,81.49675627102924L236.50435126304626,81.67282319120937L236.69807292938233,92.03909765366603L236.75767959594728,99.39162200847292L236.84708959579467,55.246719585856255L237.1600245952606,66.91482867065218L237.33884459495545,80.59489452234692L237.4878612613678,85.84564876193899L237.50276292800905,95.29821268975412L237.78589459419248,103.92357287845054L237.83059959411622,107.70104473400873L237.9498129272461,111.4563142709096L237.96471459388732,115.52634299025397L237.97961626052856,116.29246714123934L238.06902626037598,117.33683302842181L238.3670595932007,120.86521542456393L238.39686292648315,118.93410194860172L238.66509292602538,118.19576766086735L239.11214292526248,119.30514778445567L239.15684792518616,117.89151876527316L239.41017625808715,117.21996814469728L239.61879959106446,118.01331954270458L239.70820959091188,117.78879569860325L239.90193125724792,109.81585105765069" fill="none"></path></g></g></g></g><g opacity="0.2"><g><g><g><path style="fill: none;" stroke="rgb(0, 119, 187)" stroke-width="2px" d="M30.07156328201294,148.13435027065222L30.42920328140259,138.46094242651878L30.473908281326292,143.04937405322605L30.637826614379883,147.56786932923885L30.861351613998412,147.61401656522534L30.90605661392212,129.96472189728138L31.204089946746826,144.7720111261796L32.11309161186218,153.2891399059396L32.15779661178589,152.46766956390871L32.291911611557005,146.64805456231903L33.215814943313596,156.14024513717953L33.29032327651978,156.3184942921851L33.603258275985716,154.9462643685044L33.6777666091919,155.8720947868568L33.78207827568054,150.3748310836316L33.87148827552795,155.84279142092367L34.393046607971186,155.95607172462678L34.42284994125366,156.15665551935848L34.542063274383544,157.21692335034993L34.97421160697937,156.80191396126696L35.272244939804075,153.07738050373814L36.07693493843079,156.38615523440845L36.091836605072025,151.39619159375277L36.38986993789673,105.53429192162831L36.65809993743896,147.5211769528983L36.70280493736267,136.15256401410156L36.71770660400391,139.38597193976483L36.86672327041626,144.28379834276416L37.79062660217286,123.46490847931999L38.19297160148621,117.64855925520615L38.431398267745976,147.16203443591633L38.53570993423462,139.9503450665321L38.550611600875854,125.40290085495248L39.04236660003662,136.77287480294402L39.25098993301392,142.01604946193882L39.370203266143804,135.380284301419L39.44471159934997,135.5110498438522L39.474514932632445,137.62868990812666L39.653334932327276,130.80710555448346L39.80235159873962,152.0334758616095L40.443123264312746,139.13565306596462L40.56233659744263,152.9434329807416L40.68154993057251,142.11666837445372L41.06899326324463,146.67607864406816L41.20310826301575,131.12084119501387L41.26271492958069,153.8911825074269L41.292518262863155,151.7678995038116L41.50114159584046,156.80162516119339L41.530944929122924,154.6079094713248L41.6054532623291,149.45691970372505L41.63525659561157,147.91574806782384L41.75446992874146,151.83516448260207L41.84387992858887,149.41316390270396L41.858781595230106,127.98040916676618L42.261126594543455,102.66325867957337L43.31914492607117,65.8180987924195L43.34894825935364,148.09333674661497L43.8407032585144,141.00753428183307L43.88540825843811,146.12122889828368L44.13873659133911,152.02594518962368L44.27285159111023,155.72754119914214L44.28775325775146,156.6670774773425L44.37716325759888,152.45563780062105L44.39206492424012,155.05463403500616L44.466573257446285,155.49812021635614L44.73480325698853,154.62196548255733L44.77950825691223,155.76168153466114L44.91362325668335,153.21833243569287L45.64380492210388,150.34168710261108L45.68850992202759,147.884939350212L45.777919921875,152.51682243860415L45.867329921722416,143.74625864491188L45.94183825492859,150.7763757592014L46.09085492134094,155.38329818758916L46.18026492118835,157.462632645774L46.254773254394536,156.72441712622356L47.02965991973877,146.87499962259315L47.104168252944945,154.1692667054771L47.11906991958618,155.24225578259424L47.38729991912842,147.65973008312608L47.581021585464484,148.65525490009856L47.77474325180054,154.5146246303471L48.34100658416748,150.56265910054285L48.59433491706848,148.33599879263795L48.89236824989319,152.823372724096L49.08608991622925,112.26688211246915L49.41392658233643,137.73154463276944L49.45863158226013,151.4716741950428L49.66725491523743,138.89916160357785L49.72686158180237,137.8767379776817L50.44214158058167,131.6046053753034L50.531551580429074,153.30206120568346L50.54645324707031,151.6345136963826L50.87428991317749,152.06576575871378L51.053109912872316,154.99460666921897L51.202126579284666,148.4926456100569L51.64917657852173,145.1147220815432L51.81309491157531,155.60668303013708L51.932308244705204,140.5035796498486L52.021718244552616,151.18708560697402L52.49857157707214,152.13758800036288L52.55817824363709,154.76990087424213L52.93071990966797,155.759504196203L53.16914657592773,127.02813000257804L53.18404824256897,123.35403871812005L53.407573242187496,157.40601125614324L53.46717990875244,156.21939776698503L53.72050824165344,133.9176101139687L54.24206657409668,142.84552655292015L54.36127990722656,156.50858908464383L54.65931324005127,116.68966105577294L54.867936573028565,129.62520074966525L55.00205157279968,153.86444300472152L55.0914615726471,141.28101425391984L55.165969905853274,124.46232379147304L55.270281572341915,134.12262708766931L55.404396572113036,104.43352094504768L55.61301990509033,140.4551413510227L55.6428232383728,143.30336894103547L55.68752823829651,148.2639969861763L55.82164323806763,143.8893395709521L56.25379157066345,88.51324204470703L56.343201570510864,147.17236355644272L56.70084156990051,129.04850671421977L57.013776569366456,143.9684806901927L57.28200656890869,152.11112244910237L57.416121568679806,152.77763664548806L57.60984323501587,147.58483590191418L57.654548234939575,155.52845723101802L57.77376156806945,151.98992172568563L58.36982823371887,148.85671925304575L58.623156566619876,142.36898364063168L58.77217323303223,120.97686211966655L58.81687823295593,140.31456512390656L59.11491156578064,125.85767314519535L59.3533382320404,150.33202743653976L59.621568231582636,-395.46452276221396L59.800388231277466,103.6845238822171L60.053716564178465,154.9655256873999L60.14312656402588,151.16101555872376L60.50076656341553,95.0406716099972L60.694488229751585,147.3294146249013L60.739193229675294,123.213429340577L60.75409489631653,141.32711728933708L60.873308229446415,146.91240619601064L60.93291489601135,137.20662419743778L61.0372265625,107.64244912210846L61.767408227920534,141.2794690756865L61.82701489448548,139.12795848353448L61.93132656097412,126.63216656972114L62.06544156074524,-1923.202449087033L62.393278226852416,103.13499662164638L62.45288489341736,129.16973966721824L62.57209822654724,69.90925928155085L62.691311559677125,91.52140755285743L62.75091822624207,51.05485819331365L63.04895155906677,146.89432540065215L63.12345989227295,118.537937325972L63.138361558914184,110.12368859409753L63.21286989212036,108.88598793736382L63.39168989181519,89.7500918404827L63.436394891738885,19.29050217401786L63.51090322494507,111.37841752013446L63.79403489112854,109.34487456392763L64.0324615573883,94.77982931733493L64.18147822380067,95.73855439787191L64.36029822349548,80.13822868480271L64.7477415561676,130.02501699880835L64.88185655593871,121.98585429758211L65.40341488838196,121.3350635328616L65.4183165550232,134.70849458292437L65.44811988830567,129.81119306168486L66.10379322052002,93.52163064661194L66.2230065536499,146.36550150254868L66.35712155342102,139.4563687130556L66.3869248867035,129.1409227377582L66.46143321990967,134.16681292339536L66.83397488594055,125.69603166345124L66.84887655258179,140.4584656021683L66.99789321899414,146.67624439620283L67.02769655227661,148.72559734352296L67.10220488548278,126.33948145029564L67.31082821846009,142.96723282034765L67.40023821830749,131.209107890114L67.5343532180786,145.81715660720536L67.75787821769714,139.56644286400905L67.81748488426209,151.79335811085392L67.84728821754456,143.8632023010028L68.21982988357544,148.4339665918431L68.54766654968262,134.72357802718065L68.63707654953004,138.16420006317426L68.89040488243104,151.85192386510903L68.97981488227843,139.47043370252877L69.36725821495057,131.8709764225026L69.70999654769898,127.16887566520961L69.81430821418762,147.96718371775196L69.8888165473938,155.33382808172487L70.08253821372986,143.57803956595637L70.1868498802185,97.77577336808794L70.63389987945556,131.55033075964624L70.84252321243287,110.15128816621284L71.3640815448761,85.18748071297846L71.37898321151734,87.54348892214239L71.39388487815857,144.33328640510973L72.60091987609863,90.5919800829711L72.73503487586976,99.35419779625943L72.86914987564087,144.62577998873513L72.95855987548829,138.15546860905718L73.31619987487792,99.21468606618606L74.01657820701598,146.0806085751437L74.13579154014587,137.52962538229704L74.67225153923034,128.76875762806117L74.91067820549011,140.69510992485706L74.95538320541382,116.69778659375325L75.0745965385437,112.23266350510877L75.11930153846741,127.10500215926385L75.47694153785706,153.96703574890697L75.53654820442199,154.76226890928513L75.98359820365906,150.72752123834837L76.32633653640747,149.47299581909903L76.54986153602601,25.94408753070664L76.81809153556824,150.0341837423448L76.90750153541565,146.34383217347428L77.14592820167542,127.54867458155402L77.41415820121765,156.1032278510673L77.4290598678589,125.61700104563377L77.9357165336609,141.31529179537256L78.08473320007325,149.56125606828283L78.12943819999695,149.61960358222728L78.14433986663818,144.1658030814632L78.17414319992065,148.31243712669257L78.18904486656189,140.44859782508343L78.56158653259277,143.37802830672322L79.05334153175355,122.3570506781364L79.39607986450194,123.07060256780994L79.64940819740296,57.25647799590685L80.11135986328125,134.09700917440864L80.51370486259461,101.93834356022205L80.58821319580079,123.17261011487541L80.91604986190796,117.27802956657138L81.19918152809143,149.27665504880395L81.2289848613739,131.4491372397311L81.42270652770996,120.07155711044794L81.66113319396973,101.35281861937867L82.09328152656556,126.37016032873531L82.13798652648926,-133.98515256183265L82.51052819252014,148.52694617263944L82.89797152519225,91.73553721058491L83.15129985809327,96.68480018435754L83.44933319091797,128.48583715105894L83.71756319046021,109.44939786005955L83.74736652374268,154.79732249302398L83.77716985702516,131.53953477060713L83.86657985687255,140.5743429195261L84.28382652282716,99.62790982133475L84.49244985580444,130.69559120164865L85.32694318771362,129.97879793689685L85.38654985427857,129.17317810316774L85.50576318740845,140.08413834795886L85.55046818733214,140.02103651028455L86.01241985321045,111.10958597458041L86.13163318634034,125.043870681084L86.3253548526764,130.97545263092076L86.39986318588257,130.79453417591284L86.63828985214234,126.50220216260558L86.7127981853485,111.7062089416861L86.74260151863098,139.90622368996952L86.89161818504333,131.09038147773006L86.95122485160827,154.74412181307278L87.3833731842041,145.90103271242677L87.56219318389893,146.81428921988427L88.33707984924315,154.31839528232032L88.44139151573182,156.69670613183993L88.50099818229675,157.7503860636644L88.66491651535034,156.8092130406868L88.75432651519776,156.57902764128525L89.17157318115234,41.89636764318368L89.55901651382446,22.74907884957858L89.73783651351928,81.32401945633407L89.90175484657287,61.919726452829835L89.94645984649658,97.38468304799076L90.795854845047,141.7945954015487L90.87036317825317,79.81686107931529L90.88526484489441,144.5046087323646L91.03428151130677,156.9725085906083L92.12210317611694,127.14891542481286L92.28602150917054,118.24064061382148L92.30092317581176,48.53028374655656L92.33072650909423,96.82117367401422L92.4052348423004,136.22052791439327L92.42013650894165,123.3554199859091L92.79267817497254,138.40012980999347L92.8671865081787,25.637674451148513L92.91189150810243,143.04299720026665L93.03110484123229,38.67693078078392L93.32913817405701,88.75676508098518L93.3738431739807,110.0556381343577L93.38874484062195,118.62422788728863L93.61226984024047,128.4423566827505L93.85069650650026,142.8281732252639L93.94010650634765,111.11533573196357L94.13382817268372,54.995309474828474L94.1636315059662,116.85228231680209L94.35735317230225,150.99697021060413L94.90871483802795,143.5175796331399L95.26635483741761,145.73526400252902L95.37066650390625,117.82508896202569L95.46007650375365,80.97412775015786L95.81771650314332,111.44905002979459L95.86242150306701,135.2980086251425L96.74161983489991,138.53493049606107L96.9949481678009,114.30208627340359L97.00984983444215,144.05408706353117L97.30788316726684,141.12204506492492L97.35258816719056,153.57432243915767L97.48670316696168,143.32365884401122L98.02316316604615,132.38848773741387L98.06786816596984,149.1278179194642L98.30629483222961,3.5433863704722626L98.33609816551208,51.91889092099588L98.76824649810791,153.70520124554957L99.18549316406249,90.12380028672264L99.30470649719238,117.22973307790514L99.36431316375733,123.77133997578198L99.48352649688721,131.2447851162596L99.6474448299408,132.65348488358555L100.03488816261292,42.521032188097166L100.1093964958191,144.14870022369934L100.34782316207885,146.5101607572492L100.58624982833862,129.40201918369362L100.70546316146851,142.12164278018463L100.83957816123963,114.49024072993565L100.97369316101074,125.61631962019119L101.13761149406433,142.6622102170305L101.15251316070557,108.88986653731543L101.33133316040039,137.14790926626142L101.36113649368286,141.30806868568106L101.40584149360656,137.02344046325587L101.92739982604981,115.61928165393188L102.10621982574463,-312.0246034916844L102.38935149192811,151.12203111706862L102.73208982467652,135.01820428827233L103.03012315750122,146.71567867073463L103.62618982315063,149.09694658437925L103.74540315628052,130.73209718846766L103.87951815605163,140.22221724291242L103.92422315597534,148.53673107365697L103.95402648925781,150.37259619234894L104.71401148796082,107.1665857935722L104.75871648788451,135.95298002703782L105.05674982070923,121.77075222733117L105.0865531539917,124.34503021420892L105.10145482063292,105.94664271553432L105.2057664871216,135.96037257224475L105.47399648666381,143.14003586667238L105.89124315261842,133.26911593715874L106.18927648544312,125.38688919874198L106.21907981872559,120.27977862541911L106.308489818573,64.91708492179882L106.7704414844513,127.24329837368285L107.0237698173523,129.96124662752416L107.29199981689453,148.49155809188434L107.41121315002441,152.01405984072161L107.87316481590271,146.43555480058262L108.27550981521607,143.7152519455836L108.61824814796448,148.78209211693974L109.05039648056031,147.75550442908224L109.2143148136139,138.24372241232464L109.45274147987365,154.14740077595405L109.66136481285095,135.6906699071384L109.97429981231689,130.13188476680085L110.5703664779663,131.24181078628723L110.89820314407349,-288.97698279991954L110.97271147727966,126.07003478015287L111.52407314300538,97.97263165338131L111.68799147605895,127.80715582714222L111.77740147590637,137.10515994903596L111.98602480888366,128.72091419522974L112.01582814216613,71.2728173758407L112.49268147468567,150.35821719466506L112.85032147407532,83.75354057892088L113.02914147377014,120.21713905203154L113.05894480705261,103.98283720746035L113.14835480690003,111.06689190806651L113.32717480659484,145.47511971052282L113.69971647262572,136.66967752388956L114.11696313858033,133.8803950763513L114.1467664718628,118.42562367950993L114.20637313842772,150.3143978553257L114.42989813804627,140.7762824285927L115.04086647033691,54.27773533335329L115.08557147026063,47.24140988077468L115.6220314693451,138.40634183166338L115.8753598022461,131.9716211186829L115.92006480216979,109.41156217278228L116.06908146858216,115.57805357296473L116.3373114681244,116.31569108949827L116.35221313476562,117.58394170634469L116.60554146766663,143.58433078031283L116.65024646759034,153.06457016584002L117.15690313339233,129.21245215063598L117.1867064666748,109.2737779482904L117.29101813316345,77.0026108352224L117.6933631324768,104.7019289018131L117.82747813224792,133.7929037329034L118.14041313171387,116.20709029085313L118.49805313110352,139.1744427488615L118.57256146430969,117.80705144639126L118.6619714641571,147.9771822548542L119.06431646347046,132.3414564900424L119.36234979629516,103.832687873721L119.43685812950135,111.46780948806008L119.66038312911988,149.92999195048225L119.73489146232605,141.78828577028838L120.10743312835693,146.96460706829387L120.37566312789917,144.57524216286993L120.43526979446412,140.62103529586665L120.50977812767029,-53.1018089501965L120.74820479393006,158.00655011743083L120.77800812721253,145.51488733101434L121.01643479347229,155.8863423338894L121.04623812675476,100.61188816043607L121.13564812660218,119.76128753122282L121.16545145988465,141.35760463197667L121.37407479286195,153.3414614089431L121.4336814594269,117.13853257002108L121.7764197921753,107.72083514829103L121.91053479194642,117.69478568387922L122.19366645812988,86.70469471950143L122.35758479118347,148.02231195690274L122.38738812446594,-181.5121977185728L122.47679812431336,157.30623957875844L122.67051979064941,153.90526959718466L122.93874979019165,52.67458805344846L123.51991478919983,147.05096485130957L123.86265312194824,-18.957075474557428L123.92225978851319,107.47398970255766L123.93716145515442,114.5832313608743L124.04147312164307,145.2476156972167L124.29480145454407,110.05060295284407L124.45871978759766,139.20662628834603L124.62263812065123,129.55776357282375L124.7269497871399,134.19826347010653L124.8163597869873,148.8047706923453L125.17399978637695,122.82329669948021L125.99359145164489,115.5960100542222L126.05319811820983,97.90122195037856L126.5896581172943,116.43340457217028L126.60455978393554,130.93705338638554L126.66416645050049,123.98962448701887L126.96219978332519,120.60901024885212L126.97710144996644,102.08325880988613L126.99200311660766,52.447205591707785L127.11121644973755,-0.05448103231555024L127.7668897819519,146.6226954065575L127.87120144844054,127.51089598667872L127.91590644836425,137.63015589367342L128.19903811454773,112.46864297756841L129.00372811317445,142.94177052992458L129.13784311294555,125.8039620867961L129.16764644622802,72.38391655210256L129.22725311279297,123.08605803352404L129.31666311264038,84.1786763874822L129.3613681125641,133.99902203745447L129.46567977905275,152.6229539908651L129.5848931121826,154.19579073040734L129.62959811210632,126.4572133498715L129.80841811180116,92.87871126659854L130.21076311111452,118.85473753930367L130.27036977767946,116.51273722721095L130.43428811073304,146.19250784126908L130.5982064437866,122.97693051142869L131.6115197753906,146.4004963824065L131.82014310836792,130.60774072857558L131.9393564414978,102.49040867014384L132.1479797744751,-420.7581511798047L132.16288144111633,94.19423070887613L132.55032477378845,152.86398061582588L132.75894810676576,113.46260327855849L133.13148977279664,100.08801196355292L133.56363810539247,119.83025515277455L133.60834310531615,136.78428591657183L133.99578643798827,89.36511961584574L134.2640164375305,153.8137394267216L134.32362310409545,142.19778746916822L134.69616477012633,133.6145194438658L134.80047643661499,155.86930071233087L135.08360810279845,47.22283827492848L135.4710514354706,137.36662473304852L135.69457643508912,126.19837481634852L135.81378976821898,50.428698195807215L135.82869143486022,140.7697481111054L136.15652810096742,-51.00035181933836L136.21613476753237,97.05990463190962L136.42475810050965,90.8048721247596L137.02082476615905,136.10629154316885L137.15493976593018,-220.1592011779295L137.2890547657013,-71.63186626128353L137.333759765625,141.36774866261936L137.61689143180848,146.28974725192683L137.6615964317322,88.3686104153623L137.7957114315033,144.35589223374507L138.347073097229,106.59010355252103L138.58549976348877,148.97919810958993L138.74941809654234,129.10587536972437L139.01764809608457,112.88560168081864L139.16666476249696,129.14914956870967L139.18156642913817,139.14448028798174L139.37528809547425,105.08172965984788L139.4497964286804,68.82176320926804L139.46469809532167,100.44163861783069L139.80743642807008,144.30609568825997L139.86704309463502,146.12050050973627L140.09056809425354,-18.154437337562257L140.5376180934906,46.26588121716148L140.67173309326174,139.06158396204535L140.71643809318545,84.85781813399528L140.82074975967407,121.9005435155505L140.96976642608644,91.31314183731702L141.01447142601012,133.62732471711536L141.0889797592163,12.451613297513603L141.23799642562867,123.47132124524188L141.5956364250183,119.24347417908834L141.72975142478944,132.5466134322123L142.0128830909729,121.2564159866443L142.2662114238739,137.73796292376247L142.99639308929443,150.40145916406863L143.1901147556305,155.52868076618856L143.2348197555542,128.98919875873935L143.71167308807372,151.86752620563138L143.96500142097472,56.88537001649105L144.11401808738708,148.29883255981576L144.18852642059326,120.67930757086211L144.35244475364686,146.72604922929472L144.44185475349425,101.72582353989141L144.5461664199829,129.3536600775543L144.81439641952514,152.53085704018596L144.88890475273132,156.02535427523443L144.96341308593747,76.82899099921178L145.23164308547973,132.33173236480758L145.3955614185333,57.83110012966878L145.44026641845704,127.90230307752218L145.73829975128174,118.77832212183345L145.85751308441164,60.63773314232772L146.00652975082397,94.10540229820845L146.1853497505188,125.4061348632692L146.5280880832672,86.2980642159324L146.6025964164734,128.6438210356977L147.51159808158874,129.25728073630654L147.52649974822998,112.33267097641573L148.00335308074952,135.2381297456426L148.64412474632263,110.47945897598387L148.76333807945252,150.138894890896L148.8825514125824,105.1819323503357L148.89745307922362,128.41358027047892L149.40410974502564,83.68665775088537L149.5680280780792,124.08215837874195L149.74684807777405,130.6024090349099L150.00017641067504,46.27585581228868L150.89427640914917,148.17469434023437L151.25191640853882,120.42934230161589L151.69896640777588,146.27410669632897L151.75857307434083,147.2860732042169L151.9671964073181,154.50917230596116L152.2205247402191,129.73693242196555L152.30993474006652,110.20405627913478L152.93580473899843,70.97534754479399L153.17423140525818,108.80291296746006L153.33814973831176,129.74187367726952L153.47226473808288,135.11808284125232L153.59147807121275,107.77756289554155L153.88951140403748,152.5078115079711L153.91931473731995,146.3806549310396L153.96401973724363,138.18667605263744L153.99382307052613,134.0594607908315L154.08323307037352,108.67462081521442L154.38126640319825,125.76389427077176L154.42597140312196,155.56612325256853L154.50047973632812,148.28428873084243L154.60479140281677,-72.6575994048022L154.63459473609925,14.174743022645231L155.39457973480225,97.78288965973707L155.55849806785585,139.84567443516937L155.67771140098571,154.82995839770942L155.97574473381042,87.13300560228716L155.99064640045168,139.77089443876136L156.02044973373413,96.31660207575065L156.22907306671144,104.81140266170091L156.28867973327635,63.82382804199054L156.4227947330475,153.55630978634346L156.43769639968872,155.49727672215963L156.5122047328949,155.42989778877657L156.58671306610105,137.8006338058866L156.8102380657196,149.85670740666717L157.2721897315979,-177.95408136106306L157.45100973129271,129.98010922045125L157.55532139778137,55.05877412550872L157.62982973098755,-35.00945514286067L157.83845306396483,153.00785669169L157.97256806373596,107.40687482153362L158.19609306335448,33.71983693949261L158.36001139640808,154.4408506573121L158.4643230628967,157.53288294712632L158.47922472953795,156.6189498486635L158.6133397293091,151.4993285574471L159.17960306167603,122.03763526445749L159.29881639480593,152.90474136785772L159.31371806144716,130.14209325660704L159.37332472801208,109.9443374176076L159.85017806053162,-649.504996092057L160.55055639266968,50.14750154100571L160.61016305923462,77.47764908646602L160.87839305877685,-49.99489200358198L160.95290139198303,128.5682454290432L161.22113139152526,68.11738293771371L161.26583639144897,134.41852227343654L161.5787713909149,43.52361896685238L161.7426897239685,82.0044503861169L162.10032972335813,94.37920272442226L162.2046413898468,118.33677685193837L162.4579697227478,134.01670042346373L162.48777305603028,129.9376969325663L162.53247805595396,101.6449070311193L162.84541305541993,93.57487759903407L162.8752163887024,-63.26611292063686L162.94972472190858,63.88179708856079L163.11364305496218,142.40812140301142L163.29246305465696,129.95191109896066L163.545791387558,34.07428130430148L163.81402138710024,131.04403165580118L163.90343138694763,122.88621989318713L163.97793972015378,65.22901570575156L164.05244805336,64.93579649611428L164.32067805290222,-206.2936299397045L164.33557971954346,132.43056115426788L164.73792471885682,-172.13926073996907L164.85713805198668,-334.7919336403173L165.00615471839905,127.700155457442L165.17007305145262,106.49493972692763L165.48300805091856,105.2717184400038L165.7512380504608,128.6838943767932L166.22809138298032,153.19330248208774L166.2429930496216,139.17732131093385L166.33240304946898,139.8693309481696L167.10728971481322,124.86425061779781L167.1370930480957,90.39424146967352L167.28610971450806,140.28129314540428L167.3904213809967,112.73778024372643L167.79276638031004,139.30172933815672L168.10570137977598,132.8454811062615L168.25471804618837,71.5217402483288L168.49314471244813,34.608813521754456L168.5229480457306,33.38350007455281L168.62725971221926,89.25568637314642L169.10411304473877,120.79574292040664L169.17862137794495,66.05993484030465L169.34253971099852,109.9609273645991L169.4170480442047,99.85819110374202L170.05781970977785,146.6750288805485L170.10252470970153,140.42002584044462L170.40055804252626,-386.21794047757044L170.48996804237368,57.67851239785921L170.5048697090149,130.06215836881034L170.892313041687,131.34498228167627L170.99662470817566,146.92094427263726L171.92052803993224,-96.01845479731259L171.9354297065735,54.39203800543156L172.0695447063446,81.39846794847271L172.17385637283323,43.95308643120012L172.21856137275697,36.55040456039998L172.32287303924562,131.9324281055916L172.36757803916933,132.0196671374567L172.6954147052765,-324.1409519353977L172.85933303833008,151.64726325849801L173.02325137138368,18.87712371687681L173.17226803779602,115.1625424383574L173.2020713710785,91.33300999319451L173.21697303771973,127.52434953494391L173.26167803764343,150.73236166110377L173.61931803703308,127.74689755942296L173.7087280368805,154.48078241845923L174.05146636962888,40.12736509393295L174.20048303604128,133.52707414267752L174.31969636917114,105.97106721342526L174.49851636886598,98.72098044119623L175.22869803428648,137.53297173372727L175.24359970092772,75.23810201051204L175.3628130340576,153.72131465515386L175.49692803382874,121.15439370605573L176.018486366272,120.45584422626152L176.43573303222658,59.84944545681543L176.48043803215026,94.28646993013756L177.0765046977997,116.14644342646254L177.43414469718934,147.29308544035925L177.58316136360168,131.04279035648142L178.40275302886963,86.16228006719903L178.5964746952057,135.45946962122883L178.76039302825927,24.844627837680378L179.0286230278015,149.64088431463034L179.565083026886,150.10264766157616L179.63959136009217,16.965316495143668L179.6544930267334,37.77848790994122L179.68429636001585,-382.6893795673652L179.89291969299316,-15.356526570568462L180.071739692688,93.32752384675433L180.4144780254364,119.86427117419254L180.50388802528383,106.87191533191124L180.72741302490235,104.97286734116803L180.81682302474977,119.72215529391424L180.9658396911621,108.39260644988181L181.32347969055178,133.3652798006314L181.57680802345277,91.31110124437001L181.90464468955994,142.68182790301557L182.36659635543822,145.04072572439418L182.47090802192687,146.89556025405554L182.51561302185058,141.04827983991925L182.63482635498048,111.22922954877629L182.87325302124023,48.004142270499415L182.93285968780518,111.91087599421348L183.00736802101136,86.3333510037163L183.03717135429383,-202.86204507843195L183.0669746875763,69.47548226170129L183.1116796875,140.34746323926063L183.63323801994324,109.8145277124844L183.7375496864319,83.94806728418635L183.97597635269165,87.08483434856713L184.27400968551638,121.82997730674424L184.69125635147097,46.41530124150822L184.7210596847534,-36.870151773018705L184.73596135139465,73.59070259402725L184.76576468467712,96.84033093740295L184.85517468452454,122.63247547527013L184.98928968429564,99.33017478687253L185.07869968414306,20.41639380745508L185.15320801734924,12.502016679980727L185.58535634994507,-34.86046975744489L185.79397968292236,23.269967824656618L185.95789801597596,134.4669642556432L186.1069146823883,133.81455832845472L186.16652134895324,152.0436304819719L186.18142301559448,143.43944039346894L186.59866968154907,136.8407042598376L186.7327846813202,143.92248355197262L186.85199801445006,54.96282942319192L187.0755230140686,112.6214185617973L187.09042468070984,107.11935748532949L187.26924468040468,15.611585660750194L187.73119634628296,130.14662381495506L187.86531134605406,122.98379633318538L188.05903301239013,125.17757003630112L188.10373801231384,149.52549228268913L188.11863967895508,128.39184648224105L188.19314801216123,135.71580529751807L188.3272630119324,146.59120065927712L188.44647634506228,127.12626999983422L188.5507880115509,121.19910258185124L188.56568967819211,120.86141023278779L188.81901801109316,91.45953412267018L189.2660680103302,-13.825595654055178L189.41508467674257,132.61391432396528L189.96644634246826,60.53425960971548L190.1005613422394,109.2207519987145L190.1154630088806,133.9112083981891L190.20487300872804,120.45692714020812L190.44329967498777,132.43945099375813L190.54761134147643,85.0988880386801L190.96485800743105,95.40230593407061L190.97975967407226,96.78038023197804L191.11387467384338,113.51932365904744L191.18838300704954,81.29566479116075L191.35230134010314,122.03307523906328L191.48641633987427,139.97410655588428L191.69503967285155,96.12336455375494L191.85895800590515,-4.291061394276596L192.2613030052185,123.20181932438754L192.30600800514222,142.54081887865888L192.44012300491332,105.36421549791916L192.8126646709442,-66.06829640932474L192.87227133750915,88.3715571199789L193.00638633728025,-52.48251477444677L193.2150096702576,142.44934027552662L193.30441967010498,118.56553321470653L193.33422300338745,110.28544057726477L193.84087966918946,127.37851159839676L193.93028966903685,146.53538454876738L194.0196996688843,112.76246994503285L194.04950300216674,132.44300913958267L194.06440466880798,110.79288521252953L194.21342133522035,80.76768899147974L194.28792966842653,144.20199137669073L194.4965530014038,113.70415570612427L194.6306680011749,144.04001562814165L194.8690946674347,-18.590859024805184L195.24163633346558,108.87764876329881L195.52476799964904,120.88950337792639L195.65888299942017,50.77336686805049L195.9271129989624,123.46696748917084L196.19534299850463,129.57176226144304L196.32945799827576,83.80966793510575L196.67219633102417,143.27518555306798L196.70199966430664,117.228112390366L196.71690133094788,117.3926674262998L197.47688632965088,88.69018429017288L197.59609966278077,142.8371790912484L197.64080466270448,117.59257186749058L197.77491966247558,136.9062500206533L198.0282479953766,90.22991111996676L198.34118299484254,116.6160965750193L198.56470799446106,112.9858854056834L198.80313466072081,6.218714225415084L199.10116799354554,122.73733395905218L199.2054796600342,135.55652302115763L199.30979132652283,108.99678034756757L199.38429965972898,65.08459771249153L199.8462513256073,69.02566043521432L199.9654646587372,151.7810906111969L199.99526799201965,111.21275378658868L200.50192465782166,139.50192108304762L200.54662965774537,141.69302617679494L200.75525299072265,47.04046672620652L200.79995799064636,6.036210074985377L200.96387632369996,151.1714275553175L201.05328632354735,150.49110344357703L201.47053298950195,114.31886775619517L201.51523798942566,110.64770844283073L201.5301396560669,130.3934471604038L201.6195496559143,136.51768281638408L201.64935298919679,97.4101020586898L201.90268132209778,127.75663641818085L202.02189465522767,156.82950536088117L202.1560096549988,84.8132934272383L202.3795346546173,70.77835297441209L202.61796132087707,86.77512832659993L203.19912631988524,-164.28204968205694L203.37794631958008,59.05626624163958L203.40774965286255,146.6303071129203L203.55676631927489,-166.24473175899584L203.7206846523285,25.59398955520726L203.8249963188171,142.08228954002982L203.9293079853058,-59.89655619154394L203.95911131858827,103.56659676346041L204.21243965148926,92.67622845886822L204.49557131767273,113.16564912081967L205.0320313167572,146.96431700205818L205.18104798316955,130.0130460113034L205.43437631607054,45.94173634257288L205.523786315918,61.76106850951004L205.6579013156891,135.4705713308719L206.10495131492615,-47.726636657900656L206.44768964767457,-61.61320316651904L206.4625913143158,22.052934617427667L206.73082131385803,146.84430140640444L207.14806797981262,-331.1536079831434L207.2225763130188,-400.7634638060781L207.41629797935485,129.7776521963863L207.4311996459961,148.82872740087834L207.62492131233216,142.2293356254698L207.74413464546203,96.36331471068544L207.8186429786682,79.49829284321363L207.84844631195068,107.56095800593613L207.86334797859192,42.47970465584922L208.16138131141665,111.27736028530784L208.2358896446228,132.48669956059507L208.44451297760008,143.36792387242383L208.59352964401245,32.25401346148331L208.66803797721863,128.3553920627528L208.77234964370726,123.79837599063936L209.05548130989075,109.40085458488169L209.23430130958556,130.21429856985628L209.7558596420288,130.2827284178155L209.8899746417999,87.05143345173785L210.60525464057923,124.10650920901745L210.6797629737854,124.23204619244655L210.90328797340393,53.94207621047532L211.0672063064575,96.88132328200076L211.12681297302245,-76.70148001836006L211.36523963928224,-8.708495752082001L211.55896130561828,135.8840124054861L211.856994638443,93.76517578317471L211.9911096382141,101.76453218841134L212.110322971344,138.3947244487124L212.4083563041687,24.833990234014436L212.64678297042846,141.44604628766342L212.94481630325316,114.5885722629919L212.98952130317687,38.536166701248476L213.22794796943666,143.77762999893645L213.4663746356964,145.22060454517953L213.63029296874998,77.727971643647L214.52439296722412,54.973636462373335L214.65850796699524,92.77273303506219L214.67340963363648,105.47245900862953L215.12045963287355,144.5329274845754L215.40359129905698,141.10695793728786L215.4482962989807,136.65249455259396L215.77613296508787,141.24783067655605L216.43180629730224,-0.4706293917962512L216.74474129676818,129.95973459971776L216.8341512966156,133.36002729965233L216.86395462989807,67.00603329155943L217.176889629364,125.58623376605561L217.5047262954712,88.482633150502L217.93687462806702,-112.17340925332002L218.62235129356384,46.24258751716718L218.86077795982362,141.574146904109L219.03959795951843,87.49204682629794L219.91879629135133,132.5180911732139L220.1572229576111,89.93417984464382L220.61917462348939,84.60668523304473L220.73838795661928,103.72519945606864L221.05132295608522,144.73609724281948L221.4238646221161,151.57247589532847L221.49837295532228,149.15059226276983L221.69209462165833,107.53282802698982L221.88581628799437,111.65122343354017L221.97522628784182,132.55854574421917L222.6010962867737,127.53493557127908L222.61599795341493,13.190912018774753L222.6905062866211,-129.49584807842814L222.91403128623963,145.80077845460818L223.3610812854767,116.17417191690484L223.77832795143127,123.61341502523555L224.03165628433226,136.59628063696098L224.43400128364564,46.93963786098769L224.44890295028685,109.12869694649163L224.56811628341674,53.66074695396607L224.74693628311158,124.38194873967424L224.7916412830353,137.33212618874956L224.92575628280642,127.8035203303215L225.1492812824249,128.66319009348075L225.20888794898985,133.732511021786L225.23869128227236,121.8836367978127L225.46221628189085,133.97131380560643L225.7304462814331,152.64121435103615L225.99867628097533,129.37324461311243L226.22220128059385,148.85311874834233L226.37121794700624,115.52271077688405L226.41592294692995,78.45742100472712L226.59474294662473,106.77413262258983L226.609644613266,92.23415646552293L226.66925127983095,66.30859250937723L227.0864979457855,106.05548661731034L227.47394127845763,130.0222286795649L227.9656962776184,142.115804621663L228.04020461082456,152.17412805845402L228.18922127723695,103.69419275674036L228.7256812763214,136.69908195258256L228.8001896095276,131.99434389465773L229.5154696083069,142.60727443452498L229.57507627487183,144.5880290192156L229.87310960769653,97.52426107891802L230.58838960647583,97.78463189884164L230.6032912731171,119.09811324035101L230.99073460578919,113.09837953780324L231.03543960571287,115.1306333107403L231.66130960464477,145.96157091708463L231.89973627090453,147.94182272030008L232.4212946033478,120.42807521863075L232.6448196029663,129.45012597825016L232.76403293609619,105.92426249397118L232.83854126930237,135.21504047328108L232.85344293594358,71.54165997153707L233.34519793510435,134.77688391369512L233.59852626800537,73.76209766805233L233.64323126792908,133.32275885301374L233.6879362678528,141.7519252770098L233.88165793418884,145.72963855924687L234.2840029335022,33.954011555374564L234.55223293304445,114.16739608875915L234.65654459953308,136.91399432872382L234.76085626602173,144.2591021955414L234.9992829322815,98.62548511133345L235.0886929321289,69.99405070689377L235.40162793159485,130.14558878495848L235.5953495979309,136.60614657235547L235.7592679309845,141.0740727137665L236.11690793037417,69.79050708550147L236.45964626312255,-74.52096280263825L236.50435126304626,82.5769214255087L236.69807292938233,145.26959903450182L236.75767959594728,137.14660903284937L236.84708959579467,-171.43600021616908L237.1600245952606,126.83021090362269L237.33884459495545,150.84161303687753L237.4878612613678,112.80811071616336L237.50276292800905,143.83683850313605L237.78589459419248,148.21453286580572L237.83059959411622,127.09824683893027L237.9498129272461,130.73950815057844L237.96471459388732,136.4258156165805L237.97961626052856,120.2264911558085L238.06902626037598,122.69961982334034L238.3670595932007,138.98335079616476L238.39686292648315,109.01789348614557L238.66509292602538,114.40444374164228L239.11214292526248,125.00178068901651L239.15684792518616,110.63257711462444L239.41017625808715,113.7715763077523L239.61879959106446,122.0871546355396L239.70820959091188,116.63587264637752L239.90193125724792,68.87502489521324" fill="none"></path></g></g></g></g></g></g><g transform="translate(61, 177)" clip-path="url(#clip_1)"><clipPath id="clip_1"><rect width="268" height="22"></rect></clipPath><g><g><line x1="0" y1="0" x2="0" y2="5" style="visibility: inherit;" fill="rgb(0, 0, 0)" stroke="rgb(204, 204, 204)" stroke-width="1px"></line><line x1="29.803333282470703" y1="0" x2="29.803333282470703" y2="5" style="visibility: inherit;" fill="rgb(0, 0, 0)" stroke="rgb(204, 204, 204)" stroke-width="1px"></line><line x1="59.606666564941406" y1="0" x2="59.606666564941406" y2="5" style="visibility: inherit;" fill="rgb(0, 0, 0)" stroke="rgb(204, 204, 204)" stroke-width="1px"></line><line x1="89.40999984741211" y1="0" x2="89.40999984741211" y2="5" style="visibility: inherit;" fill="rgb(0, 0, 0)" stroke="rgb(204, 204, 204)" stroke-width="1px"></line><line x1="119.21333312988281" y1="0" x2="119.21333312988281" y2="5" style="visibility: inherit;" fill="rgb(0, 0, 0)" stroke="rgb(204, 204, 204)" stroke-width="1px"></line><line x1="149.01666641235352" y1="0" x2="149.01666641235352" y2="5" style="visibility: inherit;" fill="rgb(0, 0, 0)" stroke="rgb(204, 204, 204)" stroke-width="1px"></line><line x1="178.81999969482422" y1="0" x2="178.81999969482422" y2="5" style="visibility: inherit;" fill="rgb(0, 0, 0)" stroke="rgb(204, 204, 204)" stroke-width="1px"></line><line x1="208.62333297729492" y1="0" x2="208.62333297729492" y2="5" style="visibility: inherit;" fill="rgb(0, 0, 0)" stroke="rgb(204, 204, 204)" stroke-width="1px"></line><line x1="238.42666625976562" y1="0" x2="238.42666625976562" y2="5" style="visibility: inherit;" fill="rgb(0, 0, 0)" stroke="rgb(204, 204, 204)" stroke-width="1px"></line><line x1="268.2299995422363" y1="0" x2="268.2299995422363" y2="5" style="visibility: inherit;" fill="rgb(0, 0, 0)" stroke="rgb(204, 204, 204)" stroke-width="1px"></line></g><g transform="translate(0, 8)"><text style="text-anchor: middle; visibility: hidden; font-family: &quot;Helvetica Neue&quot;, sans-serif; font-size: 12px; font-weight: 200;" x="0" y="0" dx="0em" dy="0.95em" fill="rgb(50, 49, 63)" stroke="none" stroke-width="1px">-2k</text><text style="text-anchor: middle; visibility: inherit; font-family: &quot;Helvetica Neue&quot;, sans-serif; font-size: 12px; font-weight: 200;" x="29.803333282470703" y="0" dx="0em" dy="0.95em" fill="rgb(50, 49, 63)" stroke="none" stroke-width="1px">0</text><text style="text-anchor: middle; visibility: inherit; font-family: &quot;Helvetica Neue&quot;, sans-serif; font-size: 12px; font-weight: 200;" x="59.606666564941406" y="0" dx="0em" dy="0.95em" fill="rgb(50, 49, 63)" stroke="none" stroke-width="1px">2k</text><text style="text-anchor: middle; visibility: inherit; font-family: &quot;Helvetica Neue&quot;, sans-serif; font-size: 12px; font-weight: 200;" x="89.40999984741211" y="0" dx="0em" dy="0.95em" fill="rgb(50, 49, 63)" stroke="none" stroke-width="1px">4k</text><text style="text-anchor: middle; visibility: inherit; font-family: &quot;Helvetica Neue&quot;, sans-serif; font-size: 12px; font-weight: 200;" x="119.21333312988281" y="0" dx="0em" dy="0.95em" fill="rgb(50, 49, 63)" stroke="none" stroke-width="1px">6k</text><text style="text-anchor: middle; visibility: inherit; font-family: &quot;Helvetica Neue&quot;, sans-serif; font-size: 12px; font-weight: 200;" x="149.01666641235352" y="0" dx="0em" dy="0.95em" fill="rgb(50, 49, 63)" stroke="none" stroke-width="1px">8k</text><text style="text-anchor: middle; visibility: inherit; font-family: &quot;Helvetica Neue&quot;, sans-serif; font-size: 12px; font-weight: 200;" x="178.81999969482422" y="0" dx="0em" dy="0.95em" fill="rgb(50, 49, 63)" stroke="none" stroke-width="1px">10k</text><text style="text-anchor: middle; visibility: inherit; font-family: &quot;Helvetica Neue&quot;, sans-serif; font-size: 12px; font-weight: 200;" x="208.62333297729492" y="0" dx="0em" dy="0.95em" fill="rgb(50, 49, 63)" stroke="none" stroke-width="1px">12k</text><text style="text-anchor: middle; visibility: inherit; font-family: &quot;Helvetica Neue&quot;, sans-serif; font-size: 12px; font-weight: 200;" x="238.42666625976562" y="0" dx="0em" dy="0.95em" fill="rgb(50, 49, 63)" stroke="none" stroke-width="1px">14k</text><text style="text-anchor: middle; visibility: hidden; font-family: &quot;Helvetica Neue&quot;, sans-serif; font-size: 12px; font-weight: 200;" x="268.2299995422363" y="0" dx="0em" dy="0.95em" fill="rgb(50, 49, 63)" stroke="none" stroke-width="1px">16k</text></g><line x1="0" y1="0" x2="268.2299995422363" y2="0" fill="rgb(0, 0, 0)" stroke="rgb(204, 204, 204)" stroke-width="1px"></line></g></g></g></g></svg>